<svg width="381" height="266" viewBox="0 0 381 266" fill="none" xmlns="http://www.w3.org/2000/svg">
<path d="M314.37 46.04C314.186 46.04 314.03 45.984 313.902 45.872C313.766 45.76 313.698 45.576 313.698 45.32C313.698 45.064 313.766 44.88 313.902 44.768C314.03 44.656 314.186 44.6 314.37 44.6C314.578 44.6 314.742 44.664 314.862 44.792C314.982 44.912 315.042 45.088 315.042 45.32C315.042 45.552 314.982 45.732 314.862 45.86C314.742 45.98 314.578 46.04 314.37 46.04ZM316.446 46.04C316.238 46.04 316.074 45.98 315.954 45.86C315.834 45.732 315.774 45.552 315.774 45.32C315.774 45.088 315.834 44.912 315.954 44.792C316.074 44.664 316.238 44.6 316.446 44.6C316.662 44.6 316.826 44.668 316.938 44.804C317.058 44.932 317.118 45.104 317.118 45.32C317.118 45.536 317.058 45.712 316.938 45.848C316.826 45.976 316.662 46.04 316.446 46.04ZM315.738 54C315.098 54 314.55 53.892 314.094 53.676C313.638 53.452 313.29 53.132 313.05 52.716C312.81 52.3 312.69 51.804 312.69 51.228C312.69 50.596 312.822 50.056 313.086 49.608C313.358 49.152 313.738 48.8 314.226 48.552C314.722 48.304 315.306 48.18 315.978 48.18H316.77V47.424H317.79V53.064H319.158C319.198 53.064 319.218 53.08 319.218 53.112V53.94C319.218 53.98 319.198 54 319.158 54H315.738ZM316.77 53.064V49.116H316.014C315.294 49.116 314.738 49.3 314.346 49.668C313.954 50.036 313.758 50.552 313.758 51.216C313.758 51.816 313.926 52.276 314.262 52.596C314.606 52.908 315.09 53.064 315.714 53.064H316.77ZM319.034 54C318.994 54 318.974 53.98 318.974 53.94V53.112C318.974 53.08 318.994 53.064 319.034 53.064H324.182C324.03 52.912 323.89 52.656 323.762 52.296C323.642 51.928 323.53 51.452 323.426 50.868C323.346 50.404 323.246 50.036 323.126 49.764C323.006 49.492 322.85 49.296 322.658 49.176C322.466 49.056 322.218 48.996 321.914 48.996C321.642 48.996 321.358 49.036 321.062 49.116C320.774 49.196 320.478 49.316 320.174 49.476L319.754 48.648C320.098 48.424 320.446 48.272 320.798 48.192C321.15 48.104 321.526 48.06 321.926 48.06C322.174 48.06 322.398 48.084 322.598 48.132C322.806 48.172 322.99 48.236 323.15 48.324C323.486 48.5 323.746 48.76 323.93 49.104C324.122 49.44 324.27 49.936 324.374 50.592C324.454 51.064 324.538 51.464 324.626 51.792C324.714 52.12 324.81 52.388 324.914 52.596C325.026 52.804 325.146 52.968 325.274 53.088V54H319.034ZM332.751 53.064C332.791 53.064 332.811 53.08 332.811 53.112V53.94C332.811 53.98 332.791 54 332.751 54H330.579C330.539 54 330.519 53.98 330.519 53.94V53.112C330.519 53.08 330.539 53.064 330.579 53.064H332.751ZM328.995 56.88C328.587 56.88 328.203 56.828 327.843 56.724C327.483 56.62 327.147 56.468 326.835 56.268L327.315 55.464C327.571 55.6 327.835 55.712 328.107 55.8C328.387 55.896 328.691 55.944 329.019 55.944C329.563 55.944 329.987 55.796 330.291 55.5C330.603 55.212 330.759 54.828 330.759 54.348V54H329.583C328.727 54 328.067 53.768 327.603 53.304C327.139 52.832 326.907 52.152 326.907 51.264C326.907 50.632 327.039 50.088 327.303 49.632C327.575 49.168 327.959 48.812 328.455 48.564C328.951 48.308 329.531 48.18 330.195 48.18H331.767V54.288C331.767 55.104 331.523 55.74 331.035 56.196C330.555 56.652 329.875 56.88 328.995 56.88ZM330.747 53.064V49.116H330.231C329.519 49.116 328.963 49.304 328.563 49.68C328.171 50.056 327.975 50.58 327.975 51.252C327.975 51.876 328.111 52.336 328.383 52.632C328.655 52.92 329.067 53.064 329.619 53.064H330.747ZM332.628 54C332.588 54 332.568 53.98 332.568 53.94V53.112C332.568 53.08 332.588 53.064 332.628 53.064H334.212V44.88H335.28V54H332.628ZM343.022 46.04C342.838 46.04 342.682 45.984 342.554 45.872C342.418 45.76 342.35 45.576 342.35 45.32C342.35 45.064 342.418 44.88 342.554 44.768C342.682 44.656 342.838 44.6 343.022 44.6C343.23 44.6 343.394 44.664 343.514 44.792C343.634 44.912 343.694 45.088 343.694 45.32C343.694 45.552 343.634 45.732 343.514 45.86C343.394 45.98 343.23 46.04 343.022 46.04ZM345.098 46.04C344.89 46.04 344.726 45.98 344.606 45.86C344.486 45.732 344.426 45.552 344.426 45.32C344.426 45.088 344.486 44.912 344.606 44.792C344.726 44.664 344.89 44.6 345.098 44.6C345.314 44.6 345.478 44.668 345.59 44.804C345.71 44.932 345.77 45.104 345.77 45.32C345.77 45.536 345.71 45.712 345.59 45.848C345.478 45.976 345.314 46.04 345.098 46.04ZM344.391 54C343.751 54 343.203 53.892 342.747 53.676C342.291 53.452 341.943 53.132 341.703 52.716C341.463 52.3 341.343 51.804 341.343 51.228C341.343 50.596 341.475 50.056 341.739 49.608C342.011 49.152 342.391 48.8 342.879 48.552C343.375 48.304 343.959 48.18 344.631 48.18H345.423V47.424H346.443V53.064H347.811C347.851 53.064 347.871 53.08 347.871 53.112V53.94C347.871 53.98 347.851 54 347.811 54H344.391ZM345.423 53.064V49.116H344.667C343.947 49.116 343.391 49.3 342.999 49.668C342.607 50.036 342.411 50.552 342.411 51.216C342.411 51.816 342.579 52.276 342.915 52.596C343.259 52.908 343.743 53.064 344.367 53.064H345.423ZM347.686 54C347.646 54 347.626 53.98 347.626 53.94V53.112C347.626 53.08 347.646 53.064 347.686 53.064H349.534C349.358 52.92 349.206 52.74 349.078 52.524C348.958 52.308 348.862 52.064 348.79 51.792C348.718 51.52 348.682 51.232 348.682 50.928C348.682 50.32 348.798 49.804 349.03 49.38C349.27 48.956 349.602 48.632 350.026 48.408C350.458 48.176 350.962 48.06 351.538 48.06C351.882 48.06 352.198 48.096 352.486 48.168C352.782 48.232 353.022 48.312 353.206 48.408L352.882 49.308C352.634 49.204 352.394 49.128 352.162 49.08C351.93 49.024 351.702 48.996 351.478 48.996C351.102 48.996 350.786 49.072 350.53 49.224C350.274 49.368 350.082 49.588 349.954 49.884C349.834 50.172 349.774 50.536 349.774 50.976C349.774 51.392 349.834 51.756 349.954 52.068C350.082 52.38 350.258 52.624 350.482 52.8C350.706 52.976 350.962 53.064 351.25 53.064H353.386V54H347.686ZM357.774 53.064C357.814 53.064 357.834 53.08 357.834 53.112V53.94C357.834 53.98 357.814 54 357.774 54H355.122V44.88H356.19V53.064H357.774ZM359.711 56.4C359.503 56.4 359.339 56.336 359.219 56.208C359.099 56.088 359.039 55.912 359.039 55.68C359.039 55.448 359.099 55.268 359.219 55.14C359.339 55.02 359.503 54.96 359.711 54.96C359.927 54.96 360.091 55.024 360.203 55.152C360.323 55.288 360.383 55.464 360.383 55.68C360.383 55.896 360.323 56.068 360.203 56.196C360.091 56.332 359.927 56.4 359.711 56.4ZM357.659 54C357.619 54 357.599 53.98 357.599 53.94V53.112C357.599 53.08 357.619 53.064 357.659 53.064H359.243V48.18H360.311V53.064H361.871C361.911 53.064 361.931 53.08 361.931 53.112V53.94C361.931 53.98 361.911 54 361.871 54H357.659ZM361.749 54C361.709 54 361.689 53.98 361.689 53.94V53.112C361.689 53.08 361.709 53.064 361.749 53.064H363.213V44.88H364.233V50.76C364.489 50.16 364.785 49.66 365.121 49.26C365.457 48.86 365.829 48.56 366.237 48.36C366.653 48.16 367.093 48.06 367.557 48.06C368.461 48.06 369.145 48.308 369.609 48.804C370.073 49.292 370.305 50.06 370.305 51.108V54H361.749ZM369.285 53.064V51.156C369.285 50.42 369.121 49.88 368.793 49.536C368.473 49.184 367.989 49.008 367.341 49.008C366.933 49.008 366.545 49.124 366.177 49.356C365.809 49.58 365.461 49.92 365.133 50.376C364.813 50.824 364.513 51.392 364.233 52.08V53.064H369.285ZM310.692 69.064H314.688C314.632 68.688 314.56 68.332 314.472 67.996C314.384 67.66 314.276 67.344 314.148 67.048C313.916 66.496 313.616 66 313.248 65.56C312.88 65.12 312.432 64.72 311.904 64.36L312.288 63.448C312.904 63.768 313.444 64.196 313.908 64.732C314.372 65.26 314.756 65.888 315.06 66.616C315.364 67.336 315.58 68.152 315.708 69.064H317.04C317.08 69.064 317.1 69.08 317.1 69.112V69.94C317.1 69.98 317.08 70 317.04 70H310.692V69.064ZM318.167 72.4C317.983 72.4 317.827 72.344 317.699 72.232C317.563 72.12 317.495 71.936 317.495 71.68C317.495 71.424 317.563 71.24 317.699 71.128C317.827 71.016 317.983 70.96 318.167 70.96C318.375 70.96 318.539 71.02 318.659 71.14C318.779 71.268 318.839 71.448 318.839 71.68C318.839 71.912 318.779 72.088 318.659 72.208C318.539 72.336 318.375 72.4 318.167 72.4ZM320.243 72.4C320.035 72.4 319.871 72.336 319.751 72.208C319.631 72.088 319.571 71.912 319.571 71.68C319.571 71.448 319.631 71.268 319.751 71.14C319.871 71.02 320.035 70.96 320.243 70.96C320.459 70.96 320.623 71.024 320.735 71.152C320.855 71.288 320.915 71.464 320.915 71.68C320.915 71.896 320.855 72.068 320.735 72.196C320.623 72.332 320.459 72.4 320.243 72.4ZM316.924 70C316.884 70 316.864 69.98 316.864 69.94V69.112C316.864 69.08 316.884 69.064 316.924 69.064H319.228V64.18H320.296V70H316.924ZM322.013 69.064H326.009C325.953 68.688 325.881 68.332 325.793 67.996C325.705 67.66 325.597 67.344 325.469 67.048C325.237 66.496 324.937 66 324.569 65.56C324.201 65.12 323.753 64.72 323.225 64.36L323.609 63.448C324.225 63.768 324.765 64.196 325.229 64.732C325.693 65.26 326.077 65.888 326.381 66.616C326.685 67.336 326.901 68.152 327.029 69.064H328.361C328.401 69.064 328.421 69.08 328.421 69.112V69.94C328.421 69.98 328.401 70 328.361 70H322.013V69.064ZM331.234 72.4C331.026 72.4 330.862 72.336 330.742 72.208C330.622 72.088 330.562 71.912 330.562 71.68C330.562 71.448 330.622 71.268 330.742 71.14C330.862 71.02 331.026 70.96 331.234 70.96C331.45 70.96 331.614 71.024 331.726 71.152C331.846 71.288 331.906 71.464 331.906 71.68C331.906 71.896 331.846 72.068 331.726 72.196C331.614 72.332 331.45 72.4 331.234 72.4ZM328.245 70C328.205 70 328.185 69.98 328.185 69.94V69.112C328.185 69.08 328.205 69.064 328.245 69.064H333.393C333.241 68.912 333.101 68.656 332.973 68.296C332.853 67.928 332.741 67.452 332.637 66.868C332.557 66.404 332.457 66.036 332.337 65.764C332.217 65.492 332.061 65.296 331.869 65.176C331.677 65.056 331.429 64.996 331.125 64.996C330.853 64.996 330.569 65.036 330.273 65.116C329.985 65.196 329.689 65.316 329.385 65.476L328.965 64.648C329.309 64.424 329.657 64.272 330.009 64.192C330.361 64.104 330.737 64.06 331.137 64.06C331.385 64.06 331.609 64.084 331.809 64.132C332.017 64.172 332.201 64.236 332.361 64.324C332.697 64.5 332.957 64.76 333.141 65.104C333.333 65.44 333.481 65.936 333.585 66.592C333.665 67.064 333.749 67.464 333.837 67.792C333.925 68.12 334.021 68.388 334.125 68.596C334.237 68.804 334.357 68.968 334.485 69.088V70H328.245ZM341.803 62.04C341.619 62.04 341.463 61.984 341.335 61.872C341.199 61.76 341.131 61.576 341.131 61.32C341.131 61.064 341.199 60.88 341.335 60.768C341.463 60.656 341.619 60.6 341.803 60.6C342.011 60.6 342.175 60.664 342.295 60.792C342.415 60.912 342.475 61.088 342.475 61.32C342.475 61.552 342.415 61.732 342.295 61.86C342.175 61.98 342.011 62.04 341.803 62.04ZM343.879 62.04C343.671 62.04 343.507 61.98 343.387 61.86C343.267 61.732 343.207 61.552 343.207 61.32C343.207 61.088 343.267 60.912 343.387 60.792C343.507 60.664 343.671 60.6 343.879 60.6C344.095 60.6 344.259 60.668 344.371 60.804C344.491 60.932 344.551 61.104 344.551 61.32C344.551 61.536 344.491 61.712 344.371 61.848C344.259 61.976 344.095 62.04 343.879 62.04ZM343.172 70C342.532 70 341.984 69.892 341.528 69.676C341.072 69.452 340.724 69.132 340.484 68.716C340.244 68.3 340.124 67.804 340.124 67.228C340.124 66.596 340.256 66.056 340.52 65.608C340.792 65.152 341.172 64.8 341.66 64.552C342.156 64.304 342.74 64.18 343.412 64.18H344.204V63.424H345.224V69.064H346.592C346.632 69.064 346.652 69.08 346.652 69.112V69.94C346.652 69.98 346.632 70 346.592 70H343.172ZM344.204 69.064V65.116H343.448C342.728 65.116 342.172 65.3 341.78 65.668C341.388 66.036 341.192 66.552 341.192 67.216C341.192 67.816 341.36 68.276 341.696 68.596C342.04 68.908 342.524 69.064 343.148 69.064H344.204ZM347.71 72.4C347.526 72.4 347.37 72.344 347.242 72.232C347.106 72.12 347.038 71.936 347.038 71.68C347.038 71.424 347.106 71.24 347.242 71.128C347.37 71.016 347.526 70.96 347.71 70.96C347.918 70.96 348.082 71.02 348.202 71.14C348.322 71.268 348.382 71.448 348.382 71.68C348.382 71.912 348.322 72.088 348.202 72.208C348.082 72.336 347.918 72.4 347.71 72.4ZM349.786 72.4C349.578 72.4 349.414 72.336 349.294 72.208C349.174 72.088 349.114 71.912 349.114 71.68C349.114 71.448 349.174 71.268 349.294 71.14C349.414 71.02 349.578 70.96 349.786 70.96C350.002 70.96 350.166 71.024 350.278 71.152C350.398 71.288 350.458 71.464 350.458 71.68C350.458 71.896 350.398 72.068 350.278 72.196C350.166 72.332 350.002 72.4 349.786 72.4ZM346.467 70C346.427 70 346.407 69.98 346.407 69.94V69.112C346.407 69.08 346.427 69.064 346.467 69.064H348.771V64.18H349.839V70H346.467ZM351.76 72.88C351.568 72.88 351.368 72.852 351.16 72.796C350.96 72.74 350.752 72.656 350.536 72.544L350.848 71.74C351.04 71.828 351.2 71.884 351.328 71.908C351.456 71.932 351.592 71.944 351.736 71.944C352.096 71.944 352.376 71.796 352.576 71.5C352.784 71.212 352.888 70.828 352.888 70.348V64.18H353.896V70.288C353.896 70.824 353.812 71.284 353.644 71.668C353.484 72.06 353.244 72.36 352.924 72.568C352.612 72.776 352.224 72.88 351.76 72.88ZM357.858 72.88C357.45 72.88 357.066 72.828 356.706 72.724C356.346 72.62 356.01 72.468 355.698 72.268L356.178 71.464C356.434 71.6 356.698 71.712 356.97 71.8C357.25 71.896 357.554 71.944 357.882 71.944C358.426 71.944 358.85 71.796 359.154 71.5C359.466 71.212 359.622 70.828 359.622 70.348V70H358.446C357.59 70 356.93 69.768 356.466 69.304C356.002 68.832 355.77 68.152 355.77 67.264C355.77 66.632 355.902 66.088 356.166 65.632C356.438 65.168 356.822 64.812 357.318 64.564C357.814 64.308 358.394 64.18 359.058 64.18H360.63V70.288C360.63 71.104 360.386 71.74 359.898 72.196C359.418 72.652 358.738 72.88 357.858 72.88ZM359.61 69.064V65.116H359.094C358.382 65.116 357.826 65.304 357.426 65.68C357.034 66.056 356.838 66.58 356.838 67.252C356.838 67.876 356.974 68.336 357.246 68.632C357.518 68.92 357.93 69.064 358.482 69.064H359.61ZM364.525 70V70.288C364.525 70.824 364.441 71.284 364.273 71.668C364.113 72.06 363.873 72.36 363.553 72.568C363.241 72.776 362.853 72.88 362.389 72.88C362.197 72.88 361.997 72.852 361.789 72.796C361.589 72.74 361.381 72.656 361.165 72.544L361.477 71.74C361.669 71.828 361.829 71.884 361.957 71.908C362.085 71.932 362.221 71.944 362.365 71.944C362.725 71.944 363.005 71.796 363.205 71.5C363.413 71.212 363.517 70.828 363.517 70.348V64.18H364.525V69.064H366.013C366.053 69.064 366.073 69.08 366.073 69.112V69.94C366.073 69.98 366.053 70 366.013 70H364.525ZM365.897 70C365.857 70 365.837 69.98 365.837 69.94V69.112C365.837 69.08 365.857 69.064 365.897 69.064H367.385C367.233 68.672 367.121 68.308 367.049 67.972C366.977 67.628 366.941 67.308 366.941 67.012C366.941 66.66 366.977 66.324 367.049 66.004C367.121 65.684 367.229 65.384 367.373 65.104C367.669 64.856 368.005 64.66 368.381 64.516C368.765 64.372 369.161 64.3 369.569 64.3C369.817 64.3 370.053 64.328 370.277 64.384C370.501 64.432 370.705 64.512 370.889 64.624C371.265 64.848 371.553 65.164 371.753 65.572C371.961 65.98 372.065 66.44 372.065 66.952C372.065 67.272 372.037 67.568 371.981 67.84C371.925 68.104 371.841 68.352 371.729 68.584C371.505 69.04 371.181 69.392 370.757 69.64C370.341 69.88 369.865 70 369.329 70H365.897ZM368.021 66.808C368.021 67.176 368.053 67.54 368.117 67.9C368.181 68.26 368.301 68.648 368.477 69.064H369.329C369.689 69.064 369.989 68.984 370.229 68.824C370.477 68.656 370.665 68.416 370.793 68.104C370.921 67.784 370.985 67.396 370.985 66.94C370.985 66.436 370.845 66.024 370.565 65.704C370.293 65.384 369.961 65.224 369.569 65.224C369.313 65.224 369.061 65.272 368.813 65.368C368.573 65.456 368.357 65.572 368.165 65.716C368.101 65.884 368.061 66.056 368.045 66.232C368.029 66.408 368.021 66.6 368.021 66.808Z" fill="#FCFDFD"/>
<path d="M332.404 31.3099H333.509C333.863 31.3099 334.155 31.25 334.385 31.1304C334.615 31.0059 334.785 30.8336 334.895 30.6134C335.01 30.3884 335.067 30.1276 335.067 29.8308C335.067 29.5627 335.015 29.3258 334.909 29.12C334.809 28.9093 334.653 28.7466 334.443 28.6317C334.232 28.5121 333.966 28.4522 333.646 28.4522C333.392 28.4522 333.157 28.5025 332.942 28.603C332.727 28.7035 332.554 28.8447 332.425 29.0266C332.296 29.2085 332.231 29.4287 332.231 29.6872H330.156C330.156 29.1128 330.309 28.6126 330.616 28.1866C330.927 27.7605 331.343 27.4279 331.865 27.1885C332.387 26.9492 332.961 26.8295 333.588 26.8295C334.297 26.8295 334.917 26.9444 335.448 27.1742C335.979 27.3991 336.393 27.7318 336.69 28.1722C336.987 28.6126 337.135 29.1583 337.135 29.8092C337.135 30.1395 337.059 30.4602 336.905 30.7714C336.752 31.0777 336.532 31.3554 336.245 31.6043C335.962 31.8484 335.618 32.0446 335.211 32.193C334.804 32.3366 334.347 32.4084 333.84 32.4084H332.404V31.3099ZM332.404 32.8823V31.8125H333.84C334.409 31.8125 334.909 31.8771 335.34 32.0063C335.771 32.1356 336.132 32.3223 336.424 32.5664C336.716 32.8057 336.937 33.0905 337.085 33.4208C337.233 33.7463 337.308 34.1077 337.308 34.505C337.308 34.9932 337.214 35.4288 337.027 35.8118C336.841 36.1899 336.578 36.5106 336.238 36.7739C335.903 37.0372 335.51 37.2382 335.06 37.377C334.61 37.5111 334.12 37.5781 333.588 37.5781C333.148 37.5781 332.715 37.5182 332.289 37.3986C331.867 37.2741 331.484 37.0898 331.14 36.8457C330.8 36.5968 330.527 36.2857 330.321 35.9123C330.12 35.5341 330.02 35.0866 330.02 34.5696H332.095C332.095 34.8377 332.162 35.077 332.296 35.2876C332.43 35.4982 332.614 35.6634 332.849 35.7831C333.088 35.9027 333.354 35.9626 333.646 35.9626C333.976 35.9626 334.258 35.9027 334.493 35.7831C334.732 35.6586 334.914 35.4863 335.039 35.2661C335.168 35.0411 335.232 34.7802 335.232 34.4835C335.232 34.1005 335.163 33.7942 335.024 33.5644C334.885 33.3299 334.687 33.1575 334.428 33.0475C334.17 32.9374 333.863 32.8823 333.509 32.8823H332.404ZM345.766 31.2883V33.0977C345.766 33.8827 345.682 34.56 345.514 35.1297C345.347 35.6945 345.105 36.1588 344.789 36.5226C344.478 36.8816 344.107 37.1473 343.676 37.3196C343.245 37.4919 342.767 37.5781 342.24 37.5781C341.819 37.5781 341.426 37.5254 341.063 37.4201C340.699 37.31 340.371 37.1401 340.079 36.9103C339.792 36.6806 339.543 36.391 339.332 36.0415C339.126 35.6873 338.968 35.2661 338.858 34.7778C338.748 34.2896 338.693 33.7296 338.693 33.0977V31.2883C338.693 30.5033 338.777 29.8308 338.945 29.2707C339.117 28.7059 339.359 28.244 339.67 27.885C339.986 27.526 340.359 27.2627 340.79 27.0952C341.221 26.9229 341.699 26.8367 342.226 26.8367C342.647 26.8367 343.037 26.8918 343.396 27.0018C343.76 27.1072 344.088 27.2723 344.38 27.4973C344.672 27.7222 344.921 28.0118 345.127 28.3661C345.332 28.7155 345.49 29.1343 345.6 29.6226C345.711 30.106 345.766 30.6613 345.766 31.2883ZM343.691 33.3706V31.0083C343.691 30.6302 343.669 30.2999 343.626 30.0175C343.588 29.7351 343.528 29.4957 343.446 29.2995C343.365 29.0984 343.265 28.9357 343.145 28.8112C343.025 28.6868 342.889 28.5958 342.736 28.5384C342.582 28.4809 342.413 28.4522 342.226 28.4522C341.991 28.4522 341.783 28.4977 341.601 28.5886C341.424 28.6796 341.273 28.8256 341.149 29.0266C341.024 29.2229 340.929 29.4861 340.862 29.8164C340.799 30.1419 340.768 30.5392 340.768 31.0083V33.3706C340.768 33.7487 340.787 34.0814 340.826 34.3686C340.869 34.6558 340.931 34.9023 341.012 35.1081C341.099 35.3092 341.199 35.4743 341.314 35.6036C341.434 35.728 341.57 35.819 341.723 35.8764C341.881 35.9338 342.054 35.9626 342.24 35.9626C342.47 35.9626 342.673 35.9171 342.851 35.8261C343.032 35.7304 343.186 35.582 343.31 35.381C343.439 35.1751 343.535 34.9071 343.597 34.5768C343.659 34.2465 343.691 33.8444 343.691 33.3706ZM347.144 29.5436V28.9907C347.144 28.5934 347.23 28.232 347.403 27.9065C347.575 27.581 347.829 27.3202 348.164 27.1239C348.499 26.9277 348.91 26.8295 349.399 26.8295C349.901 26.8295 350.32 26.9277 350.655 27.1239C350.995 27.3202 351.249 27.581 351.416 27.9065C351.589 28.232 351.675 28.5934 351.675 28.9907V29.5436C351.675 29.9313 351.589 30.2879 351.416 30.6134C351.249 30.9389 350.997 31.1998 350.662 31.396C350.327 31.5923 349.913 31.6904 349.42 31.6904C348.922 31.6904 348.504 31.5923 348.164 31.396C347.829 31.1998 347.575 30.9389 347.403 30.6134C347.23 30.2879 347.144 29.9313 347.144 29.5436ZM348.516 28.9907V29.5436C348.516 29.7111 348.547 29.8715 348.609 30.0246C348.676 30.173 348.776 30.2951 348.91 30.3908C349.049 30.4818 349.217 30.5273 349.413 30.5273C349.619 30.5273 349.786 30.4818 349.916 30.3908C350.045 30.2951 350.141 30.173 350.203 30.0246C350.265 29.8715 350.296 29.7111 350.296 29.5436V28.9907C350.296 28.8136 350.263 28.6509 350.196 28.5025C350.133 28.3493 350.035 28.2272 349.901 28.1363C349.772 28.0406 349.605 27.9927 349.399 27.9927C349.207 27.9927 349.045 28.0406 348.91 28.1363C348.776 28.2272 348.676 28.3493 348.609 28.5025C348.547 28.6509 348.516 28.8136 348.516 28.9907ZM352.141 35.424V34.8712C352.141 34.4787 352.228 34.1197 352.4 33.7942C352.577 33.4687 352.833 33.2078 353.168 33.0116C353.508 32.8153 353.925 32.7172 354.418 32.7172C354.915 32.7172 355.332 32.8153 355.667 33.0116C356.002 33.2078 356.256 33.4687 356.428 33.7942C356.6 34.1197 356.686 34.4787 356.686 34.8712V35.424C356.686 35.8166 356.6 36.1756 356.428 36.5011C356.26 36.8266 356.009 37.0874 355.674 37.2837C355.339 37.4799 354.925 37.5781 354.432 37.5781C353.934 37.5781 353.515 37.4799 353.175 37.2837C352.836 37.0874 352.577 36.8266 352.4 36.5011C352.228 36.1756 352.141 35.8166 352.141 35.424ZM353.52 34.8712V35.424C353.52 35.5964 353.558 35.7591 353.635 35.9123C353.712 36.0655 353.817 36.1875 353.951 36.2785C354.09 36.3694 354.25 36.4149 354.432 36.4149C354.662 36.4149 354.841 36.3694 354.97 36.2785C355.1 36.1875 355.188 36.0655 355.236 35.9123C355.289 35.7591 355.315 35.5964 355.315 35.424V34.8712C355.315 34.6989 355.282 34.5385 355.215 34.3901C355.148 34.2369 355.047 34.1149 354.913 34.0239C354.784 33.9282 354.619 33.8803 354.418 33.8803C354.217 33.8803 354.049 33.9282 353.915 34.0239C353.786 34.1149 353.688 34.2369 353.621 34.3901C353.554 34.5385 353.52 34.6989 353.52 34.8712ZM354.927 28.4738L349.822 36.6447L348.817 36.1133L353.922 27.9424L354.927 28.4738Z" fill="#FF703B"/>
<path d="M317.846 220.04C317.662 220.04 317.506 219.984 317.378 219.872C317.242 219.76 317.174 219.576 317.174 219.32C317.174 219.064 317.242 218.88 317.378 218.768C317.506 218.656 317.662 218.6 317.846 218.6C318.054 218.6 318.218 218.664 318.338 218.792C318.458 218.912 318.518 219.088 318.518 219.32C318.518 219.552 318.458 219.732 318.338 219.86C318.218 219.98 318.054 220.04 317.846 220.04ZM319.922 220.04C319.714 220.04 319.55 219.98 319.43 219.86C319.31 219.732 319.25 219.552 319.25 219.32C319.25 219.088 319.31 218.912 319.43 218.792C319.55 218.664 319.714 218.6 319.922 218.6C320.138 218.6 320.302 218.668 320.414 218.804C320.534 218.932 320.594 219.104 320.594 219.32C320.594 219.536 320.534 219.712 320.414 219.848C320.302 219.976 320.138 220.04 319.922 220.04ZM319.115 228.12C318.235 228.12 317.551 227.88 317.063 227.4C316.575 226.912 316.331 226.224 316.331 225.336C316.331 225.04 316.359 224.756 316.415 224.484C316.479 224.212 316.575 223.948 316.703 223.692C316.943 223.188 317.279 222.792 317.711 222.504C318.143 222.208 318.623 222.06 319.151 222.06C319.399 222.06 319.639 222.096 319.871 222.168C320.103 222.24 320.327 222.352 320.543 222.504C320.831 222.704 321.079 222.956 321.287 223.26C321.495 223.556 321.655 223.884 321.767 224.244C321.879 224.596 321.935 224.96 321.935 225.336C321.935 226.24 321.699 226.932 321.227 227.412C320.755 227.884 320.051 228.12 319.115 228.12ZM319.139 227.196C319.707 227.196 320.135 227.044 320.423 226.74C320.711 226.428 320.855 225.964 320.855 225.348C320.855 224.86 320.787 224.44 320.651 224.088C320.515 223.736 320.319 223.464 320.063 223.272C319.807 223.08 319.495 222.984 319.127 222.984C318.807 222.984 318.515 223.084 318.251 223.284C317.995 223.484 317.791 223.76 317.639 224.112C317.487 224.464 317.411 224.876 317.411 225.348C317.411 225.964 317.555 226.428 317.843 226.74C318.131 227.044 318.563 227.196 319.139 227.196ZM325.066 220.04C324.858 220.04 324.694 219.98 324.574 219.86C324.454 219.732 324.394 219.552 324.394 219.32C324.394 219.088 324.454 218.912 324.574 218.792C324.694 218.664 324.858 218.6 325.066 218.6C325.282 218.6 325.446 218.668 325.558 218.804C325.678 218.932 325.738 219.104 325.738 219.32C325.738 219.536 325.678 219.712 325.558 219.848C325.446 219.976 325.282 220.04 325.066 220.04ZM323.455 230.88C323.263 230.88 323.063 230.852 322.855 230.796C322.655 230.74 322.447 230.656 322.231 230.544L322.543 229.74C322.735 229.828 322.895 229.884 323.023 229.908C323.151 229.932 323.287 229.944 323.431 229.944C323.791 229.944 324.071 229.796 324.271 229.5C324.479 229.212 324.583 228.828 324.583 228.348V222.18H325.591V228.288C325.591 228.824 325.507 229.284 325.339 229.668C325.179 230.06 324.939 230.36 324.619 230.568C324.307 230.776 323.919 230.88 323.455 230.88ZM330.465 227.064C330.505 227.064 330.525 227.08 330.525 227.112V227.94C330.525 227.98 330.505 228 330.465 228H327.813V218.88H328.881V227.064H330.465ZM333.34 230.4C333.132 230.4 332.968 230.336 332.848 230.208C332.728 230.088 332.668 229.912 332.668 229.68C332.668 229.448 332.728 229.268 332.848 229.14C332.968 229.02 333.132 228.96 333.34 228.96C333.556 228.96 333.72 229.024 333.832 229.152C333.952 229.288 334.012 229.464 334.012 229.68C334.012 229.896 333.952 230.068 333.832 230.196C333.72 230.332 333.556 230.4 333.34 230.4ZM330.35 228C330.31 228 330.29 227.98 330.29 227.94V227.112C330.29 227.08 330.31 227.064 330.35 227.064H335.498C335.346 226.912 335.206 226.656 335.078 226.296C334.958 225.928 334.846 225.452 334.742 224.868C334.662 224.404 334.562 224.036 334.442 223.764C334.322 223.492 334.166 223.296 333.974 223.176C333.782 223.056 333.534 222.996 333.23 222.996C332.958 222.996 332.674 223.036 332.378 223.116C332.09 223.196 331.794 223.316 331.49 223.476L331.07 222.648C331.414 222.424 331.762 222.272 332.114 222.192C332.466 222.104 332.842 222.06 333.242 222.06C333.49 222.06 333.714 222.084 333.914 222.132C334.122 222.172 334.306 222.236 334.466 222.324C334.802 222.5 335.062 222.76 335.246 223.104C335.438 223.44 335.586 223.936 335.69 224.592C335.77 225.064 335.854 225.464 335.942 225.792C336.03 226.12 336.126 226.388 336.23 226.596C336.342 226.804 336.462 226.968 336.59 227.088V228H330.35ZM337.941 230.616L338.505 230.532C338.393 230.46 338.297 230.36 338.217 230.232C338.129 230.104 338.085 229.952 338.085 229.776C338.085 229.44 338.193 229.176 338.409 228.984C338.625 228.792 338.925 228.696 339.309 228.696C339.469 228.696 339.613 228.708 339.741 228.732C339.877 228.764 339.997 228.812 340.101 228.876L339.921 229.416C339.841 229.368 339.749 229.332 339.645 229.308C339.549 229.284 339.441 229.272 339.321 229.272C339.145 229.272 338.997 229.32 338.877 229.416C338.757 229.52 338.697 229.676 338.697 229.884C338.697 230.012 338.729 230.12 338.793 230.208C338.849 230.304 338.937 230.384 339.057 230.448C339.113 230.432 339.225 230.412 339.393 230.388C339.569 230.364 339.745 230.34 339.921 230.316C340.097 230.3 340.209 230.292 340.257 230.292V230.88C340.169 230.88 340.021 230.888 339.813 230.904C339.605 230.928 339.377 230.956 339.129 230.988C338.881 231.02 338.649 231.052 338.433 231.084C338.209 231.116 338.045 231.144 337.941 231.168V230.616ZM338.571 218.88H339.639V228H338.571V218.88ZM345.458 227.064H349.454C349.398 226.688 349.326 226.332 349.238 225.996C349.15 225.66 349.042 225.344 348.914 225.048C348.682 224.496 348.382 224 348.014 223.56C347.646 223.12 347.198 222.72 346.67 222.36L347.054 221.448C347.67 221.768 348.21 222.196 348.674 222.732C349.138 223.26 349.522 223.888 349.826 224.616C350.13 225.336 350.346 226.152 350.474 227.064H351.806C351.846 227.064 351.866 227.08 351.866 227.112V227.94C351.866 227.98 351.846 228 351.806 228H345.458V227.064ZM352.932 230.4C352.748 230.4 352.592 230.344 352.464 230.232C352.328 230.12 352.26 229.936 352.26 229.68C352.26 229.424 352.328 229.24 352.464 229.128C352.592 229.016 352.748 228.96 352.932 228.96C353.14 228.96 353.304 229.02 353.424 229.14C353.544 229.268 353.604 229.448 353.604 229.68C353.604 229.912 353.544 230.088 353.424 230.208C353.304 230.336 353.14 230.4 352.932 230.4ZM355.008 230.4C354.8 230.4 354.636 230.336 354.516 230.208C354.396 230.088 354.336 229.912 354.336 229.68C354.336 229.448 354.396 229.268 354.516 229.14C354.636 229.02 354.8 228.96 355.008 228.96C355.224 228.96 355.388 229.024 355.5 229.152C355.62 229.288 355.68 229.464 355.68 229.68C355.68 229.896 355.62 230.068 355.5 230.196C355.388 230.332 355.224 230.4 355.008 230.4ZM351.69 228C351.65 228 351.63 227.98 351.63 227.94V227.112C351.63 227.08 351.65 227.064 351.69 227.064H353.994V222.18H355.062V228H351.69ZM356.778 227.064H360.774C360.718 226.688 360.646 226.332 360.558 225.996C360.47 225.66 360.362 225.344 360.234 225.048C360.002 224.496 359.702 224 359.334 223.56C358.966 223.12 358.518 222.72 357.99 222.36L358.374 221.448C358.99 221.768 359.53 222.196 359.994 222.732C360.458 223.26 360.842 223.888 361.146 224.616C361.45 225.336 361.666 226.152 361.794 227.064H363.126C363.166 227.064 363.186 227.08 363.186 227.112V227.94C363.186 227.98 363.166 228 363.126 228H356.778V227.064ZM366 230.4C365.792 230.4 365.628 230.336 365.508 230.208C365.388 230.088 365.328 229.912 365.328 229.68C365.328 229.448 365.388 229.268 365.508 229.14C365.628 229.02 365.792 228.96 366 228.96C366.216 228.96 366.38 229.024 366.492 229.152C366.612 229.288 366.672 229.464 366.672 229.68C366.672 229.896 366.612 230.068 366.492 230.196C366.38 230.332 366.216 230.4 366 230.4ZM363.01 228C362.97 228 362.95 227.98 362.95 227.94V227.112C362.95 227.08 362.97 227.064 363.01 227.064H368.158C368.054 226.96 367.954 226.812 367.858 226.62C367.77 226.42 367.686 226.176 367.606 225.888C367.534 225.592 367.466 225.252 367.402 224.868C367.346 224.532 367.274 224.244 367.186 224.004C367.106 223.764 367.006 223.572 366.886 223.428C366.774 223.276 366.634 223.168 366.466 223.104C366.298 223.032 366.106 222.996 365.89 222.996C365.618 222.996 365.334 223.036 365.038 223.116C364.75 223.196 364.454 223.316 364.15 223.476L363.73 222.648C364.074 222.424 364.422 222.272 364.774 222.192C365.126 222.104 365.502 222.06 365.902 222.06C366.15 222.06 366.374 222.084 366.574 222.132C366.782 222.172 366.966 222.236 367.126 222.324C367.342 222.444 367.53 222.6 367.69 222.792C367.85 222.976 367.982 223.216 368.086 223.512C368.19 223.8 368.278 224.16 368.35 224.592C368.414 225.008 368.486 225.38 368.566 225.708C368.654 226.028 368.75 226.304 368.854 226.536C368.966 226.76 369.086 226.936 369.214 227.064H370.018C370.058 227.064 370.078 227.08 370.078 227.112V227.94C370.078 227.98 370.058 228 370.018 228H363.01ZM371.378 221.04C371.194 221.04 371.038 220.984 370.91 220.872C370.774 220.76 370.706 220.576 370.706 220.32C370.706 220.064 370.774 219.88 370.91 219.768C371.038 219.656 371.194 219.6 371.378 219.6C371.586 219.6 371.75 219.664 371.87 219.792C371.99 219.912 372.05 220.088 372.05 220.32C372.05 220.552 371.99 220.732 371.87 220.86C371.75 220.98 371.586 221.04 371.378 221.04ZM373.454 221.04C373.246 221.04 373.082 220.98 372.962 220.86C372.842 220.732 372.782 220.552 372.782 220.32C372.782 220.088 372.842 219.912 372.962 219.792C373.082 219.664 373.246 219.6 373.454 219.6C373.67 219.6 373.834 219.668 373.946 219.804C374.066 219.932 374.126 220.104 374.126 220.32C374.126 220.536 374.066 220.712 373.946 220.848C373.834 220.976 373.67 221.04 373.454 221.04ZM369.901 228C369.861 228 369.841 227.98 369.841 227.94V227.112C369.841 227.08 369.861 227.064 369.901 227.064H372.205V222.18H373.273V228H369.901ZM333.239 236.04C333.055 236.04 332.899 235.984 332.771 235.872C332.635 235.76 332.567 235.576 332.567 235.32C332.567 235.064 332.635 234.88 332.771 234.768C332.899 234.656 333.055 234.6 333.239 234.6C333.447 234.6 333.611 234.664 333.731 234.792C333.851 234.912 333.911 235.088 333.911 235.32C333.911 235.552 333.851 235.732 333.731 235.86C333.611 235.98 333.447 236.04 333.239 236.04ZM335.315 236.04C335.107 236.04 334.943 235.98 334.823 235.86C334.703 235.732 334.643 235.552 334.643 235.32C334.643 235.088 334.703 234.912 334.823 234.792C334.943 234.664 335.107 234.6 335.315 234.6C335.531 234.6 335.695 234.668 335.807 234.804C335.927 234.932 335.987 235.104 335.987 235.32C335.987 235.536 335.927 235.712 335.807 235.848C335.695 235.976 335.531 236.04 335.315 236.04ZM330.888 246.88C330.448 246.88 330.052 246.812 329.7 246.676C329.348 246.548 329.048 246.356 328.8 246.1C328.56 245.844 328.372 245.536 328.236 245.176C328.108 244.824 328.044 244.428 328.044 243.988C328.044 243.476 328.084 242.988 328.164 242.524C328.252 242.052 328.376 241.596 328.536 241.156H329.532C329.396 241.54 329.292 241.964 329.22 242.428C329.156 242.884 329.124 243.38 329.124 243.916C329.124 244.564 329.296 245.064 329.64 245.416C329.984 245.768 330.472 245.944 331.104 245.944H333.528C334.312 245.944 334.876 245.792 335.22 245.488C335.564 245.184 335.736 244.716 335.736 244.084V244H334.632C334.04 244 333.54 243.896 333.132 243.688C332.724 243.48 332.416 243.172 332.208 242.764C332 242.356 331.896 241.856 331.896 241.264C331.896 240.624 332.032 240.076 332.304 239.62C332.576 239.156 332.96 238.8 333.456 238.552C333.952 238.304 334.528 238.18 335.184 238.18H336.756V244.072C336.756 245.008 336.504 245.708 336 246.172C335.496 246.644 334.736 246.88 333.72 246.88H330.888ZM335.736 243.064V239.116H335.22C334.748 239.116 334.34 239.2 333.996 239.368C333.66 239.536 333.404 239.78 333.228 240.1C333.052 240.42 332.964 240.804 332.964 241.252C332.964 241.668 333.024 242.012 333.144 242.284C333.264 242.548 333.444 242.744 333.684 242.872C333.932 243 334.24 243.064 334.608 243.064H335.736ZM344.471 243.064C344.511 243.064 344.531 243.08 344.531 243.112V243.94C344.531 243.98 344.511 244 344.471 244H342.299C342.259 244 342.239 243.98 342.239 243.94V243.112C342.239 243.08 342.259 243.064 342.299 243.064H344.471ZM340.715 246.88C340.307 246.88 339.923 246.828 339.563 246.724C339.203 246.62 338.867 246.468 338.555 246.268L339.035 245.464C339.291 245.6 339.555 245.712 339.827 245.8C340.107 245.896 340.411 245.944 340.739 245.944C341.283 245.944 341.707 245.796 342.011 245.5C342.323 245.212 342.479 244.828 342.479 244.348V244H341.303C340.447 244 339.787 243.768 339.323 243.304C338.859 242.832 338.627 242.152 338.627 241.264C338.627 240.632 338.759 240.088 339.023 239.632C339.295 239.168 339.679 238.812 340.175 238.564C340.671 238.308 341.251 238.18 341.915 238.18H343.487V244.288C343.487 245.104 343.243 245.74 342.755 246.196C342.275 246.652 341.595 246.88 340.715 246.88ZM342.467 243.064V239.116H341.951C341.239 239.116 340.683 239.304 340.283 239.68C339.891 240.056 339.695 240.58 339.695 241.252C339.695 241.876 339.831 242.336 340.103 242.632C340.375 242.92 340.787 243.064 341.339 243.064H342.467ZM352.172 244C351.812 244 351.48 243.94 351.176 243.82C350.872 243.7 350.56 243.48 350.24 243.16C350.064 243.408 349.828 243.612 349.532 243.772C349.244 243.924 348.896 244 348.488 244H344.348C344.308 244 344.288 243.98 344.288 243.94V243.112C344.288 243.08 344.308 243.064 344.348 243.064H346.064V239.116H347.084V243.064H348.38C348.764 243.064 349.064 242.936 349.28 242.68C349.496 242.424 349.604 242.088 349.604 241.672V239.116H350.624V241.732C350.624 241.796 350.624 241.864 350.624 241.936C350.624 242 350.62 242.064 350.612 242.128C350.812 242.472 351.028 242.716 351.26 242.86C351.5 242.996 351.804 243.064 352.172 243.064H352.904V238.18H353.924V243.064H355.532C355.572 243.064 355.592 243.08 355.592 243.112V243.94C355.592 243.98 355.572 244 355.532 244H352.172ZM355.411 244C355.371 244 355.351 243.98 355.351 243.94V243.112C355.351 243.08 355.371 243.064 355.411 243.064H356.995V234.88H358.063V244H355.411ZM360.468 234.88H361.536V244H360.468V234.88Z" fill="#FCFDFD"/>
<path d="M339.078 207.374V208.99H331.927V207.611L335.309 203.985C335.649 203.607 335.917 203.275 336.113 202.987C336.309 202.695 336.45 202.434 336.537 202.205C336.628 201.97 336.673 201.748 336.673 201.537C336.673 201.221 336.62 200.951 336.515 200.726C336.41 200.496 336.254 200.319 336.048 200.194C335.847 200.07 335.598 200.008 335.302 200.008C334.986 200.008 334.713 200.084 334.483 200.237C334.258 200.391 334.086 200.604 333.966 200.876C333.851 201.149 333.794 201.458 333.794 201.803H331.719C331.719 201.18 331.867 200.611 332.164 200.094C332.461 199.572 332.88 199.158 333.42 198.852C333.961 198.54 334.603 198.385 335.345 198.385C336.077 198.385 336.695 198.505 337.197 198.744C337.705 198.978 338.087 199.318 338.346 199.763C338.609 200.204 338.741 200.73 338.741 201.343C338.741 201.688 338.686 202.025 338.576 202.355C338.466 202.681 338.308 203.006 338.102 203.332C337.901 203.653 337.657 203.978 337.369 204.308C337.082 204.639 336.764 204.981 336.415 205.335L334.598 207.374H339.078ZM342.317 204.229L340.665 203.835L341.261 198.536H347.134V200.209H342.963L342.704 202.528C342.843 202.446 343.054 202.36 343.336 202.269C343.619 202.174 343.934 202.126 344.284 202.126C344.791 202.126 345.241 202.205 345.634 202.363C346.026 202.521 346.359 202.75 346.632 203.052C346.909 203.353 347.12 203.722 347.264 204.158C347.407 204.593 347.479 205.086 347.479 205.637C347.479 206.101 347.407 206.544 347.264 206.965C347.12 207.382 346.902 207.755 346.61 208.085C346.318 208.411 345.952 208.667 345.512 208.853C345.071 209.04 344.55 209.133 343.946 209.133C343.496 209.133 343.061 209.066 342.64 208.932C342.223 208.798 341.847 208.6 341.512 208.336C341.182 208.073 340.916 207.755 340.715 207.382C340.519 207.003 340.416 206.573 340.407 206.089H342.46C342.489 206.386 342.565 206.642 342.69 206.857C342.819 207.068 342.989 207.231 343.2 207.346C343.41 207.46 343.657 207.518 343.939 207.518C344.202 207.518 344.427 207.468 344.614 207.367C344.801 207.267 344.952 207.128 345.066 206.951C345.181 206.769 345.265 206.558 345.318 206.319C345.375 206.075 345.404 205.811 345.404 205.529C345.404 205.247 345.37 204.991 345.303 204.761C345.236 204.531 345.133 204.332 344.995 204.165C344.856 203.997 344.679 203.868 344.463 203.777C344.253 203.686 344.006 203.641 343.724 203.641C343.341 203.641 343.044 203.701 342.833 203.82C342.628 203.94 342.455 204.076 342.317 204.229ZM348.786 201.099V200.546C348.786 200.149 348.872 199.787 349.044 199.462C349.217 199.136 349.47 198.876 349.805 198.679C350.14 198.483 350.552 198.385 351.04 198.385C351.543 198.385 351.962 198.483 352.297 198.679C352.637 198.876 352.89 199.136 353.058 199.462C353.23 199.787 353.316 200.149 353.316 200.546V201.099C353.316 201.487 353.23 201.843 353.058 202.169C352.89 202.494 352.639 202.755 352.304 202.951C351.969 203.148 351.555 203.246 351.062 203.246C350.564 203.246 350.145 203.148 349.805 202.951C349.47 202.755 349.217 202.494 349.044 202.169C348.872 201.843 348.786 201.487 348.786 201.099ZM350.157 200.546V201.099C350.157 201.266 350.188 201.427 350.25 201.58C350.317 201.728 350.418 201.85 350.552 201.946C350.691 202.037 350.858 202.083 351.055 202.083C351.26 202.083 351.428 202.037 351.557 201.946C351.686 201.85 351.782 201.728 351.844 201.58C351.907 201.427 351.938 201.266 351.938 201.099V200.546C351.938 200.369 351.904 200.206 351.837 200.058C351.775 199.905 351.677 199.783 351.543 199.692C351.414 199.596 351.246 199.548 351.04 199.548C350.849 199.548 350.686 199.596 350.552 199.692C350.418 199.783 350.317 199.905 350.25 200.058C350.188 200.206 350.157 200.369 350.157 200.546ZM353.783 206.979V206.427C353.783 206.034 353.869 205.675 354.042 205.35C354.219 205.024 354.475 204.763 354.81 204.567C355.15 204.371 355.566 204.273 356.059 204.273C356.557 204.273 356.973 204.371 357.308 204.567C357.644 204.763 357.897 205.024 358.07 205.35C358.242 205.675 358.328 206.034 358.328 206.427V206.979C358.328 207.372 358.242 207.731 358.07 208.056C357.902 208.382 357.651 208.643 357.316 208.839C356.981 209.035 356.567 209.133 356.074 209.133C355.576 209.133 355.157 209.035 354.817 208.839C354.477 208.643 354.219 208.382 354.042 208.056C353.869 207.731 353.783 207.372 353.783 206.979ZM355.162 206.427V206.979C355.162 207.152 355.2 207.314 355.277 207.468C355.353 207.621 355.458 207.743 355.592 207.834C355.731 207.925 355.892 207.97 356.074 207.97C356.303 207.97 356.483 207.925 356.612 207.834C356.741 207.743 356.83 207.621 356.878 207.468C356.93 207.314 356.957 207.152 356.957 206.979V206.427C356.957 206.254 356.923 206.094 356.856 205.945C356.789 205.792 356.689 205.67 356.555 205.579C356.425 205.484 356.26 205.436 356.059 205.436C355.858 205.436 355.691 205.484 355.557 205.579C355.427 205.67 355.329 205.792 355.262 205.945C355.195 206.094 355.162 206.254 355.162 206.427ZM356.569 200.029L351.464 208.2L350.459 207.669L355.564 199.498L356.569 200.029Z" fill="#39CEF3"/>
<path d="M3.14178 221.695C2.95778 221.695 2.80178 221.639 2.67378 221.527C2.53778 221.415 2.46978 221.231 2.46978 220.975C2.46978 220.719 2.53778 220.535 2.67378 220.423C2.80178 220.311 2.95778 220.255 3.14178 220.255C3.34978 220.255 3.51378 220.319 3.63378 220.447C3.75378 220.567 3.81378 220.743 3.81378 220.975C3.81378 221.207 3.75378 221.387 3.63378 221.515C3.51378 221.635 3.34978 221.695 3.14178 221.695ZM5.21778 221.695C5.00978 221.695 4.84578 221.635 4.72578 221.515C4.60578 221.387 4.54578 221.207 4.54578 220.975C4.54578 220.743 4.60578 220.567 4.72578 220.447C4.84578 220.319 5.00978 220.255 5.21778 220.255C5.43378 220.255 5.59778 220.323 5.70978 220.459C5.82978 220.587 5.88978 220.759 5.88978 220.975C5.88978 221.191 5.82978 221.367 5.70978 221.503C5.59778 221.631 5.43378 221.695 5.21778 221.695ZM4.41022 229.775C3.53022 229.775 2.84622 229.535 2.35822 229.055C1.87022 228.567 1.62622 227.879 1.62622 226.991C1.62622 226.695 1.65422 226.411 1.71022 226.139C1.77422 225.867 1.87022 225.603 1.99822 225.347C2.23822 224.843 2.57422 224.447 3.00622 224.159C3.43822 223.863 3.91822 223.715 4.44622 223.715C4.69422 223.715 4.93422 223.751 5.16622 223.823C5.39822 223.895 5.62222 224.007 5.83822 224.159C6.12622 224.359 6.37422 224.611 6.58222 224.915C6.79022 225.211 6.95022 225.539 7.06222 225.899C7.17422 226.251 7.23022 226.615 7.23022 226.991C7.23022 227.895 6.99422 228.587 6.52222 229.067C6.05022 229.539 5.34622 229.775 4.41022 229.775ZM4.43422 228.851C5.00222 228.851 5.43022 228.699 5.71822 228.395C6.00622 228.083 6.15022 227.619 6.15022 227.003C6.15022 226.515 6.08222 226.095 5.94622 225.743C5.81022 225.391 5.61422 225.119 5.35822 224.927C5.10222 224.735 4.79022 224.639 4.42222 224.639C4.10222 224.639 3.81022 224.739 3.54622 224.939C3.29022 225.139 3.08622 225.415 2.93422 225.767C2.78222 226.119 2.70622 226.531 2.70622 227.003C2.70622 227.619 2.85022 228.083 3.13822 228.395C3.42622 228.699 3.85822 228.851 4.43422 228.851ZM8.78638 228.887C8.96238 228.847 9.14238 228.811 9.32638 228.779C9.51038 228.747 9.68638 228.719 9.85438 228.695C9.63038 228.543 9.44638 228.319 9.30238 228.023C9.15838 227.727 9.08638 227.403 9.08638 227.051C9.08638 226.579 9.19038 226.167 9.39838 225.815C9.60638 225.471 9.89438 225.207 10.2624 225.023C10.6384 224.839 11.0744 224.747 11.5704 224.747C11.8584 224.747 12.1224 224.779 12.3624 224.843C12.6024 224.899 12.8224 224.983 13.0224 225.095L12.7584 225.995C12.5584 225.891 12.3624 225.815 12.1704 225.767C11.9784 225.711 11.7864 225.683 11.5944 225.683C11.1304 225.683 10.7744 225.807 10.5264 226.055C10.2864 226.295 10.1664 226.651 10.1664 227.123C10.1664 227.427 10.2344 227.703 10.3704 227.951C10.5144 228.191 10.6984 228.367 10.9224 228.479L11.1864 228.443C11.5944 228.387 11.9464 228.343 12.2424 228.311C12.5384 228.279 12.7824 228.255 12.9744 228.239C13.1744 228.223 13.3184 228.215 13.4064 228.215V229.187C13.2464 229.187 13.0104 229.203 12.6984 229.235C12.3944 229.259 12.0504 229.295 11.6664 229.343C11.2904 229.383 10.9104 229.431 10.5264 229.487C10.1424 229.535 9.79438 229.583 9.48238 229.631C9.17838 229.679 8.94638 229.723 8.78638 229.763V228.887ZM15.0892 220.535H16.1572V229.655H15.0892V220.535ZM20.2379 229.655V229.943C20.2379 230.479 20.1539 230.939 19.9859 231.323C19.8259 231.715 19.5859 232.015 19.2659 232.223C18.9539 232.431 18.5659 232.535 18.1019 232.535C17.9099 232.535 17.7099 232.507 17.5019 232.451C17.3019 232.395 17.0939 232.311 16.8779 232.199L17.1899 231.395C17.3819 231.483 17.5419 231.539 17.6699 231.563C17.7979 231.587 17.9339 231.599 18.0779 231.599C18.4379 231.599 18.7179 231.451 18.9179 231.155C19.1259 230.867 19.2299 230.483 19.2299 230.003V223.835H20.2379V228.719H21.7259C21.7659 228.719 21.7859 228.735 21.7859 228.767V229.595C21.7859 229.635 21.7659 229.655 21.7259 229.655H20.2379ZM23.1939 232.055C22.9859 232.055 22.8219 231.991 22.7019 231.863C22.5819 231.743 22.5219 231.567 22.5219 231.335C22.5219 231.103 22.5819 230.923 22.7019 230.795C22.8219 230.675 22.9859 230.615 23.1939 230.615C23.4099 230.615 23.5739 230.679 23.6859 230.807C23.8059 230.943 23.8659 231.119 23.8659 231.335C23.8659 231.551 23.8059 231.723 23.6859 231.851C23.5739 231.987 23.4099 232.055 23.1939 232.055ZM21.6104 229.655C21.5704 229.655 21.5504 229.635 21.5504 229.595V228.767C21.5504 228.735 21.5704 228.719 21.6104 228.719H23.1944V223.835H24.2624V229.655H21.6104ZM5.4328 237.695C5.2488 237.695 5.0928 237.639 4.9648 237.527C4.8288 237.415 4.7608 237.231 4.7608 236.975C4.7608 236.719 4.8288 236.535 4.9648 236.423C5.0928 236.311 5.2488 236.255 5.4328 236.255C5.6408 236.255 5.8048 236.319 5.9248 236.447C6.0448 236.567 6.1048 236.743 6.1048 236.975C6.1048 237.207 6.0448 237.387 5.9248 237.515C5.8048 237.635 5.6408 237.695 5.4328 237.695ZM7.5088 237.695C7.3008 237.695 7.1368 237.635 7.0168 237.515C6.8968 237.387 6.8368 237.207 6.8368 236.975C6.8368 236.743 6.8968 236.567 7.0168 236.447C7.1368 236.319 7.3008 236.255 7.5088 236.255C7.7248 236.255 7.8888 236.323 8.0008 236.459C8.1208 236.587 8.1808 236.759 8.1808 236.975C8.1808 237.191 8.1208 237.367 8.0008 237.503C7.8888 237.631 7.7248 237.695 7.5088 237.695ZM6.80118 245.655C6.16118 245.655 5.61318 245.547 5.15718 245.331C4.70118 245.107 4.35318 244.787 4.11318 244.371C3.87318 243.955 3.75318 243.459 3.75318 242.883C3.75318 242.251 3.88518 241.711 4.14918 241.263C4.42118 240.807 4.80118 240.455 5.28918 240.207C5.78518 239.959 6.36918 239.835 7.04118 239.835H7.83318V239.079H8.85318V244.719H10.2212C10.2612 244.719 10.2812 244.735 10.2812 244.767V245.595C10.2812 245.635 10.2612 245.655 10.2212 245.655H6.80118ZM7.83318 244.719V240.771H7.07718C6.35718 240.771 5.80118 240.955 5.40918 241.323C5.01718 241.691 4.82118 242.207 4.82118 242.871C4.82118 243.471 4.98918 243.931 5.32518 244.251C5.66918 244.563 6.15318 244.719 6.77718 244.719H7.83318ZM10.0968 245.655C10.0568 245.655 10.0368 245.635 10.0368 245.595V244.767C10.0368 244.735 10.0568 244.719 10.0968 244.719H11.5848C11.4328 244.327 11.3208 243.963 11.2488 243.627C11.1768 243.283 11.1408 242.963 11.1408 242.667C11.1408 242.315 11.1768 241.979 11.2488 241.659C11.3208 241.339 11.4288 241.039 11.5728 240.759C11.8688 240.511 12.2048 240.315 12.5808 240.171C12.9648 240.027 13.3608 239.955 13.7688 239.955C14.0168 239.955 14.2528 239.983 14.4768 240.039C14.7008 240.087 14.9048 240.167 15.0888 240.279C15.4648 240.503 15.7528 240.819 15.9528 241.227C16.1608 241.635 16.2648 242.095 16.2648 242.607C16.2648 242.927 16.2368 243.223 16.1808 243.495C16.1248 243.759 16.0408 244.007 15.9288 244.239C15.7048 244.695 15.3808 245.047 14.9568 245.295C14.5408 245.535 14.0648 245.655 13.5288 245.655H10.0968ZM12.2208 242.463C12.2208 242.831 12.2528 243.195 12.3168 243.555C12.3808 243.915 12.5008 244.303 12.6768 244.719H13.5288C13.8888 244.719 14.1888 244.639 14.4288 244.479C14.6768 244.311 14.8648 244.071 14.9928 243.759C15.1208 243.439 15.1848 243.051 15.1848 242.595C15.1848 242.091 15.0448 241.679 14.7648 241.359C14.4928 241.039 14.1608 240.879 13.7688 240.879C13.5128 240.879 13.2608 240.927 13.0128 241.023C12.7728 241.111 12.5568 241.227 12.3648 241.371C12.3008 241.539 12.2608 241.711 12.2448 241.887C12.2288 242.063 12.2208 242.255 12.2208 242.463ZM19.1333 237.695C18.9253 237.695 18.7613 237.635 18.6413 237.515C18.5213 237.387 18.4613 237.207 18.4613 236.975C18.4613 236.743 18.5213 236.567 18.6413 236.447C18.7613 236.319 18.9253 236.255 19.1333 236.255C19.3493 236.255 19.5133 236.323 19.6253 236.459C19.7453 236.587 19.8053 236.759 19.8053 236.975C19.8053 237.191 19.7453 237.367 19.6253 237.503C19.5133 237.631 19.3493 237.695 19.1333 237.695ZM17.5874 244.719H21.5834C21.5434 244.415 21.4874 244.127 21.4154 243.855C21.3514 243.583 21.2754 243.323 21.1874 243.075C20.9634 242.435 20.6554 241.863 20.2634 241.359C19.8794 240.855 19.3914 240.407 18.7994 240.015L19.1834 239.103C19.7994 239.423 20.3354 239.847 20.7914 240.375C21.2554 240.903 21.6394 241.531 21.9434 242.259C22.2554 242.987 22.4794 243.815 22.6154 244.743V245.655H17.5874V244.719Z" fill="#FCFDFD"/>
<path d="M8.43258 207.374V208.99H1.28125V207.611L4.66306 203.985C5.00291 203.607 5.27097 203.275 5.46722 202.987C5.66348 202.695 5.80469 202.434 5.89085 202.205C5.98179 201.97 6.02727 201.748 6.02727 201.537C6.02727 201.221 5.97461 200.951 5.86931 200.726C5.764 200.496 5.60843 200.319 5.4026 200.194C5.20156 200.07 4.95265 200.008 4.65588 200.008C4.33995 200.008 4.06711 200.084 3.83735 200.237C3.61238 200.391 3.44006 200.604 3.32039 200.876C3.20551 201.149 3.14807 201.458 3.14807 201.803H1.07303C1.07303 201.18 1.22142 200.611 1.51819 200.094C1.81497 199.572 2.23381 199.158 2.7747 198.852C3.3156 198.54 3.95702 198.385 4.69896 198.385C5.43132 198.385 6.04881 198.505 6.55141 198.744C7.0588 198.978 7.44174 199.318 7.70022 199.764C7.96349 200.204 8.09512 200.73 8.09512 201.343C8.09512 201.688 8.04008 202.025 7.92998 202.356C7.81989 202.681 7.66193 203.006 7.4561 203.332C7.25506 203.653 7.01093 203.978 6.72373 204.308C6.43653 204.639 6.11821 204.981 5.76879 205.335L3.95223 207.374H8.43258ZM16.7614 202.844V204.653C16.7614 205.438 16.6777 206.115 16.5101 206.685C16.3426 207.25 16.1009 207.714 15.785 208.078C15.4738 208.437 15.1029 208.703 14.672 208.875C14.2412 209.047 13.7626 209.133 13.236 209.133C12.8148 209.133 12.4223 209.081 12.0585 208.976C11.6947 208.865 11.3668 208.695 11.0748 208.466C10.7876 208.236 10.5387 207.946 10.3281 207.597C10.1223 207.243 9.96433 206.821 9.85423 206.333C9.74414 205.845 9.68909 205.285 9.68909 204.653V202.844C9.68909 202.059 9.77286 201.386 9.9404 200.826C10.1127 200.261 10.3544 199.799 10.6656 199.44C10.9815 199.081 11.3549 198.818 11.7857 198.651C12.2165 198.478 12.6951 198.392 13.2217 198.392C13.6429 198.392 14.033 198.447 14.392 198.557C14.7558 198.663 15.0837 198.828 15.3757 199.053C15.6677 199.278 15.9166 199.567 16.1224 199.921C16.3282 200.271 16.4862 200.69 16.5963 201.178C16.7064 201.661 16.7614 202.217 16.7614 202.844ZM14.6864 204.926V202.564C14.6864 202.186 14.6649 201.855 14.6218 201.573C14.5835 201.29 14.5237 201.051 14.4423 200.855C14.3609 200.654 14.2604 200.491 14.1407 200.367C14.0211 200.242 13.8846 200.151 13.7315 200.094C13.5783 200.036 13.4084 200.008 13.2217 200.008C12.9871 200.008 12.7789 200.053 12.597 200.144C12.4199 200.235 12.2691 200.381 12.1447 200.582C12.0202 200.778 11.9245 201.042 11.8575 201.372C11.7952 201.697 11.7641 202.095 11.7641 202.564V204.926C11.7641 205.304 11.7833 205.637 11.8216 205.924C11.8646 206.211 11.9269 206.458 12.0083 206.664C12.0944 206.865 12.1949 207.03 12.3098 207.159C12.4295 207.283 12.5659 207.374 12.7191 207.432C12.877 207.489 13.0494 207.518 13.236 207.518C13.4658 207.518 13.6692 207.472 13.8463 207.382C14.0282 207.286 14.1814 207.137 14.3059 206.936C14.4351 206.731 14.5308 206.462 14.5931 206.132C14.6553 205.802 14.6864 205.4 14.6864 204.926ZM18.14 201.099V200.546C18.14 200.149 18.2262 199.787 18.3985 199.462C18.5708 199.136 18.8245 198.876 19.1596 198.679C19.4947 198.483 19.9063 198.385 20.3946 198.385C20.8972 198.385 21.316 198.483 21.6511 198.679C21.9909 198.876 22.2446 199.136 22.4121 199.462C22.5845 199.787 22.6706 200.149 22.6706 200.546V201.099C22.6706 201.487 22.5845 201.843 22.4121 202.169C22.2446 202.494 21.9933 202.755 21.6582 202.951C21.3232 203.148 20.9091 203.246 20.4161 203.246C19.9183 203.246 19.4994 203.148 19.1596 202.951C18.8245 202.755 18.5708 202.494 18.3985 202.169C18.2262 201.843 18.14 201.487 18.14 201.099ZM19.5114 200.546V201.099C19.5114 201.267 19.5425 201.427 19.6047 201.58C19.6718 201.728 19.7723 201.851 19.9063 201.946C20.0451 202.037 20.2127 202.083 20.4089 202.083C20.6147 202.083 20.7823 202.037 20.9115 201.946C21.0408 201.851 21.1365 201.728 21.1987 201.58C21.2609 201.427 21.2921 201.267 21.2921 201.099V200.546C21.2921 200.369 21.2586 200.206 21.1915 200.058C21.1293 199.905 21.0312 199.783 20.8972 199.692C20.7679 199.596 20.6004 199.548 20.3946 199.548C20.2031 199.548 20.0403 199.596 19.9063 199.692C19.7723 199.783 19.6718 199.905 19.6047 200.058C19.5425 200.206 19.5114 200.369 19.5114 200.546ZM23.1373 206.979V206.427C23.1373 206.034 23.2235 205.675 23.3958 205.35C23.5729 205.024 23.829 204.763 24.1641 204.567C24.5039 204.371 24.9204 204.273 25.4134 204.273C25.9112 204.273 26.3277 204.371 26.6627 204.567C26.9978 204.763 27.2515 205.024 27.4238 205.35C27.5961 205.675 27.6823 206.034 27.6823 206.427V206.979C27.6823 207.372 27.5961 207.731 27.4238 208.056C27.2563 208.382 27.005 208.643 26.6699 208.839C26.3348 209.035 25.9208 209.133 25.4278 209.133C24.93 209.133 24.5111 209.035 24.1713 208.839C23.8314 208.643 23.5729 208.382 23.3958 208.056C23.2235 207.731 23.1373 207.372 23.1373 206.979ZM24.5159 206.427V206.979C24.5159 207.152 24.5542 207.315 24.6308 207.468C24.7074 207.621 24.8127 207.743 24.9467 207.834C25.0855 207.925 25.2459 207.97 25.4278 207.97C25.6575 207.97 25.837 207.925 25.9663 207.834C26.0955 207.743 26.1841 207.621 26.2319 207.468C26.2846 207.315 26.3109 207.152 26.3109 206.979V206.427C26.3109 206.254 26.2774 206.094 26.2104 205.946C26.1434 205.792 26.0429 205.67 25.9088 205.579C25.7796 205.484 25.6144 205.436 25.4134 205.436C25.2124 205.436 25.0448 205.484 24.9108 205.579C24.7816 205.67 24.6834 205.792 24.6164 205.946C24.5494 206.094 24.5159 206.254 24.5159 206.427ZM25.9232 200.029L20.8182 208.2L19.813 207.669L24.918 199.498L25.9232 200.029Z" fill="#FFD747"/>
<path d="M3.02264 127.095C2.83864 127.095 2.68264 127.039 2.55464 126.927C2.41864 126.815 2.35064 126.631 2.35064 126.375C2.35064 126.119 2.41864 125.935 2.55464 125.823C2.68264 125.711 2.83864 125.655 3.02264 125.655C3.23064 125.655 3.39464 125.719 3.51464 125.847C3.63464 125.967 3.69464 126.143 3.69464 126.375C3.69464 126.607 3.63464 126.787 3.51464 126.915C3.39464 127.035 3.23064 127.095 3.02264 127.095ZM5.09864 127.095C4.89064 127.095 4.72664 127.035 4.60664 126.915C4.48664 126.787 4.42664 126.607 4.42664 126.375C4.42664 126.143 4.48664 125.967 4.60664 125.847C4.72664 125.719 4.89064 125.655 5.09864 125.655C5.31464 125.655 5.47864 125.723 5.59064 125.859C5.71064 125.987 5.77064 126.159 5.77064 126.375C5.77064 126.591 5.71064 126.767 5.59064 126.903C5.47864 127.031 5.31464 127.095 5.09864 127.095ZM4.39102 135.055C3.75102 135.055 3.20302 134.947 2.74702 134.731C2.29102 134.507 1.94302 134.187 1.70302 133.771C1.46302 133.355 1.34302 132.859 1.34302 132.283C1.34302 131.651 1.47502 131.111 1.73902 130.663C2.01102 130.207 2.39102 129.855 2.87902 129.607C3.37502 129.359 3.95902 129.235 4.63102 129.235H5.42302V128.479H6.44302V134.119H7.81102C7.85102 134.119 7.87102 134.135 7.87102 134.167V134.995C7.87102 135.035 7.85102 135.055 7.81102 135.055H4.39102ZM5.42302 134.119V130.171H4.66702C3.94702 130.171 3.39102 130.355 2.99902 130.723C2.60702 131.091 2.41102 131.607 2.41102 132.271C2.41102 132.871 2.57902 133.331 2.91502 133.651C3.25902 133.963 3.74302 134.119 4.36702 134.119H5.42302ZM8.92889 137.455C8.74489 137.455 8.58889 137.399 8.46089 137.287C8.32489 137.175 8.25689 136.991 8.25689 136.735C8.25689 136.479 8.32489 136.295 8.46089 136.183C8.58889 136.071 8.74489 136.015 8.92889 136.015C9.13689 136.015 9.30089 136.075 9.42089 136.195C9.54089 136.323 9.60089 136.503 9.60089 136.735C9.60089 136.967 9.54089 137.143 9.42089 137.263C9.30089 137.391 9.13689 137.455 8.92889 137.455ZM11.0049 137.455C10.7969 137.455 10.6329 137.391 10.5129 137.263C10.3929 137.143 10.3329 136.967 10.3329 136.735C10.3329 136.503 10.3929 136.323 10.5129 136.195C10.6329 136.075 10.7969 136.015 11.0049 136.015C11.2209 136.015 11.3849 136.079 11.4969 136.207C11.6169 136.343 11.6769 136.519 11.6769 136.735C11.6769 136.951 11.6169 137.123 11.4969 137.251C11.3849 137.387 11.2209 137.455 11.0049 137.455ZM7.68661 135.055C7.64661 135.055 7.62661 135.035 7.62661 134.995V134.167C7.62661 134.135 7.64661 134.119 7.68661 134.119H9.99061V129.235H11.0586V135.055H7.68661ZM18.9309 134.119C18.9709 134.119 18.9909 134.135 18.9909 134.167V134.995C18.9909 135.035 18.9709 135.055 18.9309 135.055H16.7589C16.7189 135.055 16.6989 135.035 16.6989 134.995V134.167C16.6989 134.135 16.7189 134.119 16.7589 134.119H18.9309ZM15.1749 137.935C14.7669 137.935 14.3829 137.883 14.0229 137.779C13.6629 137.675 13.3269 137.523 13.0149 137.323L13.4949 136.519C13.7509 136.655 14.0149 136.767 14.2869 136.855C14.5669 136.951 14.8709 136.999 15.1989 136.999C15.7429 136.999 16.1669 136.851 16.4709 136.555C16.7829 136.267 16.9389 135.883 16.9389 135.403V135.055H15.7629C14.9069 135.055 14.2469 134.823 13.7829 134.359C13.3189 133.887 13.0869 133.207 13.0869 132.319C13.0869 131.687 13.2189 131.143 13.4829 130.687C13.7549 130.223 14.1389 129.867 14.6349 129.619C15.1309 129.363 15.7109 129.235 16.3749 129.235H17.9469V135.343C17.9469 136.159 17.7029 136.795 17.2149 137.251C16.7349 137.707 16.0549 137.935 15.1749 137.935ZM16.9269 134.119V130.171H16.4109C15.6989 130.171 15.1429 130.359 14.7429 130.735C14.3509 131.111 14.1549 131.635 14.1549 132.307C14.1549 132.931 14.2909 133.391 14.5629 133.687C14.8349 133.975 15.2469 134.119 15.7989 134.119H16.9269ZM20.6841 127.095C20.4761 127.095 20.3121 127.035 20.1921 126.915C20.0721 126.787 20.0121 126.607 20.0121 126.375C20.0121 126.143 20.0721 125.967 20.1921 125.847C20.3121 125.719 20.4761 125.655 20.6841 125.655C20.9001 125.655 21.0641 125.723 21.1761 125.859C21.2961 125.987 21.3561 126.159 21.3561 126.375C21.3561 126.591 21.2961 126.767 21.1761 126.903C21.0641 127.031 20.9001 127.095 20.6841 127.095ZM18.8077 135.055C18.7677 135.055 18.7477 135.035 18.7477 134.995V134.167C18.7477 134.135 18.7677 134.119 18.8077 134.119H20.3917V129.235H21.4597V134.119H23.0197C23.0597 134.119 23.0797 134.135 23.0797 134.167V134.995C23.0797 135.035 23.0597 135.055 23.0197 135.055H18.8077ZM30.7216 135.055C30.3616 135.055 30.0296 134.995 29.7256 134.875C29.4216 134.755 29.1096 134.535 28.7896 134.215C28.6136 134.463 28.3776 134.667 28.0816 134.827C27.7936 134.979 27.4456 135.055 27.0376 135.055H22.8976C22.8576 135.055 22.8376 135.035 22.8376 134.995V134.167C22.8376 134.135 22.8576 134.119 22.8976 134.119H24.6136V130.171H25.6336V134.119H26.9296C27.3136 134.119 27.6136 133.991 27.8296 133.735C28.0456 133.479 28.1536 133.143 28.1536 132.727V130.171H29.1736V132.787C29.1736 132.851 29.1736 132.919 29.1736 132.991C29.1736 133.055 29.1696 133.119 29.1616 133.183C29.3616 133.527 29.5776 133.771 29.8096 133.915C30.0496 134.051 30.3536 134.119 30.7216 134.119H31.4536V129.235H32.4736V135.055H30.7216Z" fill="#FCFDFD"/>
<path d="M6.32165 103.914V114.389H4.25379V106.297L1.7695 107.087V105.457L6.09907 103.914H6.32165ZM11.6708 109.629L10.0194 109.234L10.6153 103.935H16.4886V105.608H12.317L12.0585 107.927C12.1973 107.846 12.4079 107.76 12.6904 107.669C12.9728 107.573 13.2887 107.525 13.6381 107.525C14.1455 107.525 14.5955 107.604 14.988 107.762C15.3805 107.92 15.7132 108.15 15.986 108.451C16.2636 108.753 16.4742 109.122 16.6178 109.557C16.7614 109.993 16.8332 110.486 16.8332 111.036C16.8332 111.501 16.7614 111.943 16.6178 112.365C16.4742 112.781 16.2564 113.154 15.9645 113.485C15.6725 113.81 15.3063 114.066 14.8659 114.253C14.4255 114.44 13.9038 114.533 13.3007 114.533C12.8507 114.533 12.4151 114.466 11.9939 114.332C11.5774 114.198 11.2017 113.999 10.8666 113.736C10.5363 113.473 10.2707 113.154 10.0696 112.781C9.87338 112.403 9.77047 111.972 9.76089 111.489H11.8144C11.8431 111.785 11.9197 112.041 12.0442 112.257C12.1734 112.467 12.3433 112.63 12.5539 112.745C12.7645 112.86 13.0111 112.917 13.2935 112.917C13.5567 112.917 13.7817 112.867 13.9684 112.767C14.1551 112.666 14.3059 112.527 14.4207 112.35C14.5356 112.168 14.6194 111.958 14.672 111.718C14.7295 111.474 14.7582 111.211 14.7582 110.929C14.7582 110.646 14.7247 110.39 14.6577 110.16C14.5907 109.931 14.4878 109.732 14.3489 109.564C14.2101 109.397 14.033 109.268 13.8176 109.177C13.607 109.086 13.3605 109.04 13.0781 109.04C12.6951 109.04 12.3984 109.1 12.1878 109.22C11.9819 109.339 11.8096 109.476 11.6708 109.629ZM18.14 106.498V105.946C18.14 105.548 18.2262 105.187 18.3985 104.861C18.5708 104.536 18.8245 104.275 19.1596 104.079C19.4947 103.883 19.9063 103.784 20.3946 103.784C20.8972 103.784 21.316 103.883 21.6511 104.079C21.9909 104.275 22.2446 104.536 22.4121 104.861C22.5845 105.187 22.6706 105.548 22.6706 105.946V106.498C22.6706 106.886 22.5845 107.243 22.4121 107.568C22.2446 107.894 21.9933 108.155 21.6582 108.351C21.3232 108.547 20.9091 108.645 20.4161 108.645C19.9183 108.645 19.4994 108.547 19.1596 108.351C18.8245 108.155 18.5708 107.894 18.3985 107.568C18.2262 107.243 18.14 106.886 18.14 106.498ZM19.5114 105.946V106.498C19.5114 106.666 19.5425 106.826 19.6047 106.98C19.6718 107.128 19.7723 107.25 19.9063 107.346C20.0451 107.437 20.2127 107.482 20.4089 107.482C20.6147 107.482 20.7823 107.437 20.9115 107.346C21.0408 107.25 21.1365 107.128 21.1987 106.98C21.2609 106.826 21.2921 106.666 21.2921 106.498V105.946C21.2921 105.768 21.2586 105.606 21.1915 105.457C21.1293 105.304 21.0312 105.182 20.8972 105.091C20.7679 104.995 20.6004 104.948 20.3946 104.948C20.2031 104.948 20.0403 104.995 19.9063 105.091C19.7723 105.182 19.6718 105.304 19.6047 105.457C19.5425 105.606 19.5114 105.768 19.5114 105.946ZM23.1373 112.379V111.826C23.1373 111.434 23.2235 111.075 23.3958 110.749C23.5729 110.424 23.829 110.163 24.1641 109.966C24.5039 109.77 24.9204 109.672 25.4134 109.672C25.9112 109.672 26.3277 109.77 26.6627 109.966C26.9978 110.163 27.2515 110.424 27.4238 110.749C27.5961 111.075 27.6823 111.434 27.6823 111.826V112.379C27.6823 112.771 27.5961 113.13 27.4238 113.456C27.2563 113.781 27.005 114.042 26.6699 114.239C26.3348 114.435 25.9208 114.533 25.4278 114.533C24.93 114.533 24.5111 114.435 24.1713 114.239C23.8314 114.042 23.5729 113.781 23.3958 113.456C23.2235 113.13 23.1373 112.771 23.1373 112.379ZM24.5159 111.826V112.379C24.5159 112.551 24.5542 112.714 24.6308 112.867C24.7074 113.02 24.8127 113.142 24.9467 113.233C25.0855 113.324 25.2459 113.37 25.4278 113.37C25.6575 113.37 25.837 113.324 25.9663 113.233C26.0955 113.142 26.1841 113.02 26.2319 112.867C26.2846 112.714 26.3109 112.551 26.3109 112.379V111.826C26.3109 111.654 26.2774 111.493 26.2104 111.345C26.1434 111.192 26.0429 111.07 25.9088 110.979C25.7796 110.883 25.6144 110.835 25.4134 110.835C25.2124 110.835 25.0448 110.883 24.9108 110.979C24.7816 111.07 24.6834 111.192 24.6164 111.345C24.5494 111.493 24.5159 111.654 24.5159 111.826ZM25.9232 105.429L20.8182 113.6L19.813 113.068L24.918 104.897L25.9232 105.429Z" fill="#9747FF"/>
<path d="M13.5445 58.0999C13.5445 59.0519 13.3005 59.7679 12.8125 60.2479C12.3245 60.7359 11.5725 60.9799 10.5565 60.9799H9.69252C9.42052 60.9799 9.16452 60.9439 8.92452 60.8719C8.69252 60.7999 8.48452 60.6879 8.30052 60.5359C7.98052 60.2799 7.72852 59.9279 7.54452 59.4799C7.36852 59.0399 7.28052 58.5159 7.28052 57.9079C7.28052 57.5719 7.29652 57.2359 7.32852 56.8999C7.36852 56.5639 7.42452 56.2399 7.49652 55.9279C7.57652 55.6159 7.66852 55.3319 7.77252 55.0759H8.76852C8.63252 55.4199 8.52852 55.8279 8.45652 56.2999C8.39252 56.7719 8.36052 57.3079 8.36052 57.9079C8.36052 58.5879 8.49652 59.1119 8.76852 59.4799C9.04052 59.8559 9.42452 60.0439 9.92052 60.0439H10.5085C10.9725 60.0439 11.3525 59.9719 11.6485 59.8279C11.9445 59.6919 12.1645 59.4799 12.3085 59.1919C12.4525 58.9039 12.5245 58.5399 12.5245 58.0999V48.9799H13.5445V57.1639H14.8645C14.9045 57.1639 14.9245 57.1799 14.9245 57.2119V58.0399C14.9245 58.0799 14.9045 58.0999 14.8645 58.0999H13.5445ZM17.4797 50.1399C17.2957 50.1399 17.1397 50.0839 17.0117 49.9719C16.8757 49.8599 16.8077 49.6759 16.8077 49.4199C16.8077 49.1639 16.8757 48.9799 17.0117 48.8679C17.1397 48.7559 17.2957 48.6999 17.4797 48.6999C17.6877 48.6999 17.8517 48.7639 17.9717 48.8919C18.0917 49.0119 18.1517 49.1879 18.1517 49.4199C18.1517 49.6519 18.0917 49.8319 17.9717 49.9599C17.8517 50.0799 17.6877 50.1399 17.4797 50.1399ZM19.5557 50.1399C19.3477 50.1399 19.1837 50.0799 19.0637 49.9599C18.9437 49.8319 18.8837 49.6519 18.8837 49.4199C18.8837 49.1879 18.9437 49.0119 19.0637 48.8919C19.1837 48.7639 19.3477 48.6999 19.5557 48.6999C19.7717 48.6999 19.9357 48.7679 20.0477 48.9039C20.1677 49.0319 20.2277 49.2039 20.2277 49.4199C20.2277 49.6359 20.1677 49.8119 20.0477 49.9479C19.9357 50.0759 19.7717 50.1399 19.5557 50.1399ZM22.0811 57.1639C22.1211 57.1639 22.1411 57.1839 22.1411 57.2239V58.0519C22.1411 58.0839 22.1211 58.0999 22.0811 58.0999H14.7491C14.7091 58.0999 14.6891 58.0799 14.6891 58.0399V57.2119C14.6891 57.1799 14.7091 57.1639 14.7491 57.1639H16.5731C16.4451 57.0039 16.3331 56.8239 16.2371 56.6239C16.1411 56.4239 16.0691 56.2159 16.0211 55.9999C15.9731 55.7759 15.9491 55.5599 15.9491 55.3519C15.9491 54.7119 16.0811 54.1639 16.3451 53.7079C16.6171 53.2519 16.9971 52.8999 17.4851 52.6519C17.9811 52.4039 18.5651 52.2799 19.2371 52.2799H20.8091V57.1639H22.0811ZM19.7891 57.1639V53.2159H19.2731C18.8011 53.2159 18.3931 53.2999 18.0491 53.4679C17.7131 53.6359 17.4571 53.8799 17.2811 54.1999C17.1051 54.5199 17.0171 54.9039 17.0171 55.3519C17.0171 55.7519 17.0771 56.0879 17.1971 56.3599C17.3251 56.6319 17.5091 56.8359 17.7491 56.9719C17.9971 57.0999 18.3011 57.1639 18.6611 57.1639H19.7891ZM23.8326 51.1399C23.6246 51.1399 23.4606 51.0799 23.3406 50.9599C23.2206 50.8319 23.1606 50.6519 23.1606 50.4199C23.1606 50.1879 23.2206 50.0119 23.3406 49.8919C23.4606 49.7639 23.6246 49.6999 23.8326 49.6999C24.0486 49.6999 24.2126 49.7679 24.3246 49.9039C24.4446 50.0319 24.5046 50.2039 24.5046 50.4199C24.5046 50.6359 24.4446 50.8119 24.3246 50.9479C24.2126 51.0759 24.0486 51.1399 23.8326 51.1399ZM21.9561 58.0999C21.9161 58.0999 21.8961 58.0799 21.8961 58.0399V57.2119C21.8961 57.1799 21.9161 57.1639 21.9561 57.1639H23.5401V52.2799H24.6081V58.0999H21.9561ZM3.341 66.1399C3.157 66.1399 3.001 66.0839 2.873 65.9719C2.737 65.8599 2.669 65.6759 2.669 65.4199C2.669 65.1639 2.737 64.9799 2.873 64.8679C3.001 64.7559 3.157 64.6999 3.341 64.6999C3.549 64.6999 3.713 64.7639 3.833 64.8919C3.953 65.0119 4.013 65.1879 4.013 65.4199C4.013 65.6519 3.953 65.8319 3.833 65.9599C3.713 66.0799 3.549 66.1399 3.341 66.1399ZM5.417 66.1399C5.209 66.1399 5.045 66.0799 4.925 65.9599C4.805 65.8319 4.745 65.6519 4.745 65.4199C4.745 65.1879 4.805 65.0119 4.925 64.8919C5.045 64.7639 5.209 64.6999 5.417 64.6999C5.633 64.6999 5.797 64.7679 5.909 64.9039C6.029 65.0319 6.089 65.2039 6.089 65.4199C6.089 65.6359 6.029 65.8119 5.909 65.9479C5.797 66.0759 5.633 66.1399 5.417 66.1399ZM4.70938 74.0999C4.06938 74.0999 3.52138 73.9919 3.06538 73.7759C2.60938 73.5519 2.26138 73.2319 2.02138 72.8159C1.78138 72.3999 1.66138 71.9039 1.66138 71.3279C1.66138 70.6959 1.79338 70.1559 2.05738 69.7079C2.32938 69.2519 2.70938 68.8999 3.19738 68.6519C3.69338 68.4039 4.27738 68.2799 4.94938 68.2799H5.74138V67.5239H6.76138V73.1639H8.12938C8.16938 73.1639 8.18938 73.1799 8.18938 73.2119V74.0399C8.18938 74.0799 8.16938 74.0999 8.12938 74.0999H4.70938ZM5.74138 73.1639V69.2159H4.98538C4.26538 69.2159 3.70938 69.3999 3.31738 69.7679C2.92538 70.1359 2.72938 70.6519 2.72938 71.3159C2.72938 71.9159 2.89738 72.3759 3.23338 72.6959C3.57738 73.0079 4.06138 73.1639 4.68538 73.1639H5.74138ZM9.341 76.4999C9.157 76.4999 9.001 76.4439 8.873 76.3319C8.737 76.2199 8.669 76.0359 8.669 75.7799C8.669 75.5239 8.737 75.3399 8.873 75.2279C9.001 75.1159 9.157 75.0599 9.341 75.0599C9.549 75.0599 9.713 75.1199 9.833 75.2399C9.953 75.3679 10.013 75.5479 10.013 75.7799C10.013 76.0119 9.953 76.1879 9.833 76.3079C9.713 76.4359 9.549 76.4999 9.341 76.4999ZM11.417 76.4999C11.209 76.4999 11.045 76.4359 10.925 76.3079C10.805 76.1879 10.745 76.0119 10.745 75.7799C10.745 75.5479 10.805 75.3679 10.925 75.2399C11.045 75.1199 11.209 75.0599 11.417 75.0599C11.633 75.0599 11.797 75.1239 11.909 75.2519C12.029 75.3879 12.089 75.5639 12.089 75.7799C12.089 75.9959 12.029 76.1679 11.909 76.2959C11.797 76.4319 11.633 76.4999 11.417 76.4999ZM8.00497 74.0999C7.96497 74.0999 7.94497 74.0799 7.94497 74.0399V73.2119C7.94497 73.1799 7.96497 73.1639 8.00497 73.1639H9.94897V68.2799H11.017V73.1639H12.817C12.857 73.1639 12.877 73.1799 12.877 73.2119V74.0399C12.877 74.0799 12.857 74.0999 12.817 74.0999H8.00497ZM12.6925 74.0999C12.6525 74.0999 12.6325 74.0799 12.6325 74.0399V73.2119C12.6325 73.1799 12.6525 73.1639 12.6925 73.1639H17.7445V70.9559C17.7445 70.3559 17.5645 69.9159 17.2045 69.6359C16.8445 69.3559 16.2885 69.2159 15.5365 69.2159H13.4965V68.2319C13.6245 67.9599 13.7765 67.6919 13.9525 67.4279C14.1365 67.1639 14.3405 66.8999 14.5645 66.6359C15.0205 66.1159 15.5285 65.6519 16.0885 65.2439C16.6485 64.8359 17.1925 64.5319 17.7205 64.3319L18.1045 65.2439C17.7365 65.3879 17.3645 65.5759 16.9885 65.8079C16.6205 66.0319 16.2725 66.2839 15.9445 66.5639C15.6165 66.8359 15.3245 67.1199 15.0685 67.4159C14.8205 67.7119 14.6285 67.9999 14.4925 68.2799H15.5365C16.5845 68.2799 17.3845 68.4959 17.9365 68.9279C18.4885 69.3599 18.7645 69.9759 18.7645 70.7759V73.1639H20.3245C20.3645 73.1639 20.3845 73.1799 20.3845 73.2119V74.0399C20.3845 74.0799 20.3645 74.0999 20.3245 74.0999H12.6925ZM20.2042 74.0999C20.1642 74.0999 20.1442 74.0799 20.1442 74.0399V73.2119C20.1442 73.1799 20.1642 73.1639 20.2042 73.1639H21.7882V64.9799H22.8562V73.1639H24.4162C24.4562 73.1639 24.4762 73.1799 24.4762 73.2119V74.0399C24.4762 74.0799 24.4562 74.0999 24.4162 74.0999H20.2042ZM24.294 74.0999C24.254 74.0999 24.234 74.0799 24.234 74.0399V73.2119C24.234 73.1799 24.254 73.1639 24.294 73.1639H25.782C25.63 72.7719 25.518 72.4079 25.446 72.0719C25.374 71.7279 25.338 71.4079 25.338 71.1119C25.338 70.7599 25.374 70.4239 25.446 70.1039C25.518 69.7839 25.626 69.4839 25.77 69.2039C26.066 68.9559 26.402 68.7599 26.778 68.6159C27.162 68.4719 27.558 68.3999 27.966 68.3999C28.214 68.3999 28.45 68.4279 28.674 68.4839C28.898 68.5319 29.102 68.6119 29.286 68.7239C29.662 68.9479 29.95 69.2639 30.15 69.6719C30.358 70.0799 30.462 70.5399 30.462 71.0519C30.462 71.3719 30.434 71.6679 30.378 71.9399C30.322 72.2039 30.238 72.4519 30.126 72.6839C29.902 73.1399 29.578 73.4919 29.154 73.7399C28.738 73.9799 28.262 74.0999 27.726 74.0999H24.294ZM26.418 70.9079C26.418 71.2759 26.45 71.6399 26.514 71.9999C26.578 72.3599 26.698 72.7479 26.874 73.1639H27.726C28.086 73.1639 28.386 73.0839 28.626 72.9239C28.874 72.7559 29.062 72.5159 29.19 72.2039C29.318 71.8839 29.382 71.4959 29.382 71.0399C29.382 70.5359 29.242 70.1239 28.962 69.8039C28.69 69.4839 28.358 69.3239 27.966 69.3239C27.71 69.3239 27.458 69.3719 27.21 69.4679C26.97 69.5559 26.754 69.6719 26.562 69.8159C26.498 69.9839 26.458 70.1559 26.442 70.3319C26.426 70.5079 26.418 70.6999 26.418 70.9079Z" fill="#FCFDFD"/>
<path d="M6.32165 26.9588V37.4345H4.25379V29.3425L1.7695 30.1324V28.5025L6.09907 26.9588H6.32165ZM16.7614 31.2883V33.0977C16.7614 33.8827 16.6777 34.56 16.5101 35.1297C16.3426 35.6945 16.1009 36.1588 15.785 36.5226C15.4738 36.8816 15.1029 37.1473 14.672 37.3196C14.2412 37.4919 13.7626 37.5781 13.236 37.5781C12.8148 37.5781 12.4223 37.5254 12.0585 37.4201C11.6947 37.31 11.3668 37.1401 11.0748 36.9103C10.7876 36.6806 10.5387 36.391 10.3281 36.0415C10.1223 35.6873 9.96433 35.2661 9.85423 34.7778C9.74414 34.2896 9.68909 33.7296 9.68909 33.0977V31.2883C9.68909 30.5033 9.77286 29.8308 9.9404 29.2707C10.1127 28.7059 10.3544 28.244 10.6656 27.885C10.9815 27.526 11.3549 27.2627 11.7857 27.0952C12.2165 26.9229 12.6951 26.8367 13.2217 26.8367C13.6429 26.8367 14.033 26.8918 14.392 27.0018C14.7558 27.1072 15.0837 27.2723 15.3757 27.4973C15.6677 27.7222 15.9166 28.0118 16.1224 28.3661C16.3282 28.7155 16.4862 29.1343 16.5963 29.6226C16.7064 30.106 16.7614 30.6613 16.7614 31.2883ZM14.6864 33.3706V31.0083C14.6864 30.6302 14.6649 30.2999 14.6218 30.0175C14.5835 29.7351 14.5237 29.4957 14.4423 29.2995C14.3609 29.0984 14.2604 28.9357 14.1407 28.8112C14.0211 28.6868 13.8846 28.5958 13.7315 28.5384C13.5783 28.4809 13.4084 28.4522 13.2217 28.4522C12.9871 28.4522 12.7789 28.4977 12.597 28.5886C12.4199 28.6796 12.2691 28.8256 12.1447 29.0266C12.0202 29.2229 11.9245 29.4861 11.8575 29.8164C11.7952 30.1419 11.7641 30.5392 11.7641 31.0083V33.3706C11.7641 33.7487 11.7833 34.0814 11.8216 34.3686C11.8646 34.6558 11.9269 34.9023 12.0083 35.1081C12.0944 35.3092 12.1949 35.4743 12.3098 35.6036C12.4295 35.728 12.5659 35.819 12.7191 35.8764C12.877 35.9338 13.0494 35.9626 13.236 35.9626C13.4658 35.9626 13.6692 35.9171 13.8463 35.8261C14.0282 35.7304 14.1814 35.582 14.3059 35.381C14.4351 35.1751 14.5308 34.9071 14.5931 34.5768C14.6553 34.2465 14.6864 33.8444 14.6864 33.3706ZM18.14 29.5436V28.9907C18.14 28.5934 18.2262 28.232 18.3985 27.9065C18.5708 27.581 18.8245 27.3202 19.1596 27.1239C19.4947 26.9277 19.9063 26.8295 20.3946 26.8295C20.8972 26.8295 21.316 26.9277 21.6511 27.1239C21.9909 27.3202 22.2446 27.581 22.4121 27.9065C22.5845 28.232 22.6706 28.5934 22.6706 28.9907V29.5436C22.6706 29.9313 22.5845 30.2879 22.4121 30.6134C22.2446 30.9389 21.9933 31.1998 21.6582 31.396C21.3232 31.5923 20.9091 31.6904 20.4161 31.6904C19.9183 31.6904 19.4994 31.5923 19.1596 31.396C18.8245 31.1998 18.5708 30.9389 18.3985 30.6134C18.2262 30.2879 18.14 29.9313 18.14 29.5436ZM19.5114 28.9907V29.5436C19.5114 29.7111 19.5425 29.8715 19.6047 30.0246C19.6718 30.173 19.7723 30.2951 19.9063 30.3908C20.0451 30.4818 20.2127 30.5273 20.4089 30.5273C20.6147 30.5273 20.7823 30.4818 20.9115 30.3908C21.0408 30.2951 21.1365 30.173 21.1987 30.0246C21.2609 29.8715 21.2921 29.7111 21.2921 29.5436V28.9907C21.2921 28.8136 21.2586 28.6509 21.1915 28.5025C21.1293 28.3493 21.0312 28.2272 20.8972 28.1363C20.7679 28.0406 20.6004 27.9927 20.3946 27.9927C20.2031 27.9927 20.0403 28.0406 19.9063 28.1363C19.7723 28.2272 19.6718 28.3493 19.6047 28.5025C19.5425 28.6509 19.5114 28.8136 19.5114 28.9907ZM23.1373 35.424V34.8712C23.1373 34.4787 23.2235 34.1197 23.3958 33.7942C23.5729 33.4687 23.829 33.2078 24.1641 33.0116C24.5039 32.8153 24.9204 32.7172 25.4134 32.7172C25.9112 32.7172 26.3277 32.8153 26.6627 33.0116C26.9978 33.2078 27.2515 33.4687 27.4238 33.7942C27.5961 34.1197 27.6823 34.4787 27.6823 34.8712V35.424C27.6823 35.8166 27.5961 36.1756 27.4238 36.5011C27.2563 36.8266 27.005 37.0874 26.6699 37.2837C26.3348 37.4799 25.9208 37.5781 25.4278 37.5781C24.93 37.5781 24.5111 37.4799 24.1713 37.2837C23.8314 37.0874 23.5729 36.8266 23.3958 36.5011C23.2235 36.1756 23.1373 35.8166 23.1373 35.424ZM24.5159 34.8712V35.424C24.5159 35.5964 24.5542 35.7591 24.6308 35.9123C24.7074 36.0655 24.8127 36.1875 24.9467 36.2785C25.0855 36.3694 25.2459 36.4149 25.4278 36.4149C25.6575 36.4149 25.837 36.3694 25.9663 36.2785C26.0955 36.1875 26.1841 36.0655 26.2319 35.9123C26.2846 35.7591 26.3109 35.5964 26.3109 35.424V34.8712C26.3109 34.6989 26.2774 34.5385 26.2104 34.3901C26.1434 34.2369 26.0429 34.1149 25.9088 34.0239C25.7796 33.9282 25.6144 33.8803 25.4134 33.8803C25.2124 33.8803 25.0448 33.9282 24.9108 34.0239C24.7816 34.1149 24.6834 34.2369 24.6164 34.3901C24.5494 34.5385 24.5159 34.6989 24.5159 34.8712ZM25.9232 28.4738L20.8182 36.6447L19.813 36.1133L24.918 27.9424L25.9232 28.4738Z" fill="#9AD960"/>
<g filter="url(#filter0_d_54_36)">
<circle cx="186.088" cy="131.064" r="107.59" fill="white"/>
</g>
<path d="M273.582 131.309C278.996 131.309 283.436 126.908 282.89 121.522C281.709 109.873 278.427 98.5053 273.176 87.9799C266.462 74.523 256.712 62.8106 244.697 53.7669C232.681 44.7231 218.728 38.5954 203.939 35.8674C192.371 33.7336 180.539 33.7253 169.018 35.8143C163.691 36.7803 160.692 42.2648 162.19 47.4675L168.688 70.0327C170.186 75.2354 175.627 78.1421 181.015 77.6085C186.04 77.1109 191.125 77.3193 196.122 78.2411C204.346 79.7579 212.104 83.165 218.785 88.1936C225.466 93.2221 230.887 99.7345 234.62 107.217C236.888 111.764 238.496 116.593 239.408 121.559C240.386 126.884 244.685 131.309 250.099 131.309H273.582Z" fill="url(#paint0_linear_54_36)"/>
<path d="M156.784 49.2168C154.95 44.1226 149.306 41.435 144.423 43.7731C133.688 48.9127 123.989 55.9843 115.812 64.6327C112.092 68.5669 112.925 74.7625 117.214 78.0664L135.817 92.3961C140.106 95.7001 146.212 94.8182 150.236 91.1966C152.987 88.7209 155.986 86.5346 159.185 84.6725C163.864 81.9486 166.571 76.4054 164.737 71.3112L156.784 49.2168Z" fill="url(#paint1_linear_54_36)"/>
<path d="M113.948 82.5995C109.456 79.5769 103.316 80.7485 100.761 85.5222C95.632 95.1091 92.1387 105.511 90.4499 116.299C88.7612 127.087 88.9086 138.059 90.8631 148.754C91.8364 154.08 97.325 157.072 102.526 155.567L125.082 149.038C130.283 147.533 133.182 142.088 132.641 136.7C132.183 132.137 132.307 127.52 133.02 122.963C133.734 118.405 135.026 113.972 136.857 109.767C139.018 104.802 137.922 98.7318 133.43 95.7092L113.948 82.5995Z" fill="#9747FF"/>
<path d="M104.281 160.966C99.1887 162.806 96.5086 168.454 98.853 173.334C105.762 187.715 116.134 200.22 129.101 209.688C142.067 219.156 157.137 225.229 172.939 227.431C178.301 228.178 182.865 223.906 183.067 218.496L183.946 195.03C184.149 189.619 179.889 185.158 174.604 183.981C167.386 182.374 160.54 179.292 154.511 174.889C148.482 170.487 143.462 164.905 139.733 158.518C137.003 153.843 131.456 151.143 126.365 152.984L104.281 160.966Z" fill="#FFD747"/>
<path d="M188.457 218.531C188.589 223.943 193.096 228.275 198.468 227.599C219.335 224.969 238.885 215.613 254.073 200.809C269.261 186.006 279.117 166.703 282.28 145.91C283.095 140.557 278.88 135.94 273.473 135.67L250.02 134.496C244.612 134.225 240.098 138.429 238.855 143.699C236.514 153.62 231.393 162.745 223.998 169.952C216.603 177.16 207.349 182.045 197.372 184.13C192.072 185.238 187.754 189.643 187.885 195.056L188.457 218.531Z" fill="#39CEF3"/>
<path d="M38.3047 37.4433H99.3294L124.818 51.6579" stroke="#CDCDCD" stroke-width="0.980316" stroke-dasharray="0.98 0.98"/>
<path d="M323.824 37.4217H270.002L247.522 51.3695" stroke="#CDCDCD" stroke-width="0.980316" stroke-dasharray="0.98 0.98"/>
<path d="M323.004 213.82H280.27L259.008 200.693" stroke="#CDCDCD" stroke-width="0.980316" stroke-dasharray="0.98 0.98"/>
<path d="M38.3047 213.655H85.605L113.054 202.382" stroke="#CDCDCD" stroke-width="0.980316" stroke-dasharray="0.98 0.98"/>
<path d="M38.3047 115.133H64.2831L86.5853 115.133" stroke="#CDCDCD" stroke-width="0.980316" stroke-dasharray="0.98 0.98"/>
<defs>
<filter id="filter0_d_54_36" x="53.9902" y="0.926568" width="264.195" height="264.195" filterUnits="userSpaceOnUse" color-interpolation-filters="sRGB">
<feFlood flood-opacity="0" result="BackgroundImageFix"/>
<feColorMatrix in="SourceAlpha" type="matrix" values="0 0 0 0 0 0 0 0 0 0 0 0 0 0 0 0 0 0 127 0" result="hardAlpha"/>
<feOffset dy="1.96063"/>
<feGaussianBlur stdDeviation="12.254"/>
<feComposite in2="hardAlpha" operator="out"/>
<feColorMatrix type="matrix" values="0 0 0 0 0 0 0 0 0 0 0 0 0 0 0 0 0 0 0.08 0"/>
<feBlend mode="normal" in2="BackgroundImageFix" result="effect1_dropShadow_54_36"/>
<feBlend mode="normal" in="SourceGraphic" in2="effect1_dropShadow_54_36" result="shape"/>
</filter>
<linearGradient id="paint0_linear_54_36" x1="253.792" y1="34.2772" x2="89.2901" y2="194.797" gradientUnits="userSpaceOnUse">
<stop stop-color="#FF4906"/>
<stop offset="0.515519" stop-color="#FF8B60"/>
<stop offset="1" stop-color="#FFA685"/>
</linearGradient>
<linearGradient id="paint1_linear_54_36" x1="186.334" y1="34.2572" x2="186.334" y2="228.36" gradientUnits="userSpaceOnUse">
<stop stop-color="#A1DC67"/>
<stop offset="1" stop-color="#72CA3D"/>
</linearGradient>
</defs>
</svg>
