<svg width="102" height="100" viewBox="0 0 102 100" fill="none" xmlns="http://www.w3.org/2000/svg">
<g opacity="0.41">
<path d="M1.46123 63.4442C1.27967 61.7574 1.23955 60.0583 1.34126 58.3648C1.82297 50.4143 5.42193 42.7506 11.006 37.1815C12.9976 35.1949 15.2864 33.3884 16.5201 30.8396C18.597 26.5479 18.1843 21.7637 20.8156 17.4955C23.4561 13.2054 27.3704 9.84683 32.0119 7.88879C45.6819 2.22801 65.5658 9.21086 64.6677 26.4221C64.6643 26.4834 64.6619 26.5733 64.66 26.6869C64.6401 27.5211 64.7897 28.3508 65.0997 29.1256C65.4098 29.9003 65.8738 30.6041 66.4638 31.1943C67.0538 31.7845 67.7574 32.2488 68.5321 32.5591C69.3068 32.8694 70.1364 33.0193 70.9706 32.9996C83.8263 32.6296 95.3832 42.1504 98.3884 54.8278C100.321 62.9806 98.2817 72.1366 92.674 78.2742C88.4884 82.8553 82.6997 85.5571 76.8707 87.5118C65.181 91.4326 52.7439 92.7826 40.4608 92.1718C28.9634 91.6005 16.7297 88.8827 8.88283 80.29C4.69662 75.7061 2.12856 69.6793 1.46123 63.4442Z" fill="#275AA7"/>
</g>
<g opacity="0.31">
<path d="M65.986 6.78023C66.0203 5.14893 64.753 3.7993 63.1554 3.76575C61.5578 3.73221 60.2349 5.02744 60.2007 6.65874C60.1664 8.29004 61.4338 9.63966 63.0313 9.67321C64.6289 9.70676 65.9518 8.41153 65.986 6.78023Z" fill="#275AA7"/>
</g>
<g opacity="0.31">
<path d="M14.0812 6.79928C14.1028 7.09226 14.2104 7.37235 14.3905 7.60448C14.5705 7.8366 14.815 8.01045 15.0934 8.10425C15.3718 8.19805 15.6717 8.20763 15.9555 8.13179C16.2394 8.05596 16.4945 7.89808 16.689 7.67792C16.8835 7.45776 17.0087 7.18511 17.049 6.89411C17.0893 6.60311 17.0428 6.30669 16.9154 6.04198C16.788 5.77727 16.5854 5.55602 16.3328 5.40595C16.0803 5.25588 15.789 5.18365 15.4956 5.19831C15.2973 5.20963 15.1032 5.26013 14.9245 5.34691C14.7458 5.43368 14.5861 5.55501 14.4546 5.70388C14.3231 5.85274 14.2224 6.02619 14.1583 6.21421C14.0942 6.40223 14.068 6.60108 14.0812 6.79928Z" fill="#275AA7"/>
</g>
<g opacity="0.31">
<path d="M99.9499 41.2363C99.9642 41.4302 100.035 41.6156 100.155 41.7692C100.274 41.9229 100.436 42.038 100.62 42.1001C100.804 42.1622 101.003 42.1685 101.191 42.1183C101.378 42.0681 101.547 41.9636 101.676 41.8179C101.805 41.6722 101.888 41.4917 101.914 41.2991C101.941 41.1065 101.91 40.9103 101.826 40.7351C101.742 40.5599 101.608 40.4134 101.44 40.314C101.273 40.2147 101.08 40.1668 100.886 40.1765C100.755 40.184 100.626 40.2174 100.508 40.2748C100.39 40.3322 100.284 40.4125 100.197 40.5111C100.11 40.6096 100.043 40.7245 100.001 40.8489C99.9584 40.9734 99.9411 41.1051 99.9499 41.2363Z" fill="#275AA7"/>
</g>
<g opacity="0.31">
<path d="M95.3438 92.0868C95.3975 89.5193 93.4026 87.3953 90.888 87.3427C88.3734 87.2901 86.2913 89.3288 86.2376 91.8962C86.1839 94.4637 88.1788 96.5877 90.6934 96.6403C93.208 96.6929 95.29 94.6543 95.3438 92.0868Z" fill="#275AA7"/>
</g>
<path opacity="0.47" d="M0.772682 17.9116C0.086663 16.7065 -0.101604 15.2811 0.248002 13.9393C0.597609 12.5974 1.45744 11.4452 2.64427 10.728C5.10371 9.27036 9.96155 9.1105 11.3867 11.6203C12.8119 14.13 9.0365 16.549 7.57175 19.0376C5.52927 22.5083 2.19693 20.421 0.772682 17.9116Z" fill="#ECF1F7"/>
<path opacity="0.47" d="M15.7785 96.5743C15.3601 96.8832 14.884 97.1051 14.3783 97.2269C13.8727 97.3486 13.3477 97.3677 12.8345 97.283C12.3213 97.1984 11.8304 97.0116 11.3906 96.7339C10.9508 96.4562 10.5712 96.0931 10.2742 95.6661C9.00125 93.863 8.5174 90.0937 10.2844 88.7934C12.0513 87.4931 14.1407 90.2468 16.109 91.1967C18.8541 92.5209 17.5455 95.2731 15.7785 96.5743Z" fill="#E1E2FE"/>
<path opacity="0.47" d="M85.8052 1.54099C86.2548 1.06353 86.7956 0.681172 87.3957 0.416552C87.9957 0.151932 88.6428 0.0104389 89.2985 0.000453699C89.9543 -0.00953153 90.6053 0.112194 91.2132 0.358421C91.821 0.604647 92.3732 0.970366 92.8371 1.43391C94.8063 3.3868 96.2183 7.95807 94.3037 9.97017C92.3892 11.9823 89.2014 9.03101 86.5523 8.29281C82.8579 7.26374 83.8907 3.55309 85.8052 1.54099Z" fill="#E1E2FE"/>
<path opacity="0.32" d="M5.06049 29.0579C3.73205 32.7913 3.45243 36.8174 4.25203 40.6986C5.37744 45.8737 9.25315 50.4247 8.59257 55.9425C8.19586 59.2561 8.26673 62.2905 8.18665 65.5459C8.02281 72.2277 12.6917 77.7597 18.1686 80.5284C22.6175 82.777 27.6751 83.3704 32.5584 82.9403C36.9526 82.5537 41.28 81.3997 45.457 79.97C49.4824 78.592 53.3897 76.8794 57.7296 77.0076C61.3394 77.1141 64.6864 78.4558 68.1123 79.3876C76.2909 81.612 85.967 81.2957 92.9185 76.4753C100.538 71.1913 103.616 61.1651 100.953 52.4027C99.5252 47.7029 97.6183 43.6296 98.3081 38.6221C98.6474 36.1586 99.1533 33.6516 98.6861 31.2097C98.2565 28.9619 97.024 26.9394 95.5624 25.1786C91.6216 20.4306 86.0121 17.4029 80.1804 15.6218C73.5648 13.6011 66.2202 12.4993 59.3407 13.5456C45.9776 15.5779 43.0696 13.6014 29.1005 11.6182C19.7426 10.2896 10.9587 17.73 6.6943 25.4059C6.04543 26.5739 5.49879 27.7958 5.06049 29.0579Z" fill="#E1E2FE"/>
<g opacity="0.83">
<path opacity="0.81" d="M11.5282 39.8113C13.4529 37.2717 16.4284 35.5465 17.8861 32.6284C19.6313 29.1346 19.2637 25.0116 20.8223 21.4421C23.1256 16.1682 27.2962 11.6884 32.5207 9.22835C35.0381 8.04281 37.801 7.32148 40.4979 7.52828C44.6528 7.84675 48.2368 10.3203 51.0392 13.2743C55.2104 17.6704 58.1595 23.9142 63.1656 27.4364C65.9269 29.3804 69.1743 27.318 72.101 26.6638C75.381 25.9522 78.7865 26.067 82.0112 26.998C87.8346 28.6548 92.8495 32.8275 95.3577 38.3275C98.0353 44.2 97.6546 52.3184 92.6289 57.368C90.3038 59.7035 87.1507 61.2645 85.4251 64.0627C83.2596 67.5739 83.0059 72.3198 82.4011 76.2237C81.7032 80.6104 79.8846 84.7425 77.1214 88.2203L77.0266 88.3387C74.7034 91.2352 71.4962 93.2919 67.8946 94.1949C64.293 95.0979 60.4948 94.7976 57.0798 93.3398L42.3495 86.958C27.4029 80.4823 16.0562 70.0472 10.6087 54.9263C9.42991 51.6541 9.00159 44.6786 10.5035 41.4834C10.7856 40.8917 11.1291 40.3313 11.5282 39.8113Z" fill="#E1E2FE"/>
</g>
<path opacity="0.58" d="M80.3918 93.3127C80.9441 93.3127 81.3918 92.865 81.3918 92.3127C81.3918 91.7605 80.9441 91.3128 80.3918 91.3128C79.8396 91.3128 79.3919 91.7605 79.3919 92.3127C79.3919 92.865 79.8396 93.3127 80.3918 93.3127Z" fill="#275AA7"/>
<path opacity="0.58" d="M55.0892 4.99164C55.3652 4.99164 55.589 4.76787 55.589 4.49183C55.589 4.2158 55.3652 3.99203 55.0892 3.99203C54.8131 3.99203 54.5894 4.2158 54.5894 4.49183C54.5894 4.76787 54.8131 4.99164 55.0892 4.99164Z" fill="#275AA7"/>
<path opacity="0.58" d="M24.2348 95.7134C24.787 95.7134 25.2347 95.2657 25.2347 94.7135C25.2347 94.1612 24.787 93.7135 24.2348 93.7135C23.6825 93.7135 23.2349 94.1612 23.2349 94.7135C23.2349 95.2657 23.6825 95.7134 24.2348 95.7134Z" fill="#275AA7"/>
<path opacity="0.58" d="M84.4645 99.9999C84.894 99.9999 85.2422 99.6517 85.2422 99.2221C85.2422 98.7926 84.894 98.4443 84.4645 98.4443C84.0349 98.4443 83.6867 98.7926 83.6867 99.2221C83.6867 99.6517 84.0349 99.9999 84.4645 99.9999Z" fill="#EF929C"/>
<path opacity="0.58" d="M7.95772 5.53001C8.14174 5.53001 8.29092 5.38083 8.29092 5.19681C8.29092 5.01279 8.14174 4.86361 7.95772 4.86361C7.77369 4.86361 7.62451 5.01279 7.62451 5.19681C7.62451 5.38083 7.77369 5.53001 7.95772 5.53001Z" fill="#275AA7"/>
<path opacity="0.58" d="M99.2706 14.6144C99.5712 14.0234 99.3358 13.3006 98.7448 13C98.1538 12.6994 97.431 12.9348 97.1304 13.5258C96.8298 14.1168 97.0652 14.8396 97.6562 15.1402C98.2472 15.4408 98.97 15.2054 99.2706 14.6144Z" fill="#EF929C"/>
<path opacity="0.58" d="M11.7547 2.09161C11.7352 2.18272 11.6892 2.26604 11.6224 2.331C11.5557 2.39596 11.4711 2.43966 11.3795 2.45657C11.2879 2.47348 11.1933 2.46283 11.1077 2.42598C11.0222 2.38913 10.9495 2.32772 10.8988 2.24954C10.8481 2.17135 10.8218 2.0799 10.8231 1.98674C10.8244 1.89359 10.8534 1.80292 10.9062 1.7262C10.9591 1.64948 11.0335 1.59017 11.1201 1.55576C11.2067 1.52135 11.3015 1.51339 11.3926 1.53289C11.5146 1.55909 11.6213 1.63264 11.6892 1.73738C11.757 1.84213 11.7806 1.96952 11.7547 2.09161Z" fill="#EF929C"/>
<path opacity="0.58" d="M59.4414 0.569145C59.4219 0.660263 59.3759 0.743574 59.3091 0.808539C59.2424 0.873503 59.1578 0.917203 59.0662 0.934109C58.9746 0.951016 58.88 0.940369 58.7944 0.903517C58.7089 0.866665 58.6362 0.805263 58.5855 0.727077C58.5348 0.648892 58.5085 0.557437 58.5098 0.464281C58.5111 0.371126 58.5401 0.280455 58.5929 0.203739C58.6458 0.127023 58.7202 0.0677088 58.8068 0.0332995C58.8934 -0.00110987 58.9882 -0.00906807 59.0793 0.0104313C59.2014 0.0365599 59.3081 0.110086 59.376 0.214851C59.4439 0.319617 59.4674 0.44705 59.4414 0.569145Z" fill="#EF929C"/>
<path opacity="0.58" d="M92.5181 15.3543C92.5013 15.4313 92.4621 15.5016 92.4055 15.5563C92.3488 15.6111 92.2772 15.6478 92.1996 15.6619C92.1221 15.676 92.0421 15.6668 91.9698 15.6355C91.8975 15.6041 91.8361 15.5521 91.7933 15.4859C91.7506 15.4197 91.7284 15.3423 91.7295 15.2635C91.7307 15.1847 91.7552 15.108 91.7999 15.0432C91.8446 14.9783 91.9076 14.9281 91.9808 14.8989C92.054 14.8698 92.1342 14.8629 92.2113 14.8793C92.2627 14.8902 92.3114 14.9112 92.3547 14.941C92.3979 14.9708 92.4349 15.0089 92.4634 15.053C92.4919 15.0972 92.5114 15.1465 92.5208 15.1982C92.5302 15.2499 92.5293 15.3029 92.5181 15.3543Z" fill="#275AA7"/>
<path opacity="0.58" d="M4.18997 84.3222C4.17322 84.3992 4.13403 84.4695 4.07735 84.5243C4.02067 84.579 3.94904 84.6158 3.8715 84.6298C3.79396 84.6439 3.71399 84.6347 3.64168 84.6034C3.56937 84.5721 3.50796 84.52 3.46519 84.4538C3.42243 84.3876 3.40024 84.3103 3.40141 84.2315C3.40258 84.1527 3.42707 84.076 3.47179 84.0111C3.5165 83.9462 3.57944 83.896 3.65265 83.8668C3.72586 83.8377 3.80607 83.8309 3.88316 83.8473C3.93455 83.8582 3.98328 83.8791 4.02654 83.909C4.06981 83.9388 4.10676 83.9768 4.13527 84.021C4.16378 84.0651 4.18329 84.1144 4.19267 84.1661C4.20206 84.2178 4.20114 84.2709 4.18997 84.3222Z" fill="#275AA7"/>
<g opacity="0.66">
<path d="M77.5157 42.4351H75.7813C75.4316 42.4344 75.0964 42.2952 74.8491 42.048C74.6018 41.8007 74.4626 41.4655 74.462 41.1158V39.1647C74.4614 38.9853 74.406 38.8103 74.3031 38.6633C74.2002 38.5162 74.0548 38.4042 73.8864 38.3421C73.6814 38.267 73.4777 38.1823 73.2801 38.0909C73.1163 38.0143 72.9329 37.9897 72.7547 38.0202C72.5764 38.0508 72.4117 38.135 72.2827 38.2618L70.902 39.6424C70.6543 39.89 70.3184 40.0291 69.9682 40.0291C69.618 40.0291 69.2821 39.89 69.0344 39.6424L67.8071 38.4152C67.5598 38.1673 67.4209 37.8315 67.4209 37.4814C67.4209 37.1312 67.5598 36.7954 67.8071 36.5476L69.1878 35.1669C69.3145 35.0379 69.3988 34.8732 69.4293 34.6949C69.4598 34.5166 69.435 34.3333 69.3584 34.1694C69.2663 33.97 69.1817 33.7663 69.1074 33.5629C69.0453 33.3944 68.9332 33.249 68.7861 33.1462C68.6391 33.0433 68.464 32.9878 68.2845 32.9873H66.3338C65.9841 32.9865 65.649 32.8473 65.4017 32.6C65.1544 32.3528 65.0152 32.0176 65.0145 31.668V29.9335C65.0152 29.5838 65.1544 29.2487 65.4017 29.0014C65.649 28.7542 65.9841 28.6149 66.3338 28.6142H68.2845C68.464 28.6137 68.6391 28.5583 68.7862 28.4554C68.9333 28.3525 69.0454 28.2071 69.1074 28.0386C69.182 27.8349 69.2667 27.6308 69.3584 27.4323C69.435 27.2685 69.4597 27.0852 69.4292 26.9069C69.3987 26.7286 69.3145 26.5639 69.1878 26.4349L67.8071 25.0542C67.5599 24.8064 67.421 24.4706 67.421 24.1206C67.421 23.7705 67.5599 23.4347 67.8071 23.1869L69.0344 21.9596C69.2822 21.7123 69.618 21.5733 69.9682 21.5733C70.3183 21.5733 70.6542 21.7123 70.902 21.9596L72.2827 23.3403C72.4117 23.4671 72.5764 23.5514 72.7546 23.5819C72.9329 23.6125 73.1163 23.5878 73.2801 23.5112C73.4793 23.4192 73.6833 23.3345 73.8867 23.2599C74.0552 23.1979 74.2006 23.0858 74.3035 22.9387C74.4064 22.7916 74.4618 22.6166 74.4623 22.4371V20.4863C74.463 20.1366 74.6022 19.8014 74.8494 19.5541C75.0967 19.3068 75.4319 19.1676 75.7816 19.167H77.5157C77.8654 19.1677 78.2006 19.307 78.4478 19.5542C78.6951 19.8015 78.8343 20.1366 78.8351 20.4863V22.4371C78.8356 22.6166 78.891 22.7916 78.9939 22.9387C79.0968 23.0858 79.2422 23.1979 79.4106 23.2599C79.6138 23.3345 79.8178 23.4192 80.0169 23.5109C80.1807 23.5876 80.3641 23.6123 80.5424 23.5818C80.7206 23.5513 80.8853 23.4671 81.0144 23.3403L82.3951 21.9596C82.6429 21.7123 82.9787 21.5733 83.3289 21.5733C83.679 21.5733 84.0148 21.7123 84.2627 21.9596L85.4899 23.1869C85.737 23.4348 85.8758 23.7705 85.8758 24.1206C85.8758 24.4706 85.737 24.8063 85.4899 25.0542L84.1092 26.4349C83.9824 26.5638 83.898 26.7285 83.8675 26.9068C83.8369 27.0851 83.8616 27.2685 83.9383 27.4323C84.0304 27.6312 84.1148 27.8352 84.1893 28.0389C84.2514 28.2073 84.3635 28.3527 84.5106 28.4556C84.6577 28.5585 84.8327 28.6139 85.0122 28.6145H86.9629C87.3126 28.6152 87.6478 28.7545 87.895 29.0017C88.1423 29.249 88.2815 29.5841 88.2823 29.9338V31.6676C88.2815 32.0173 88.1423 32.3525 87.895 32.5997C87.6478 32.847 87.3126 32.9862 86.9629 32.987H85.0122C84.8327 32.9876 84.6577 33.043 84.5106 33.1459C84.3636 33.2488 84.2514 33.3942 84.1893 33.5625C84.1148 33.766 84.0304 33.9697 83.9383 34.1688C83.8616 34.3326 83.8368 34.516 83.8673 34.6943C83.8978 34.8726 83.9821 35.0373 84.1089 35.1663L85.4896 36.547C85.7368 36.7948 85.8757 37.1307 85.8757 37.4808C85.8757 37.8309 85.7368 38.1667 85.4896 38.4146L84.2623 39.6418C84.0147 39.8894 83.6788 40.0285 83.3285 40.0285C82.9783 40.0285 82.6424 39.8894 82.3948 39.6418L81.0141 38.2611C80.885 38.1344 80.7203 38.0502 80.5421 38.0196C80.3638 37.9891 80.1805 38.0137 80.0166 38.0902C79.819 38.1823 79.615 38.2664 79.4103 38.3415C79.2419 38.4036 79.0966 38.5156 78.9937 38.6626C78.8908 38.8097 78.8353 38.9847 78.8347 39.1641V41.1152C78.8342 41.4649 78.6951 41.8001 78.4479 42.0475C78.2006 42.2949 77.8655 42.4343 77.5157 42.4351ZM72.9024 37.5625C73.0969 37.562 73.2891 37.6039 73.4658 37.6852C73.6523 37.7715 73.845 37.8515 74.0389 37.9224C74.2925 38.0161 74.5115 38.185 74.6664 38.4066C74.8213 38.6282 74.9048 38.8919 74.9056 39.1623V41.1133C74.906 41.3455 74.9984 41.5682 75.1626 41.7324C75.3268 41.8966 75.5494 41.989 75.7816 41.9893H77.5157C77.748 41.989 77.9707 41.8967 78.1349 41.7324C78.2991 41.5682 78.3915 41.3456 78.3917 41.1133V39.1623C78.3926 38.8918 78.4761 38.6282 78.6311 38.4066C78.786 38.1849 79.0051 38.016 79.2588 37.9224C79.4524 37.8515 79.6451 37.7715 79.8313 37.6852C80.0778 37.5706 80.3534 37.534 80.6212 37.5805C80.8891 37.6269 81.1363 37.7542 81.3298 37.9451L82.7105 39.3258C82.875 39.4898 83.0978 39.5819 83.3301 39.5819C83.5624 39.5819 83.7852 39.4898 83.9497 39.3258L85.177 38.0985C85.341 37.934 85.4331 37.7112 85.4331 37.4789C85.4331 37.2466 85.341 37.0238 85.177 36.8593L83.7963 35.4786C83.6053 35.2852 83.4781 35.0379 83.4317 34.7701C83.3853 34.5022 83.4219 34.2265 83.5367 33.9801C83.6232 33.7924 83.7033 33.5997 83.7739 33.4079C83.8675 33.1542 84.0364 32.9351 84.258 32.7802C84.4796 32.6252 84.7433 32.5417 85.0137 32.5408H86.9645C87.1968 32.5406 87.4195 32.4482 87.5837 32.284C87.748 32.1198 87.8404 31.8972 87.8408 31.6649V29.9304C87.8404 29.6982 87.748 29.4755 87.5837 29.3113C87.4195 29.1471 87.1968 29.0547 86.9645 29.0545H85.0137C84.7434 29.0536 84.4797 28.9702 84.2581 28.8152C84.0365 28.6603 83.8675 28.4414 83.7739 28.1877C83.7033 27.995 83.6232 27.8024 83.5367 27.6149C83.4219 27.3685 83.3853 27.0928 83.4317 26.825C83.4781 26.5571 83.6053 26.3099 83.7963 26.1164L85.177 24.7357C85.3409 24.5712 85.433 24.3485 85.433 24.1163C85.433 23.884 85.3409 23.6613 85.177 23.4968L83.9497 22.2695C83.7852 22.1055 83.5624 22.0134 83.3301 22.0134C83.0978 22.0134 82.875 22.1055 82.7105 22.2695L81.3298 23.6502C81.1363 23.8411 80.889 23.9683 80.6212 24.0147C80.3534 24.0612 80.0778 24.0247 79.8313 23.9101C79.6432 23.8232 79.4505 23.7432 79.2588 23.6729C79.005 23.5793 78.786 23.4103 78.631 23.1886C78.476 22.967 78.3925 22.7032 78.3917 22.4328V20.482C78.3905 20.2504 78.2977 20.0287 78.1336 19.8653C77.9695 19.7018 77.7474 19.61 77.5157 19.6097H75.7813C75.5491 19.61 75.3264 19.7023 75.1622 19.8666C74.9979 20.0308 74.9056 20.2534 74.9053 20.4857V22.4364C74.9046 22.7069 74.8211 22.9706 74.6662 23.1923C74.5113 23.4139 74.2923 23.5829 74.0386 23.6766C73.8465 23.7469 73.6538 23.8269 73.4654 23.9138C73.219 24.0285 72.9433 24.0651 72.6755 24.0186C72.4076 23.9722 72.1604 23.8449 71.967 23.6539L70.5863 22.2732C70.4218 22.1092 70.199 22.0171 69.9667 22.0171C69.7344 22.0171 69.5115 22.1092 69.347 22.2732L68.1198 23.5005C67.9558 23.665 67.8638 23.8877 67.8638 24.1199C67.8638 24.3522 67.9558 24.5749 68.1198 24.7394L69.5005 26.1201C69.6913 26.3136 69.8184 26.5609 69.8648 26.8287C69.9112 27.0965 69.8746 27.3721 69.76 27.6186C69.6735 27.806 69.5937 27.9987 69.5229 28.1914C69.4293 28.4451 69.2603 28.6641 69.0387 28.819C68.8171 28.974 68.5534 29.0574 68.283 29.0582H66.3323C66.1 29.0584 65.8773 29.1508 65.713 29.315C65.5488 29.4792 65.4563 29.7019 65.456 29.9341V31.6676C65.4563 31.8999 65.5488 32.1226 65.713 32.2868C65.8773 32.451 66.1 32.5434 66.3323 32.5436H68.283C68.5534 32.5444 68.8172 32.6279 69.0388 32.7829C69.2604 32.9378 69.4293 33.1569 69.5229 33.4107C69.5934 33.6024 69.6732 33.7954 69.7603 33.9835C69.8748 34.23 69.9113 34.5055 69.8649 34.7733C69.8184 35.041 69.6913 35.2882 69.5005 35.4817L68.1198 36.8624C67.9557 37.0269 67.8636 37.2497 67.8636 37.482C67.8636 37.7143 67.9557 37.9371 68.1198 38.1016L69.347 39.3289C69.5115 39.4929 69.7344 39.585 69.9667 39.585C70.199 39.585 70.4218 39.4929 70.5863 39.3289L71.967 37.9482C72.09 37.8256 72.236 37.7284 72.3966 37.6622C72.5573 37.5961 72.7293 37.5622 72.9031 37.5625H72.9024ZM76.6487 36.8989C75.4424 36.8989 74.2633 36.5412 73.2603 35.871C72.2573 35.2009 71.4756 34.2483 71.014 33.1339C70.5524 32.0195 70.4316 30.7932 70.667 29.6101C70.9023 28.4271 71.4832 27.3403 72.3361 26.4874C73.189 25.6344 74.2758 25.0536 75.4588 24.8182C76.6419 24.5829 77.8682 24.7037 78.9826 25.1653C80.0971 25.6269 81.0496 26.4086 81.7197 27.4116C82.3899 28.4146 82.7476 29.5937 82.7476 30.8C82.7458 32.4168 82.1028 33.967 80.9595 35.1104C79.8163 36.2537 78.2662 36.8969 76.6493 36.8989H76.6487ZM76.6487 25.1453C75.5303 25.1453 74.437 25.477 73.5071 26.0983C72.5772 26.7196 71.8525 27.6028 71.4245 28.636C70.9965 29.6693 70.8845 30.8062 71.1027 31.9031C71.3209 33 71.8594 34.0076 72.6502 34.7984C73.4411 35.5892 74.4486 36.1278 75.5455 36.346C76.6424 36.5641 77.7794 36.4522 78.8126 36.0242C79.8459 35.5962 80.729 34.8714 81.3503 33.9415C81.9717 33.0116 82.3033 31.9183 82.3033 30.8C82.3016 29.3009 81.7054 27.8637 80.6454 26.8036C79.5855 25.7436 78.1484 25.1472 76.6493 25.1453H76.6487Z" fill="white"/>
<g opacity="0.84">
<path d="M74.2875 74.1384H72.1238C71.8742 74.1383 71.6307 74.0615 71.4262 73.9184C71.2217 73.7754 71.066 73.573 70.9803 73.3386C70.8985 73.1164 70.8082 72.8986 70.7094 72.685C70.6024 72.4576 70.568 72.2028 70.6108 71.9552C70.6535 71.7076 70.7714 71.4791 70.9484 71.3007L72.4785 69.7706C72.7069 69.5422 72.8352 69.2324 72.8352 68.9093C72.8352 68.5863 72.7069 68.2765 72.4785 68.0481L71.1184 66.688C71.0053 66.5749 70.871 66.4851 70.7233 66.4239C70.5755 66.3627 70.4171 66.3312 70.2572 66.3312C70.0972 66.3312 69.9388 66.3627 69.791 66.4239C69.6433 66.4851 69.509 66.5749 69.3959 66.688L67.8658 68.2181C67.6874 68.395 67.459 68.5128 67.2114 68.5555C66.9638 68.5982 66.7091 68.5638 66.4818 68.4568C66.2682 68.358 66.0503 68.2677 65.8279 68.1859C65.5936 68.1001 65.3912 67.9444 65.2481 67.7399C65.1051 67.5354 65.0283 67.2919 65.0281 67.0424V64.8784C65.0281 64.5553 64.8997 64.2455 64.6713 64.0171C64.4429 63.7886 64.1331 63.6603 63.81 63.6603H61.8869C61.5638 63.6603 61.254 63.7886 61.0256 64.0171C60.7971 64.2455 60.6688 64.5553 60.6688 64.8784V67.0424C60.6686 67.2919 60.5918 67.5354 60.4487 67.7399C60.3057 67.9444 60.1033 68.1001 59.8689 68.1859C59.6466 68.2677 59.4286 68.358 59.2151 68.4568C58.9877 68.5638 58.733 68.5983 58.4853 68.5556C58.2377 68.5129 58.0092 68.3951 57.8307 68.2181L56.3006 66.688C56.0722 66.4596 55.7624 66.3313 55.4394 66.3313C55.1164 66.3313 54.8066 66.4596 54.5782 66.688L53.2168 68.0481C52.9884 68.2765 52.8601 68.5863 52.8601 68.9093C52.8601 69.2324 52.9884 69.5422 53.2168 69.7706L54.7469 71.3007C54.9239 71.4791 55.0418 71.7076 55.0845 71.9552C55.1273 72.2028 55.0928 72.4576 54.9859 72.685C54.8869 72.8984 54.7966 73.1162 54.715 73.3386C54.6293 73.573 54.4737 73.7754 54.2692 73.9185C54.0646 74.0615 53.8211 74.1383 53.5715 74.1384H51.4078C51.0848 74.1384 50.775 74.2668 50.5465 74.4952C50.3181 74.7236 50.1898 75.0334 50.1898 75.3565V77.2787C50.1898 77.4387 50.2213 77.5971 50.2825 77.7448C50.3437 77.8926 50.4334 78.0269 50.5465 78.14C50.6596 78.2531 50.7939 78.3428 50.9417 78.404C51.0895 78.4653 51.2479 78.4968 51.4078 78.4968H53.5715C53.8211 78.4969 54.0646 78.5737 54.2692 78.7167C54.4737 78.8598 54.6293 79.0622 54.715 79.2966C54.7968 79.5188 54.8871 79.7366 54.9859 79.9502C55.0929 80.1776 55.1273 80.4324 55.0846 80.68C55.0418 80.9276 54.9239 81.1561 54.7469 81.3345L53.2168 82.8658C52.9884 83.0943 52.8601 83.4041 52.8601 83.7271C52.8601 84.0501 52.9884 84.3599 53.2168 84.5883L54.577 85.9484C54.8054 86.1768 55.1152 86.3051 55.4382 86.3051C55.7612 86.3051 56.071 86.1768 56.2994 85.9484L57.8295 84.4183C58.0081 84.2416 58.2366 84.1239 58.4841 84.0812C58.7317 84.0384 58.9864 84.0727 59.2139 84.1793C59.4272 84.2781 59.6452 84.3684 59.8677 84.4503C60.1021 84.536 60.3045 84.6917 60.4475 84.8962C60.5906 85.1007 60.6674 85.3442 60.6676 85.5938V87.7577C60.6676 87.9177 60.6991 88.0761 60.7603 88.2239C60.8215 88.3717 60.9112 88.5059 61.0243 88.619C61.1374 88.7321 61.2717 88.8219 61.4195 88.8831C61.5673 88.9443 61.7257 88.9758 61.8856 88.9758H63.8088C64.1318 88.9758 64.4416 88.8475 64.6701 88.619C64.8985 88.3906 65.0268 88.0808 65.0268 87.7577V85.5934C65.027 85.3439 65.1038 85.1004 65.2469 84.8959C65.3899 84.6914 65.5923 84.5357 65.8267 84.4499C66.049 84.3681 66.267 84.2778 66.4805 84.179C66.7079 84.0722 66.9626 84.0378 67.2102 84.0806C67.4578 84.1233 67.6862 84.2411 67.8646 84.418L69.3947 85.9481C69.5078 86.0613 69.642 86.151 69.7898 86.2122C69.9376 86.2734 70.096 86.305 70.2559 86.305C70.4159 86.305 70.5743 86.2734 70.722 86.2122C70.8698 86.151 71.0041 86.0613 71.1172 85.9481L72.4773 84.588C72.7057 84.3596 72.834 84.0498 72.834 83.7268C72.834 83.4038 72.7057 83.094 72.4773 82.8655L70.9472 81.3357C70.7702 81.1574 70.6523 80.9289 70.6095 80.6812C70.5668 80.4336 70.6012 80.1788 70.7082 79.9514C70.807 79.738 70.8973 79.5202 70.9791 79.2979C71.0648 79.0635 71.2205 78.8611 71.425 78.718C71.6295 78.5749 71.873 78.4981 72.1226 78.498H74.2863C74.4462 78.498 74.6046 78.4665 74.7524 78.4053C74.9002 78.3441 75.0345 78.2543 75.1476 78.1412C75.2607 78.0281 75.3504 77.8938 75.4116 77.7461C75.4728 77.5983 75.5043 77.4399 75.5043 77.2799V75.3565C75.5043 75.0337 75.3762 74.724 75.148 74.4956C74.9198 74.2672 74.6103 74.1388 74.2875 74.1384ZM62.8484 82.8358C61.5594 82.8357 60.2994 82.4534 59.2277 81.7373C58.1559 81.0211 57.3206 80.0032 56.8274 78.8123C56.3341 77.6214 56.2051 76.311 56.4566 75.0468C56.7081 73.7826 57.3288 72.6213 58.2402 71.7099C59.1517 70.7984 60.313 70.1777 61.5772 69.9262C62.8414 69.6747 64.1518 69.8038 65.3427 70.297C66.5336 70.7903 67.5515 71.6256 68.2676 72.6973C68.9838 73.769 69.3661 75.0291 69.3662 76.3181C69.3662 77.174 69.1976 78.0216 68.8701 78.8124C68.5425 79.6032 68.0624 80.3217 67.4571 80.927C66.8519 81.5322 66.1333 82.0123 65.3425 82.3398C64.5517 82.6673 63.7041 82.8359 62.8481 82.8358H62.8484Z" fill="white"/>
</g>
<path d="M40.4479 87.0969H38.9911C38.6876 87.0965 38.3966 86.9757 38.182 86.7611C37.9674 86.5464 37.8467 86.2554 37.8464 85.9519V84.3132C37.8459 84.1697 37.8015 84.0298 37.7193 83.9122C37.637 83.7946 37.5208 83.705 37.3862 83.6554C37.2144 83.594 37.0419 83.5213 36.8744 83.4433C36.7434 83.3822 36.5968 83.3625 36.4542 83.3869C36.3117 83.4113 36.1799 83.4786 36.0767 83.5799L34.9175 84.7387C34.8113 84.8451 34.6851 84.9295 34.5462 84.987C34.4073 85.0446 34.2585 85.0742 34.1082 85.0742C33.9578 85.0742 33.809 85.0446 33.6701 84.987C33.5312 84.9295 33.405 84.8451 33.2988 84.7387L32.2682 83.71C32.1618 83.6037 32.0774 83.4775 32.0199 83.3386C31.9623 83.1997 31.9327 83.0508 31.9327 82.9004C31.9327 82.7501 31.9623 82.6012 32.0199 82.4623C32.0774 82.3234 32.1618 82.1972 32.2682 82.0909L33.427 80.9324C33.5284 80.8292 33.5958 80.6975 33.6202 80.5549C33.6446 80.4123 33.6248 80.2657 33.5636 80.1346C33.4862 79.9674 33.4151 79.7953 33.3512 79.6226C33.3016 79.4879 33.212 79.3717 33.0944 79.2894C32.9768 79.2071 32.8369 79.1628 32.6934 79.1623H31.0547C30.7511 79.162 30.4601 79.0413 30.2454 78.8266C30.0307 78.6119 29.91 78.3209 29.9097 78.0173V76.5605C29.9101 76.257 30.0309 75.966 30.2455 75.7514C30.4602 75.5368 30.7512 75.4161 31.0547 75.4158H32.6934C32.8369 75.4153 32.9768 75.371 33.0944 75.2887C33.212 75.2064 33.3016 75.0902 33.3512 74.9556C33.4151 74.7816 33.4862 74.6095 33.5636 74.4438C33.6248 74.3128 33.6446 74.1661 33.6201 74.0236C33.5957 73.881 33.5284 73.7493 33.427 73.6461L32.2682 72.4869C32.1618 72.3806 32.0775 72.2545 32.0199 72.1156C31.9623 71.9767 31.9327 71.8279 31.9327 71.6775C31.9327 71.5272 31.9623 71.3783 32.0199 71.2394C32.0775 71.1006 32.1618 70.9744 32.2682 70.8681L33.2982 69.8378C33.513 69.6236 33.8041 69.5033 34.1075 69.5033C34.411 69.5033 34.702 69.6236 34.9169 69.8378L36.0761 70.997C36.1793 71.0984 36.311 71.1658 36.4536 71.1901C36.5962 71.2145 36.7428 71.1946 36.8738 71.1332C37.0392 71.0562 37.2113 70.9853 37.3856 70.9212C37.5202 70.8716 37.6364 70.7819 37.7187 70.6644C37.8009 70.5468 37.8453 70.4069 37.8458 70.2634V68.6244C37.8461 68.3209 37.9668 68.0299 38.1814 67.8153C38.3961 67.6007 38.687 67.48 38.9905 67.4797H40.4473C40.7508 67.48 41.0418 67.6007 41.2564 67.8153C41.471 68.0299 41.5917 68.3209 41.592 68.6244V70.2634C41.5926 70.4069 41.6369 70.5468 41.7192 70.6644C41.8014 70.7819 41.9176 70.8716 42.0523 70.9212C42.2265 70.985 42.3987 71.0562 42.564 71.1332C42.695 71.1945 42.8416 71.2143 42.9842 71.19C43.1268 71.1656 43.2585 71.0983 43.3618 70.997L44.5206 69.8378C44.7355 69.6236 45.0265 69.5033 45.33 69.5033C45.6334 69.5033 45.9245 69.6236 46.1394 69.8378L47.1697 70.8681C47.3843 71.0828 47.5049 71.3739 47.5049 71.6775C47.5049 71.9811 47.3843 72.2722 47.1697 72.4869L46.0108 73.6461C45.9095 73.7493 45.8422 73.881 45.8178 74.0236C45.7934 74.1661 45.8131 74.3127 45.8743 74.4438C45.9513 74.6092 46.0228 74.7813 46.0866 74.9556C46.1362 75.0901 46.2258 75.2063 46.3433 75.2886C46.4608 75.3708 46.6007 75.4152 46.7441 75.4158H48.3828C48.6864 75.4161 48.9774 75.5368 49.192 75.7514C49.4067 75.966 49.5275 76.257 49.5279 76.5605V78.0173C49.5275 78.3209 49.4068 78.6119 49.1921 78.8266C48.9775 79.0413 48.6864 79.162 48.3828 79.1623H46.7453C46.6019 79.1629 46.462 79.2072 46.3445 79.2895C46.227 79.3717 46.1374 79.488 46.0878 79.6226C46.0246 79.7953 45.9528 79.9677 45.8755 80.1346C45.8142 80.2657 45.7944 80.4123 45.8189 80.5549C45.8433 80.6975 45.9107 80.8292 46.012 80.9324L47.1709 82.0909C47.3856 82.3056 47.5061 82.5968 47.5061 82.9004C47.5061 83.2041 47.3856 83.4952 47.1709 83.71L46.1406 84.74C46.0343 84.8463 45.9082 84.9307 45.7693 84.9882C45.6304 85.0458 45.4816 85.0754 45.3312 85.0754C45.1809 85.0754 45.032 85.0458 44.8931 84.9882C44.7543 84.9307 44.6281 84.8463 44.5218 84.74L43.363 83.5811C43.2597 83.4799 43.128 83.4126 42.9855 83.3882C42.8429 83.3638 42.6963 83.3835 42.5653 83.4446C42.3968 83.5228 42.2247 83.594 42.0532 83.6569C41.9185 83.7065 41.8023 83.7961 41.72 83.9137C41.6378 84.0313 41.5934 84.1712 41.593 84.3147V85.9534C41.5922 86.2567 41.4713 86.5474 41.2567 86.7617C41.0421 86.9761 40.7512 87.0966 40.4479 87.0969ZM36.5731 82.9328C36.7416 82.9329 36.9081 82.9697 37.061 83.0405C37.2174 83.1132 37.3788 83.1798 37.539 83.2384C37.7587 83.3196 37.9484 83.4659 38.0827 83.6578C38.217 83.8497 38.2896 84.078 38.2907 84.3123V85.951C38.2909 86.1367 38.3648 86.3147 38.4961 86.446C38.6274 86.5773 38.8054 86.6512 38.9911 86.6514H40.4479C40.6336 86.6512 40.8116 86.5773 40.943 86.446C41.0743 86.3147 41.1481 86.1367 41.1484 85.951V84.3123C41.1494 84.078 41.2219 83.8496 41.3562 83.6577C41.4906 83.4658 41.6803 83.3195 41.9001 83.2384C42.0602 83.1801 42.221 83.1132 42.3784 83.0405C42.5921 82.9413 42.8309 82.9097 43.063 82.9499C43.2951 82.9902 43.5094 83.1003 43.6772 83.2657L44.836 84.4246C44.9694 84.552 45.1467 84.6231 45.3312 84.6231C45.5157 84.6231 45.6931 84.552 45.8264 84.4246L46.8567 83.3943C46.988 83.2629 47.0618 83.0848 47.0618 82.8991C47.0618 82.7133 46.988 82.5352 46.8567 82.4039L45.6976 81.245C45.5321 81.0773 45.4218 80.863 45.3815 80.6309C45.3413 80.3988 45.373 80.1599 45.4724 79.9462C45.5445 79.7904 45.6113 79.6293 45.6703 79.4682C45.7513 79.2484 45.8975 79.0585 46.0894 78.9241C46.2814 78.7897 46.5098 78.7172 46.7441 78.7162H48.3828C48.5685 78.7161 48.7466 78.6422 48.8779 78.5109C49.0093 78.3795 49.0831 78.2015 49.0833 78.0158V76.559C49.0831 76.3733 49.0093 76.1952 48.8779 76.0639C48.7466 75.9325 48.5685 75.8587 48.3828 75.8585H46.7453C46.5111 75.8575 46.2828 75.7851 46.0909 75.6508C45.899 75.5165 45.7527 75.3268 45.6715 75.1071C45.612 74.9445 45.5454 74.7837 45.4736 74.6288C45.3742 74.4152 45.3426 74.1763 45.3828 73.9442C45.4231 73.712 45.5333 73.4977 45.6988 73.33L46.8579 72.1709C46.9892 72.0395 47.063 71.8614 47.063 71.6757C47.063 71.49 46.9892 71.3118 46.8579 71.1805L45.8276 70.1502C45.6961 70.0192 45.5181 69.9456 45.3324 69.9456C45.1468 69.9456 44.9688 70.0192 44.8372 70.1502L43.6784 71.3093C43.5107 71.4749 43.2963 71.5852 43.0641 71.6255C42.8319 71.6657 42.593 71.634 42.3793 71.5345C42.2259 71.4627 42.0639 71.3962 41.9013 71.3363C41.6815 71.2553 41.4917 71.109 41.3574 70.9171C41.223 70.7252 41.1505 70.4968 41.1496 70.2625V68.6235C41.1494 68.4377 41.0756 68.2597 40.9443 68.1283C40.8129 67.997 40.6349 67.9232 40.4491 67.923H38.9924C38.8067 67.9232 38.6286 67.997 38.4973 68.1283C38.3659 68.2597 38.2921 68.4377 38.2919 68.6235V70.2625C38.291 70.4967 38.2185 70.7251 38.0842 70.917C37.9499 71.1089 37.7602 71.2552 37.5405 71.3363C37.3776 71.3962 37.2168 71.4627 37.0622 71.5345C36.8486 71.634 36.6097 71.6657 36.3775 71.6254C36.1454 71.5852 35.9311 71.4749 35.7634 71.3093L34.6043 70.1502C34.4728 70.0192 34.2947 69.9456 34.1091 69.9456C33.9234 69.9456 33.7454 70.0192 33.6139 70.1502L32.5839 71.1805C32.5188 71.2455 32.4672 71.3227 32.4319 71.4076C32.3967 71.4926 32.3786 71.5837 32.3786 71.6757C32.3786 71.7677 32.3967 71.8587 32.4319 71.9437C32.4672 72.0287 32.5188 72.1059 32.5839 72.1709L33.7427 73.33C33.9082 73.4977 34.0185 73.712 34.0588 73.9441C34.099 74.1763 34.0673 74.4152 33.9679 74.6288C33.8961 74.7837 33.8296 74.9448 33.7697 75.1074C33.6887 75.3272 33.5424 75.517 33.3504 75.6513C33.1585 75.7855 32.9301 75.858 32.6959 75.8588H31.0572C30.8714 75.859 30.6934 75.9328 30.562 76.0642C30.4307 76.1955 30.3569 76.3736 30.3567 76.5593V78.0161C30.3569 78.2018 30.4307 78.3798 30.562 78.5112C30.6934 78.6425 30.8714 78.7164 31.0572 78.7165H32.6959C32.9301 78.7174 33.1585 78.7899 33.3505 78.9243C33.5424 79.0586 33.6887 79.2484 33.7697 79.4682C33.8289 79.6296 33.8955 79.7907 33.9676 79.9466C34.0671 80.1602 34.0988 80.3991 34.0585 80.6312C34.0183 80.8634 33.908 81.0777 33.7424 81.2453L32.5836 82.4042C32.5185 82.4692 32.4669 82.5463 32.4316 82.6313C32.3964 82.7163 32.3783 82.8074 32.3783 82.8994C32.3783 82.9913 32.3964 83.0824 32.4316 83.1674C32.4669 83.2524 32.5185 83.3296 32.5836 83.3946L33.6136 84.4248C33.747 84.5522 33.9243 84.6233 34.1088 84.6233C34.2932 84.6233 34.4706 84.5522 34.604 84.4248L35.7631 83.266C35.9783 83.052 36.2697 82.9322 36.5731 82.9328ZM39.7198 82.4462C38.6995 82.4462 37.7021 82.1436 36.8538 81.5768C36.0054 81.0099 35.3442 80.2042 34.9537 79.2616C34.5632 78.3189 34.4611 77.2816 34.6601 76.2809C34.8592 75.2802 35.3505 74.361 36.072 73.6395C36.7935 72.9181 37.7127 72.4267 38.7134 72.2277C39.7141 72.0286 40.7514 72.1308 41.694 72.5212C42.6367 72.9117 43.4424 73.5729 44.0092 74.4213C44.5761 75.2696 44.8787 76.267 44.8787 77.2874C44.8771 78.6551 44.3331 79.9665 43.3659 80.9336C42.3987 81.9007 41.0873 82.4447 39.7195 82.4462H39.7198ZM39.7198 72.5728C38.7874 72.5729 37.876 72.8495 37.1007 73.3677C36.3255 73.8858 35.7213 74.6221 35.3646 75.4836C35.0079 76.3451 34.9146 77.293 35.0966 78.2075C35.2785 79.122 35.7276 79.962 36.387 80.6213C37.0463 81.2806 37.8864 81.7295 38.8009 81.9114C39.7154 82.0932 40.6633 81.9998 41.5248 81.643C42.3862 81.2861 43.1225 80.6819 43.6405 79.9066C44.1585 79.1313 44.435 78.2198 44.435 77.2874C44.4336 76.0372 43.9364 74.8387 43.0523 73.9548C42.1683 73.0708 40.9697 72.5737 39.7195 72.5725L39.7198 72.5728Z" fill="white"/>
</g>
<g opacity="0.81">
<path d="M87.5832 62.9953H84.6866C84.6277 62.9953 84.5712 62.9719 84.5295 62.9302C84.4878 62.8886 84.4644 62.8321 84.4644 62.7732C84.4644 62.7142 84.4878 62.6577 84.5295 62.6161C84.5712 62.5744 84.6277 62.551 84.6866 62.551H87.5832C87.6421 62.551 87.6987 62.5744 87.7403 62.6161C87.782 62.6577 87.8054 62.7142 87.8054 62.7732C87.8054 62.8321 87.782 62.8886 87.7403 62.9302C87.6987 62.9719 87.6421 62.9953 87.5832 62.9953Z" fill="white"/>
<path d="M87.5832 67.7686H84.6866C84.6277 67.7686 84.5712 67.7452 84.5295 67.7035C84.4878 67.6619 84.4644 67.6053 84.4644 67.5464C84.4644 67.4875 84.4878 67.431 84.5295 67.3894C84.5712 67.3477 84.6277 67.3243 84.6866 67.3243H87.5832C87.6421 67.3243 87.6987 67.3477 87.7403 67.3894C87.782 67.431 87.8054 67.4875 87.8054 67.5464C87.8054 67.6053 87.782 67.6619 87.7403 67.7035C87.6987 67.7452 87.6421 67.7686 87.5832 67.7686Z" fill="white"/>
<path d="M89.6307 72.5894H72.0194C71.8597 72.5892 71.7065 72.5256 71.5935 72.4127C71.4805 72.2997 71.417 72.1465 71.4168 71.9868V57.2626C71.4171 57.1029 71.4806 56.9498 71.5936 56.8369C71.7066 56.724 71.8597 56.6605 72.0194 56.6603H89.6307C89.7905 56.6604 89.9437 56.7239 90.0567 56.8368C90.1698 56.9497 90.2334 57.1028 90.2336 57.2626V71.9864C90.2335 72.1463 90.17 72.2996 90.0569 72.4127C89.9439 72.5257 89.7906 72.5893 89.6307 72.5894ZM72.0194 57.1049C71.9775 57.1049 71.9373 57.1215 71.9076 57.1512C71.8779 57.1808 71.8612 57.221 71.8611 57.2629V71.9868C71.8611 72.0075 71.8652 72.0281 71.8731 72.0473C71.8811 72.0666 71.8928 72.084 71.9075 72.0987C71.9222 72.1134 71.9396 72.1251 71.9588 72.133C71.978 72.141 71.9986 72.1451 72.0194 72.1451H89.6307C89.6727 72.1451 89.713 72.1284 89.7427 72.0987C89.7724 72.069 89.789 72.0287 89.789 71.9868V57.2626C89.789 57.2207 89.7722 57.1805 89.7426 57.1509C89.7129 57.1212 89.6727 57.1046 89.6307 57.1046L72.0194 57.1049Z" fill="white"/>
<path opacity="0.66" d="M89.6307 72.5894H72.0194C71.8597 72.5892 71.7065 72.5256 71.5935 72.4127C71.4805 72.2997 71.417 72.1465 71.4168 71.9868V57.2626C71.4171 57.1029 71.4806 56.9498 71.5936 56.8369C71.7066 56.724 71.8597 56.6605 72.0194 56.6603H89.6307C89.7905 56.6604 89.9437 56.7239 90.0567 56.8368C90.1698 56.9497 90.2334 57.1028 90.2336 57.2626V71.9864C90.2335 72.1463 90.17 72.2996 90.0569 72.4127C89.9439 72.5257 89.7906 72.5893 89.6307 72.5894ZM72.0194 57.1049C71.9775 57.1049 71.9373 57.1215 71.9076 57.1512C71.8779 57.1808 71.8612 57.221 71.8611 57.2629V71.9868C71.8611 72.0075 71.8652 72.0281 71.8731 72.0473C71.8811 72.0666 71.8928 72.084 71.9075 72.0987C71.9222 72.1134 71.9396 72.1251 71.9588 72.133C71.978 72.141 71.9986 72.1451 72.0194 72.1451H89.6307C89.6727 72.1451 89.713 72.1284 89.7427 72.0987C89.7724 72.069 89.789 72.0287 89.789 71.9868V57.2626C89.789 57.2207 89.7722 57.1805 89.7426 57.1509C89.7129 57.1212 89.6727 57.1046 89.6307 57.1046L72.0194 57.1049Z" fill="white"/>
<path d="M87.5833 60.6789H73.7805C73.7513 60.6789 73.7224 60.6731 73.6955 60.662C73.6685 60.6508 73.644 60.6345 73.6234 60.6138C73.6028 60.5932 73.5864 60.5687 73.5753 60.5418C73.5641 60.5148 73.5583 60.4859 73.5583 60.4568C73.5583 60.4276 73.5641 60.3987 73.5753 60.3717C73.5864 60.3448 73.6028 60.3203 73.6234 60.2997C73.644 60.2791 73.6685 60.2627 73.6955 60.2515C73.7224 60.2404 73.7513 60.2346 73.7805 60.2346H87.5833C87.6124 60.2346 87.6413 60.2404 87.6683 60.2515C87.6952 60.2627 87.7197 60.2791 87.7403 60.2997C87.761 60.3203 87.7773 60.3448 87.7885 60.3717C87.7997 60.3987 87.8054 60.4276 87.8054 60.4568C87.8054 60.4859 87.7997 60.5148 87.7885 60.5418C87.7773 60.5687 87.761 60.5932 87.7403 60.6138C87.7197 60.6345 87.6952 60.6508 87.6683 60.662C87.6413 60.6731 87.6124 60.6789 87.5833 60.6789Z" fill="white"/>
<path d="M87.5833 65.3133H73.7805C73.7216 65.3133 73.6651 65.2899 73.6234 65.2483C73.5817 65.2066 73.5583 65.1501 73.5583 65.0912C73.5583 65.0323 73.5817 64.9758 73.6234 64.9341C73.6651 64.8925 73.7216 64.8691 73.7805 64.8691H87.5833C87.6124 64.8691 87.6413 64.8748 87.6683 64.886C87.6952 64.8971 87.7197 64.9135 87.7403 64.9341C87.761 64.9547 87.7773 64.9792 87.7885 65.0062C87.7997 65.0331 87.8054 65.062 87.8054 65.0912C87.8054 65.1204 87.7997 65.1493 87.7885 65.1762C87.7773 65.2032 87.761 65.2276 87.7403 65.2483C87.7197 65.2689 87.6952 65.2853 87.6683 65.2964C87.6413 65.3076 87.6124 65.3133 87.5833 65.3133Z" fill="white"/>
<path d="M81.222 62.9953H73.7805C73.7216 62.9953 73.6651 62.9719 73.6234 62.9302C73.5817 62.8886 73.5583 62.8321 73.5583 62.7732C73.5583 62.7142 73.5817 62.6577 73.6234 62.6161C73.6651 62.5744 73.7216 62.551 73.7805 62.551H81.222C81.2809 62.551 81.3374 62.5744 81.3791 62.6161C81.4208 62.6577 81.4442 62.7142 81.4442 62.7732C81.4442 62.8321 81.4208 62.8886 81.3791 62.9302C81.3374 62.9719 81.2809 62.9953 81.222 62.9953Z" fill="white"/>
<path d="M81.222 67.7686H73.7805C73.7216 67.7686 73.6651 67.7452 73.6234 67.7035C73.5817 67.6619 73.5583 67.6053 73.5583 67.5464C73.5583 67.4875 73.5817 67.431 73.6234 67.3894C73.6651 67.3477 73.7216 67.3243 73.7805 67.3243H81.222C81.2809 67.3243 81.3374 67.3477 81.3791 67.3894C81.4208 67.431 81.4442 67.4875 81.4442 67.5464C81.4442 67.6053 81.4208 67.6619 81.3791 67.7035C81.3374 67.7452 81.2809 67.7686 81.222 67.7686Z" fill="white"/>
<path d="M78.7991 69.9785H73.7805C73.7216 69.9785 73.6651 69.9551 73.6234 69.9135C73.5817 69.8718 73.5583 69.8153 73.5583 69.7564C73.5583 69.6975 73.5817 69.641 73.6234 69.5993C73.6651 69.5577 73.7216 69.5343 73.7805 69.5343H78.7991C78.858 69.5343 78.9145 69.5577 78.9562 69.5993C78.9978 69.641 79.0212 69.6975 79.0212 69.7564C79.0212 69.8153 78.9978 69.8718 78.9562 69.9135C78.9145 69.9551 78.858 69.9785 78.7991 69.9785Z" fill="white"/>
</g>
<g opacity="0.81">
<path d="M31.2296 38.6967H27.9433C27.8844 38.6967 27.8279 38.6733 27.7863 38.6317C27.7446 38.59 27.7212 38.5335 27.7212 38.4746C27.7212 38.4157 27.7446 38.3592 27.7863 38.3175C27.8279 38.2758 27.8844 38.2524 27.9433 38.2524H31.2296C31.2886 38.2524 31.3451 38.2758 31.3867 38.3175C31.4284 38.3592 31.4518 38.4157 31.4518 38.4746C31.4518 38.5335 31.4284 38.59 31.3867 38.6317C31.3451 38.6733 31.2886 38.6967 31.2296 38.6967Z" fill="white"/>
<path d="M31.2296 44.1121H27.9433C27.8844 44.1121 27.8279 44.0887 27.7863 44.047C27.7446 44.0054 27.7212 43.9489 27.7212 43.8899C27.7212 43.831 27.7446 43.7745 27.7863 43.7329C27.8279 43.6912 27.8844 43.6678 27.9433 43.6678H31.2296C31.2886 43.6678 31.3451 43.6912 31.3867 43.7329C31.4284 43.7745 31.4518 43.831 31.4518 43.8899C31.4518 43.9489 31.4284 44.0054 31.3867 44.047C31.3451 44.0887 31.2886 44.1121 31.2296 44.1121Z" fill="white"/>
<path d="M33.6028 49.5811H13.5207C13.361 49.5809 13.2079 49.5174 13.095 49.4045C12.982 49.2916 12.9185 49.1385 12.9184 48.9788V32.1714C12.9185 32.0117 12.982 31.8586 13.095 31.7457C13.2079 31.6328 13.361 31.5693 13.5207 31.5691H33.6028C33.7624 31.5693 33.9155 31.6328 34.0285 31.7457C34.1414 31.8586 34.2049 32.0117 34.205 32.1714V48.9785C34.205 49.1383 34.1415 49.2914 34.0286 49.4044C33.9156 49.5174 33.7625 49.5809 33.6028 49.5811ZM13.5207 32.0134C13.4788 32.0134 13.4386 32.0301 13.409 32.0597C13.3794 32.0893 13.3627 32.1295 13.3626 32.1714V48.9785C13.3627 49.0204 13.3794 49.0605 13.409 49.0902C13.4386 49.1198 13.4788 49.1364 13.5207 49.1365H33.6028C33.6446 49.1364 33.6848 49.1198 33.7144 49.0902C33.744 49.0605 33.7607 49.0204 33.7608 48.9785V32.1714C33.7607 32.1295 33.744 32.0893 33.7144 32.0597C33.6848 32.0301 33.6446 32.0134 33.6028 32.0134H13.5207Z" fill="white"/>
<path opacity="0.66" d="M33.6028 49.5811H13.5207C13.361 49.5809 13.2079 49.5174 13.095 49.4045C12.982 49.2916 12.9185 49.1385 12.9184 48.9788V32.1714C12.9185 32.0117 12.982 31.8586 13.095 31.7457C13.2079 31.6328 13.361 31.5693 13.5207 31.5691H33.6028C33.7624 31.5693 33.9155 31.6328 34.0285 31.7457C34.1414 31.8586 34.2049 32.0117 34.205 32.1714V48.9785C34.205 49.1383 34.1415 49.2914 34.0286 49.4044C33.9156 49.5174 33.7625 49.5809 33.6028 49.5811ZM13.5207 32.0134C13.4788 32.0134 13.4386 32.0301 13.409 32.0597C13.3794 32.0893 13.3627 32.1295 13.3626 32.1714V48.9785C13.3627 49.0204 13.3794 49.0605 13.409 49.0902C13.4386 49.1198 13.4788 49.1364 13.5207 49.1365H33.6028C33.6446 49.1364 33.6848 49.1198 33.7144 49.0902C33.744 49.0605 33.7607 49.0204 33.7608 48.9785V32.1714C33.7607 32.1295 33.744 32.0893 33.7144 32.0597C33.6848 32.0301 33.6446 32.0134 33.6028 32.0134H13.5207Z" fill="white"/>
<path d="M31.2297 36.0686H15.5698C15.5109 36.0686 15.4544 36.0452 15.4127 36.0036C15.3711 35.9619 15.3477 35.9054 15.3477 35.8465C15.3477 35.7876 15.3711 35.7311 15.4127 35.6894C15.4544 35.6478 15.5109 35.6243 15.5698 35.6243H31.2297C31.2887 35.6243 31.3452 35.6478 31.3868 35.6894C31.4285 35.7311 31.4519 35.7876 31.4519 35.8465C31.4519 35.9054 31.4285 35.9619 31.3868 36.0036C31.3452 36.0452 31.2887 36.0686 31.2297 36.0686Z" fill="white"/>
<path d="M31.2297 41.325H15.5698C15.5109 41.325 15.4544 41.3016 15.4127 41.2599C15.3711 41.2182 15.3477 41.1617 15.3477 41.1028C15.3477 41.0439 15.3711 40.9874 15.4127 40.9458C15.4544 40.9041 15.5109 40.8807 15.5698 40.8807H31.2297C31.2887 40.8807 31.3452 40.9041 31.3868 40.9458C31.4285 40.9874 31.4519 41.0439 31.4519 41.1028C31.4519 41.1617 31.4285 41.2182 31.3868 41.2599C31.3452 41.3016 31.2887 41.325 31.2297 41.325Z" fill="white"/>
<path d="M24.0128 38.6967H15.5698C15.5109 38.6967 15.4544 38.6733 15.4127 38.6317C15.3711 38.59 15.3477 38.5335 15.3477 38.4746C15.3477 38.4157 15.3711 38.3592 15.4127 38.3175C15.4544 38.2758 15.5109 38.2524 15.5698 38.2524H24.0125C24.0714 38.2524 24.1279 38.2758 24.1696 38.3175C24.2112 38.3592 24.2346 38.4157 24.2346 38.4746C24.2346 38.5335 24.2112 38.59 24.1696 38.6317C24.1279 38.6733 24.0717 38.6967 24.0128 38.6967Z" fill="white"/>
<path d="M24.0128 44.1121H15.5698C15.5109 44.1121 15.4544 44.0887 15.4127 44.047C15.3711 44.0054 15.3477 43.9489 15.3477 43.8899C15.3477 43.831 15.3711 43.7745 15.4127 43.7329C15.4544 43.6912 15.5109 43.6678 15.5698 43.6678H24.0125C24.0714 43.6678 24.1279 43.6912 24.1696 43.7329C24.2112 43.7745 24.2346 43.831 24.2346 43.8899C24.2346 43.9489 24.2112 44.0054 24.1696 44.047C24.1279 44.0887 24.0717 44.1121 24.0128 44.1121Z" fill="white"/>
<path d="M21.264 46.6209H15.5698C15.5109 46.6209 15.4544 46.5975 15.4127 46.5558C15.3711 46.5141 15.3477 46.4576 15.3477 46.3987C15.3477 46.3398 15.3711 46.2833 15.4127 46.2417C15.4544 46.2 15.5109 46.1766 15.5698 46.1766H21.264C21.3229 46.1766 21.3794 46.2 21.4211 46.2417C21.4627 46.2833 21.4861 46.3398 21.4861 46.3987C21.4861 46.4576 21.4627 46.5141 21.4211 46.5558C21.3794 46.5975 21.3229 46.6209 21.264 46.6209Z" fill="white"/>
</g>
<path d="M89.0854 31.2447H79.0989C78.8682 31.2553 78.6471 31.3401 78.4686 31.4866C78.29 31.6331 78.1636 31.8333 78.1081 32.0575L77.7774 33.155C77.7219 33.3791 77.5955 33.5793 77.4169 33.7258C77.2384 33.8722 77.0174 33.9571 76.7867 33.9677H62.489C62.19 33.9906 61.912 34.1305 61.7156 34.3572C61.5192 34.5838 61.4201 34.8788 61.44 35.1781V51.3661C61.4201 51.6653 61.5192 51.9604 61.7156 52.187C61.912 52.4136 62.19 52.5536 62.489 52.5765H89.0845C89.3934 52.5641 89.6848 52.4297 89.8948 52.2028C90.1048 51.9759 90.2163 51.675 90.2047 51.3661V32.4551C90.2163 32.1463 90.1049 31.8455 89.8951 31.6187C89.6854 31.3918 89.3942 31.2573 89.0854 31.2447Z" fill="#275AA7"/>
<path d="M78.8825 34.1381L79.2357 33.0406C79.3029 32.8104 79.4416 32.6076 79.6317 32.4614C79.8218 32.3153 80.0536 32.2335 80.2933 32.2279H89.0851C89.3941 32.2402 89.6854 32.3746 89.8954 32.6015C90.1054 32.8284 90.2169 33.1293 90.2053 33.4383V52.3483C90.2169 52.6573 90.1054 52.9582 89.8954 53.1851C89.6854 53.412 89.3941 53.5463 89.0851 53.5587H62.5608C62.2519 53.5463 61.9606 53.4119 61.7507 53.185C61.5408 52.9581 61.4294 52.6572 61.4409 52.3483V36.1616C61.4294 35.8527 61.5408 35.5518 61.7507 35.3249C61.9606 35.098 62.2519 34.9636 62.5608 34.9512H77.8249C78.0647 34.9455 78.2964 34.8636 78.4866 34.7174C78.6767 34.5712 78.8154 34.3683 78.8825 34.1381Z" fill="#6D6CD4"/>
<path opacity="0.12" d="M79.5329 35.2538L79.8658 34.2192C79.929 34.002 80.0598 33.8106 80.239 33.6727C80.4183 33.5348 80.6369 33.4575 80.863 33.4521H89.1498C89.441 33.4639 89.7156 33.5906 89.9135 33.8045C90.1114 34.0184 90.2165 34.302 90.2056 34.5932V52.4177C90.2165 52.7089 90.1114 52.9926 89.9135 53.2065C89.7156 53.4204 89.441 53.5471 89.1498 53.5588H64.1485C63.8574 53.5471 63.5828 53.4204 63.3849 53.2065C63.1871 52.9926 63.0821 52.7089 63.0931 52.4177V37.1606C63.0821 36.8695 63.1871 36.5858 63.3849 36.3719C63.5828 36.158 63.8574 36.0313 64.1485 36.0196H78.5361C78.762 36.0143 78.9804 35.9372 79.1596 35.7995C79.3388 35.6618 79.4696 35.4707 79.5329 35.2538Z" fill="white"/>
<path d="M87.1752 52.1941H80.6139C80.555 52.1941 80.4985 52.1707 80.4568 52.129C80.4152 52.0873 80.3918 52.0308 80.3918 51.9719C80.3918 51.913 80.4152 51.8565 80.4568 51.8149C80.4985 51.7732 80.555 51.7498 80.6139 51.7498H87.1749C87.3782 51.7494 87.573 51.6684 87.7168 51.5247C87.8606 51.3809 87.9415 51.1861 87.9419 50.9828V45.777C87.9419 45.7181 87.9653 45.6616 88.007 45.6199C88.0486 45.5783 88.1051 45.5548 88.164 45.5548C88.223 45.5548 88.2795 45.5783 88.3211 45.6199C88.3628 45.6616 88.3862 45.7181 88.3862 45.777V50.9818C88.3858 51.303 88.2581 51.6109 88.0311 51.8381C87.8041 52.0653 87.4963 52.1933 87.1752 52.1941Z" fill="white"/>
<path d="M10.7508 49.6539H20.8021C21.0456 49.6756 21.2752 49.7769 21.4554 49.9422C21.6356 50.1075 21.7563 50.3275 21.799 50.5682L22.1322 51.8028C22.1749 52.0436 22.2957 52.2635 22.4759 52.4287C22.6562 52.5939 22.8858 52.6952 23.1293 52.7168H37.519C38.102 52.7168 38.5748 53.3265 38.5748 54.0785V72.2869C38.5748 73.0389 38.1023 73.6485 37.519 73.6485H10.7508C10.1282 73.6485 9.62354 73.0389 9.62354 72.2869V51.0152C9.62354 50.2632 10.1282 49.6539 10.7508 49.6539Z" fill="#F28393"/>
<path opacity="0.12" d="M21.0203 52.9092L20.6647 51.6746C20.6105 51.4272 20.4774 51.2042 20.2853 51.0393C20.0932 50.8743 19.8527 50.7764 19.6 50.7603H10.7508C10.1282 50.7603 9.62354 51.3699 9.62354 52.1219V73.3935C9.62354 74.1456 10.1282 74.7552 10.7508 74.7552H37.4466C38.0692 74.7552 38.5739 74.1456 38.5739 73.3935V55.1852C38.5739 54.4332 38.0692 53.8235 37.4466 53.8235H22.084C21.8315 53.8072 21.5911 53.7092 21.3993 53.5442C21.2074 53.3793 21.0743 53.1564 21.0203 52.9092Z" fill="white"/>
<path opacity="0.12" d="M20.3649 54.1641L20.0299 53.0004C19.979 52.7672 19.8535 52.5569 19.6724 52.4014C19.4913 52.246 19.2645 52.1538 19.0263 52.1388H10.6857C10.0991 52.1388 9.62354 52.7135 9.62354 53.4222V73.4721C9.62354 74.1809 10.0991 74.7556 10.6857 74.7556H35.8484C36.4351 74.7556 36.9106 74.1809 36.9106 73.4721V56.3091C36.9106 55.6003 36.4351 55.0254 35.8484 55.0254H21.3667C21.1288 55.0101 20.9024 54.9178 20.7216 54.7624C20.5409 54.607 20.4157 54.397 20.3649 54.1641Z" fill="white"/>
<path d="M11.677 57.47C11.6212 57.4668 11.569 57.4416 11.5317 57.4C11.4945 57.3584 11.4752 57.3037 11.4782 57.2479V54.1638C11.4684 53.9737 11.5342 53.7874 11.6611 53.6455C11.7881 53.5036 11.9659 53.4176 12.1559 53.4062H16.2979C16.3524 53.4127 16.4025 53.4388 16.4389 53.4798C16.4754 53.5207 16.4955 53.5736 16.4955 53.6284C16.4955 53.6832 16.4754 53.7361 16.4389 53.777C16.4025 53.818 16.3524 53.8441 16.2979 53.8505H12.1559C12.0773 53.8552 12.0038 53.8907 11.9513 53.9494C11.8988 54.0081 11.8717 54.0852 11.8758 54.1638V57.2476C11.8788 57.3034 11.8596 57.3582 11.8223 57.3999C11.7851 57.4416 11.7328 57.4668 11.677 57.47Z" fill="white"/>
<path d="M65.4864 22.9298H36.934C32.1924 22.9298 28.3486 26.7736 28.3486 31.5151C28.3486 36.2567 32.1924 40.1005 36.934 40.1005H65.4864C70.2279 40.1005 74.0717 36.2567 74.0717 31.5151C74.0717 26.7736 70.2279 22.9298 65.4864 22.9298Z" fill="#C5D9FF"/>
<path d="M51.2102 36.3167C57.8786 36.3167 63.2844 30.9109 63.2844 24.2426C63.2844 17.5742 57.8786 12.1684 51.2102 12.1684C44.5419 12.1684 39.1361 17.5742 39.1361 24.2426C39.1361 30.9109 44.5419 36.3167 51.2102 36.3167Z" fill="#599AF2"/>
<path d="M65.4865 20.4002H36.9341C32.1925 20.4002 28.3487 24.244 28.3487 28.9856C28.3487 33.7271 32.1925 37.5709 36.9341 37.5709H65.4865C70.228 37.5709 74.0718 33.7271 74.0718 28.9856C74.0718 24.244 70.228 20.4002 65.4865 20.4002Z" fill="#599AF2"/>
<path d="M55.9878 32.8017C62.112 30.1631 64.9375 23.0595 62.2989 16.9353C59.6603 10.8112 52.5567 7.98562 46.4326 10.6242C40.3084 13.2628 37.4828 20.3665 40.1215 26.4906C42.7601 32.6147 49.8637 35.4403 55.9878 32.8017Z" fill="#599AF2"/>
<g opacity="0.35">
<path d="M65.4865 20.4002H36.9341C32.1925 20.4002 28.3487 24.244 28.3487 28.9856C28.3487 33.7271 32.1925 37.5709 36.9341 37.5709H65.4865C70.228 37.5709 74.0718 33.7271 74.0718 28.9856C74.0718 24.244 70.228 20.4002 65.4865 20.4002Z" fill="#ECF1F7"/>
<path d="M55.9878 32.8017C62.112 30.1631 64.9375 23.0595 62.2989 16.9353C59.6603 10.8112 52.5567 7.98562 46.4326 10.6242C40.3084 13.2628 37.4828 20.3665 40.1215 26.4906C42.7601 32.6147 49.8637 35.4403 55.9878 32.8017Z" fill="#ECF1F7"/>
</g>
<path d="M48.3867 23.51C48.2765 23.51 48.1688 23.4772 48.0773 23.4158C47.9858 23.3543 47.9147 23.2671 47.8729 23.1651C47.8312 23.0631 47.8207 22.951 47.8429 22.8431C47.865 22.7351 47.9188 22.6362 47.9973 22.5589L51.2376 19.3735L54.4264 22.5623C54.5305 22.6664 54.589 22.8077 54.589 22.955C54.589 23.1023 54.5305 23.2436 54.4264 23.3477C54.3222 23.4519 54.1809 23.5104 54.0336 23.5104C53.8863 23.5104 53.7451 23.4519 53.6409 23.3477L51.2309 20.938L48.7763 23.3511C48.6725 23.4534 48.5324 23.5106 48.3867 23.51Z" fill="white"/>
<path d="M51.2099 27.9283C51.0626 27.9283 50.9214 27.8697 50.8173 27.7656C50.7131 27.6615 50.6546 27.5203 50.6545 27.373V20.1554C50.6545 20.0081 50.7131 19.8668 50.8172 19.7626C50.9214 19.6585 51.0627 19.5999 51.21 19.5999C51.3574 19.5999 51.4986 19.6585 51.6028 19.7626C51.707 19.8668 51.7655 20.0081 51.7655 20.1554V27.3727C51.7656 27.4457 51.7512 27.5179 51.7233 27.5854C51.6954 27.6528 51.6545 27.7141 51.6029 27.7657C51.5513 27.8173 51.49 27.8582 51.4226 27.8861C51.3551 27.914 51.2829 27.9284 51.2099 27.9283Z" fill="white"/>
<path d="M56.4604 31.3555H45.877C45.5122 31.3551 45.1624 31.21 44.9045 30.9521C44.6465 30.6941 44.5014 30.3443 44.501 29.9795V26.1344C44.501 25.9871 44.5595 25.8458 44.6637 25.7416C44.7678 25.6375 44.9091 25.5789 45.0565 25.5789C45.2038 25.5789 45.3451 25.6375 45.4493 25.7416C45.5534 25.8458 45.6119 25.9871 45.6119 26.1344V29.9795C45.612 30.0497 45.64 30.1171 45.6897 30.1668C45.7394 30.2165 45.8068 30.2445 45.877 30.2446H56.4604C56.5527 30.2446 56.6412 30.2079 56.7065 30.1427C56.7718 30.0774 56.8085 29.9889 56.8086 29.8966V26.1344C56.8086 25.9871 56.8672 25.8458 56.9713 25.7416C57.0755 25.6375 57.2168 25.5789 57.3641 25.5789C57.5114 25.5789 57.6527 25.6375 57.7569 25.7416C57.8611 25.8458 57.9196 25.9871 57.9196 26.1344V29.8966C57.9191 30.2835 57.7652 30.6543 57.4917 30.9278C57.2181 31.2013 56.8472 31.3551 56.4604 31.3555Z" fill="white"/>
<path opacity="0.36" d="M68.0062 68.1082L37.7172 78.1157C37.5411 78.174 37.3552 78.1971 37.1701 78.1836C36.9851 78.17 36.8045 78.1201 36.6388 78.0367C36.473 77.9533 36.3254 77.838 36.2042 77.6974C36.0831 77.5569 35.9908 77.3939 35.9328 77.2176L25.9253 46.9283C25.867 46.7522 25.8439 46.5663 25.8574 46.3812C25.871 46.1962 25.9209 46.0156 26.0043 45.8499C26.0877 45.6841 26.203 45.5365 26.3436 45.4153C26.4841 45.2942 26.6472 45.2019 26.8234 45.1439L57.1127 35.1364C57.2888 35.0781 57.4747 35.0551 57.6597 35.0686C57.8447 35.0822 58.0252 35.1321 58.1909 35.2156C58.3566 35.299 58.5043 35.4142 58.6254 35.5547C58.7465 35.6953 58.8388 35.8583 58.8968 36.0345L68.9043 66.3253C68.9624 66.5013 68.9853 66.6871 68.9716 66.872C68.9579 67.0569 68.908 67.2372 68.8246 67.4028C68.7412 67.5684 68.626 67.7159 68.4856 67.8369C68.3452 67.958 68.1823 68.0501 68.0062 68.1082Z" fill="#4C65BA"/>
<path d="M54.3756 34.1851L25.1078 43.8548C24.085 44.1928 23.5298 45.2959 23.8677 46.3187L33.5375 75.5864C33.8754 76.6093 34.9785 77.1645 36.0013 76.8265L65.2691 67.1568C66.2919 66.8189 66.8471 65.7158 66.5092 64.6929L56.8394 35.4252C56.5015 34.4024 55.3984 33.8472 54.3756 34.1851Z" fill="white"/>
<path d="M54.3284 37.3155L26.9727 46.3535L36.0107 73.7093L63.3665 64.6712L54.3284 37.3155Z" fill="#C5D9FF"/>
<path opacity="0.47" d="M35.7787 73.9408L33.7323 67.7474L36.7253 60.5329C36.9223 60.0526 37.2925 59.6638 37.7626 59.4435C38.2327 59.2232 38.7684 59.1875 39.2636 59.3434L44.8041 61.0652C44.9626 61.1149 45.1333 61.1098 45.2886 61.0506C45.4439 60.9915 45.5748 60.8817 45.6601 60.7391L50.2728 53.0619C50.7508 52.2719 51.4978 51.681 52.3767 51.3978C53.2555 51.1146 54.2071 51.1582 55.0564 51.5205L60.1366 53.7059L60.1836 53.8483L63.7669 64.6946L63.4506 64.7989L35.7787 73.9408ZM34.4432 67.7738L36.2024 73.0989L62.9262 64.2696L59.5979 54.1987L54.7931 52.1313C54.092 51.8322 53.3064 51.7962 52.5809 52.03C51.8553 52.2638 51.2386 52.7517 50.8441 53.404L46.2311 61.0815C46.0691 61.3525 45.8206 61.5611 45.5255 61.6736C45.2305 61.786 44.9062 61.7958 44.6049 61.7013L39.0647 59.9803C38.7283 59.8743 38.3642 59.8985 38.0447 60.0481C37.7252 60.1978 37.4737 60.4621 37.3398 60.7885L34.4432 67.7738Z" fill="white"/>
<path opacity="0.47" d="M44.9117 52.6094C44.0199 52.6105 43.1603 52.2755 42.5044 51.6712C41.8484 51.067 41.4442 50.2377 41.3722 49.3488C41.3003 48.4598 41.5659 47.5764 42.1161 46.8745C42.6663 46.1726 43.4608 45.7037 44.3412 45.5613C45.2216 45.4189 46.1234 45.6134 46.8668 46.1061C47.6102 46.5988 48.1408 47.3535 48.3527 48.2198C48.5646 49.0861 48.4424 50.0005 48.0104 50.7807C47.5783 51.561 46.8682 52.1498 46.0215 52.4299C45.6634 52.5483 45.2888 52.6089 44.9117 52.6094ZM44.9071 46.1844C44.2986 46.1848 43.7058 46.378 43.214 46.7363C42.7221 47.0945 42.3564 47.5995 42.1693 48.1785C41.9823 48.7576 41.9835 49.3811 42.1729 49.9594C42.3622 50.5377 42.7299 51.0412 43.2232 51.3975C43.7165 51.7538 44.31 51.9447 44.9186 51.9427C45.5271 51.9407 46.1193 51.7459 46.6103 51.3864C47.1012 51.0268 47.4656 50.5209 47.6512 49.9414C47.8367 49.3618 47.8339 48.7384 47.643 48.1606C47.4553 47.5837 47.0892 47.0814 46.5974 46.7262C46.1057 46.371 45.5138 46.1812 44.9071 46.1844Z" fill="white"/>
<path opacity="0.36" d="M76.587 47.0909H54.0166C52.9394 47.0909 52.0662 47.9641 52.0662 49.0413V71.6117C52.0662 72.6889 52.9394 73.5622 54.0166 73.5622H76.587C77.6642 73.5622 78.5374 72.6889 78.5374 71.6117V49.0413C78.5374 47.9641 77.6642 47.0909 76.587 47.0909Z" fill="#4C65BA"/>
<path d="M75.2433 45.7474H52.6729C51.5957 45.7474 50.7225 46.6206 50.7225 47.6978V70.2682C50.7225 71.3454 51.5957 72.2187 52.6729 72.2187H75.2433C76.3205 72.2187 77.1938 71.3454 77.1938 70.2682V47.6978C77.1938 46.6206 76.3205 45.7474 75.2433 45.7474Z" fill="white"/>
<path opacity="0.79" d="M74.9243 48.002H52.9617V69.9645H74.9243V48.002Z" fill="#6081A8"/>
<path opacity="0.47" d="M75.2875 70.1561H52.6588V65.0752L56.5698 60.5465C56.8403 60.231 57.2193 60.0285 57.6319 59.9791C58.0446 59.9298 58.4607 60.0371 58.7979 60.2799L62.3963 62.8507C62.4848 62.9141 62.5921 62.9459 62.7009 62.941C62.8097 62.9361 62.9136 62.8948 62.9961 62.8237L68.1709 58.37C68.7203 57.8998 69.421 57.6439 70.1441 57.6492C70.8671 57.6545 71.564 57.9207 72.1064 58.3988L75.2875 61.2191V70.1561ZM53.3249 69.4896H74.6208V61.5188L71.664 58.8974C71.2425 58.5256 70.7009 58.3186 70.1389 58.3145C69.5769 58.3103 69.0323 58.5092 68.6054 58.8747L63.4306 63.3285C63.2352 63.4973 62.9887 63.5955 62.7307 63.6072C62.4727 63.6189 62.2183 63.5434 62.0085 63.3929L58.4104 60.8227C58.2082 60.6771 57.9587 60.6128 57.7113 60.6423C57.4639 60.6719 57.2365 60.7932 57.0742 60.9822L53.3256 65.3234L53.3249 69.4896Z" fill="white"/>
<path opacity="0.47" d="M65.2964 57.035C64.7462 57.035 64.2083 56.8719 63.7508 56.5662C63.2934 56.2605 62.9368 55.826 62.7262 55.3177C62.5157 54.8094 62.4606 54.25 62.5679 53.7104C62.6753 53.1707 62.9402 52.675 63.3293 52.286C63.7183 51.8969 64.214 51.632 64.7537 51.5246C65.2933 51.4173 65.8527 51.4724 66.361 51.683C66.8693 51.8935 67.3038 52.2501 67.6095 52.7076C67.9152 53.165 68.0783 53.7029 68.0783 54.2531C68.0775 54.9907 67.7841 55.6978 67.2626 56.2193C66.7411 56.7408 66.034 57.0342 65.2964 57.035ZM65.2964 52.1376C64.878 52.1376 64.469 52.2617 64.1211 52.4941C63.7732 52.7266 63.502 53.057 63.3419 53.4435C63.1818 53.8301 63.1399 54.2554 63.2215 54.6658C63.3032 55.0762 63.5047 55.4531 63.8005 55.749C64.0964 56.0448 64.4733 56.2463 64.8837 56.328C65.294 56.4096 65.7194 56.3677 66.106 56.2076C66.4925 56.0475 66.8229 55.7763 67.0554 55.4284C67.2878 55.0805 67.4119 54.6715 67.4119 54.2531C67.4115 53.6922 67.1885 53.1543 66.7918 52.7577C66.3952 52.361 65.8573 52.138 65.2964 52.1376Z" fill="white"/>
<path opacity="0.36" d="M53.7404 60.0059L41.3805 64.6369C40.3718 65.0148 39.8604 66.1389 40.2384 67.1477L44.8694 79.5075C45.2473 80.5162 46.3714 81.0276 47.3802 80.6496L59.74 76.0186C60.7487 75.6407 61.2601 74.5166 60.8821 73.5079L56.2511 61.148C55.8732 60.1393 54.7491 59.6279 53.7404 60.0059Z" fill="#4C65BA"/>
<path d="M52.6233 59.4979L40.2635 64.1289C39.2547 64.5068 38.7434 65.631 39.1213 66.6397L43.7524 78.9996C44.1303 80.0083 45.2544 80.5196 46.2631 80.1417L58.623 75.5107C59.6317 75.1327 60.1431 74.0086 59.7651 72.9999L55.1341 60.64C54.7562 59.6313 53.632 59.1199 52.6233 59.4979Z" fill="white"/>
<path d="M53.5816 60.6894L40.3023 65.6691L45.282 78.9484L58.5613 73.9686L53.5816 60.6894Z" fill="#599AF2"/>
<path opacity="0.47" d="M45.0721 79.2908L43.8635 76.0656L45.2181 72.3988C45.3203 72.119 45.5238 71.8877 45.7883 71.7508C46.0529 71.6139 46.3592 71.5814 46.6467 71.6597L49.4062 72.3988C49.4486 72.4103 49.4936 72.4072 49.5341 72.3899C49.5745 72.3726 49.6079 72.3423 49.6289 72.3037L51.7496 68.4378C51.9895 68.0041 52.3778 67.6715 52.8432 67.5011C53.3086 67.3306 53.8198 67.3338 54.283 67.51L56.8959 68.5142L58.9823 74.0805L45.0721 79.2908ZM44.5747 76.0637L45.462 78.4327L58.1232 73.6886L56.3765 69.0272L54.0446 68.1307C53.7321 68.0115 53.387 68.0092 53.0728 68.1243C52.7587 68.2394 52.4967 68.464 52.3351 68.7569L50.214 72.6228C50.1216 72.7925 49.9747 72.9262 49.797 73.0021C49.6193 73.078 49.4212 73.0918 49.2347 73.0413L46.4748 72.3018C46.348 72.267 46.2127 72.2813 46.0959 72.3417C45.979 72.4021 45.8892 72.5043 45.8443 72.628L44.5747 76.0637Z" fill="white"/>
<path opacity="0.47" d="M49.1829 68.57C48.8332 68.5705 48.4901 68.4751 48.1907 68.2944C47.8914 68.1136 47.6473 67.8543 47.4848 67.5447C47.3223 67.235 47.2477 66.8868 47.2691 66.5378C47.2905 66.1887 47.4071 65.8522 47.6061 65.5647C47.8052 65.2772 48.0791 65.0497 48.3983 64.9068C48.7175 64.764 49.0697 64.7113 49.4167 64.7543C49.7637 64.7974 50.0923 64.9347 50.3669 65.1513C50.6414 65.3679 50.8514 65.6555 50.9741 65.983C51.0826 66.2725 51.1194 66.5841 51.0813 66.8909C51.0431 67.1978 50.9313 67.4909 50.7553 67.7451C50.5793 67.9993 50.3443 68.2071 50.0705 68.3508C49.7967 68.4945 49.4921 68.5697 49.1829 68.57ZM49.1792 65.4062C48.9132 65.4064 48.6542 65.4916 48.44 65.6493C48.2258 65.807 48.0675 66.0291 47.9883 66.283C47.9091 66.537 47.913 66.8096 47.9996 67.0611C48.0861 67.3127 48.2507 67.53 48.4694 67.6815C48.6881 67.833 48.9495 67.9106 49.2154 67.9032C49.4813 67.8957 49.7379 67.8035 49.9478 67.64C50.1576 67.4765 50.3098 67.2503 50.3821 66.9943C50.4544 66.7383 50.4431 66.4659 50.3497 66.2168C50.2609 65.9782 50.1011 65.7726 49.8918 65.6276C49.6825 65.4827 49.4338 65.4054 49.1792 65.4062Z" fill="white"/>
</svg>
