<svg width="352" height="357" viewBox="0 0 352 357" fill="none" xmlns="http://www.w3.org/2000/svg">
<path
 d="M165.135 3.87219L165.618 4.2485L167.072 4.98206L168.731 6.34982L169.314 6.58864L169.772 6.52613L170.653 6.18798L171.096 6.11627L171.557 6.18798L171.849 6.34785L172.501 6.84258L173.405 7.21232L174.265 7.3235L177.925 7.07087L178.856 7.15903L179.703 7.37416L180.057 7.61956L180.825 8.37219L181.087 8.54587L181.537 8.42548L182.179 7.76561L184.093 7.41561L185.183 6.15245L186.241 4.60969L187.547 3.486L189.16 3.22877L190.354 3.4314L190.186 4.07416L190.308 4.29192L190.422 4.34653L190.507 4.41956L190.585 4.61166L190.61 4.68337L190.666 4.74127L190.739 4.78535L190.82 4.82482L190.887 4.88535L190.994 4.94324L191.042 5.05903V5.20706L190.721 5.85969L190.622 6.15377L190.599 6.33337L190.61 6.50048L190.673 6.75771L190.706 7.02548L190.772 7.15377L190.864 7.23271L190.997 7.27877L191.218 7.286L191.285 7.31364L191.34 7.37877L191.436 7.89192L191.44 8.06561L191.407 8.18732L191.016 8.35771L190.629 8.67153L190.352 8.95048L189.924 9.52614L189.814 9.77614L189.791 9.95179L189.954 10.261L189.88 10.3886L189.692 10.5307L189.231 10.7156L188.489 11.1136L188.29 11.2932L187.755 12.0525L187.622 12.2985L187.416 12.4926L187.128 12.6709L186.486 12.9761L186.18 13.0834L186.025 13.1906L186.087 13.3294L186.165 13.4268L186.154 13.5169L185.991 13.6255L184.656 14.1663L184.032 14.5268L183.826 14.7071L183.704 14.9728L183.549 15.4571L183.408 15.6788L183.243 15.8419L182.951 15.9156L182.464 16.1584L181.756 16.9518L180.631 16.6814L179.635 16.2853L177.133 15.838L176.724 15.7202L176.093 15.3702L175.924 15.3182L175.772 15.3077L175.658 15.3459L175.529 15.436L175.374 15.6025L175.266 15.7584L175.097 16.1255L175.064 16.2505L175.068 16.409L175.02 16.7801L174.891 17.136L174.802 17.4689L174.779 17.64L174.787 17.7959L174.801 17.9301L174.901 18.1413L174.919 18.265L174.963 18.3932L175.055 18.5367L175.42 18.8025L175.601 18.8972L175.815 18.9551L176.313 18.9761L176.59 19.0314L176.889 19.1932L177.494 19.388L177.715 19.4327L177.91 19.5202L178.025 19.6577L178.114 19.8623L178.158 20.086L178.187 20.3077L178.176 20.513L178.114 20.7301L177.815 21.3472L177.645 21.5353L177.483 21.6439L177.287 21.7222L177.262 21.8235L177.332 22.0886L177.351 22.2432V22.384L177.354 22.4939L177.377 22.6038L177.388 22.8275L177.421 22.9531L177.451 23.1156L177.439 23.3472L177.399 23.6261L177.24 24.1261L177.122 24.2518L176.989 24.259L176.863 24.1761L176.254 23.9735L175.926 24.0268L175.668 24.1676L175.55 24.3301L175.487 24.5557V24.8103L175.454 25.0268L175.354 25.2294L175.118 25.2419L174.609 25.1419L169.433 23.7452L168.293 23.1886L167.658 22.5985L166.581 21.8215L166.101 21.3084L165.544 20.8584L164.998 20.5676L163.64 20.4084L163.068 20.6025L162.566 20.9926L162.304 21.44L161.209 22.7728L160.161 24.5077L159.847 25.5149L159.523 26.3123L159.364 27.0163L158.826 27.3939L157.637 28.0123L156.202 28.1367L151.532 28.7801L148.606 30.4176L148.175 30.3176L147.651 30.3209L147.238 30.4038L146.899 30.6603L146.603 31.2011L146.297 30.5077L146.116 30.2189L145.85 29.9867L145.337 29.7182L145.042 29.6965L143.784 30.3268L143.412 30.3557L143.168 29.9867L143.257 29.6472L143.585 29.3827L144.386 29.0742L144.072 28.7472L143.792 28.661L143.504 28.6307L143.169 28.465L142.542 27.8952L141.457 26.6676L141.14 26.4314L140.708 26.3347L140.391 26.4242L140.196 26.6255L140.041 26.8261L139.867 26.9163L138.362 26.8886L137.79 26.5906L137.303 25.2301L136.702 24.7821L135.591 24.2044L134.876 24.4801L134.488 24.1248L134.654 23.6571L135.591 23.5946L135.199 22.8518L134.897 22.5196L134.816 22.1064L135.081 21.1281L134.487 20.9814L134.462 20.2623L134.627 19.3669L134.616 18.688L133.919 19.4893L133.295 19.5031L132.653 19.0261L131.295 17.6834L130.687 16.7222L130.196 15.6636L129.947 14.7117L129.96 14.7011L129.949 14.0518L129.747 13.5511L129.477 13.0946L129.249 12.565L130.842 12.3788L132.886 11.6998L135.959 11.1814L136.531 10.9248L136.652 10.6821L137.091 9.46429L141.566 2.91166L141.702 2.55772L141.747 2.24653L141.82 1.93074L142.041 1.56627L142.274 1.40377L144.037 0.685346L144.358 0.657715L144.786 0.709689L145.096 0.945215L145.251 1.71956L145.557 1.94587L148.508 2.92942L149.947 3.14258L151.467 2.61824L152.378 1.92548L153.747 1.34193L155.181 0.956399L156.292 0.85311L156.904 1.02745L161.595 3.56693L161.843 3.65772L162.139 3.69916L162.456 3.63666L162.791 3.29587L163.104 3.15114L163.765 3.05048L164.193 3.13995L165.135 3.87219Z" fill="#F4F6FB" stroke="#3F5AA9" stroke-linecap="round" stroke-linejoin="round"/>
<path d="M190.355 3.43164L191.034 3.54677L194.476 4.9823L195.277 5.50533L195.858 6.10927L196.28 6.88427L196.585 7.91256L196.764 8.8948L196.802 9.45401L196.756 9.89151L196.463 10.4159L196.109 10.579L195.701 10.6553L195.244 10.9237L194.647 11.7034L194.341 12.6112L194.318 13.5652L194.584 14.4902L196.023 17.7461L196.255 18.2139L196.576 18.477L198.059 18.8612L198.502 18.8264L198.837 18.5007L199.168 17.7527H199.172L199.177 17.7507V17.7461L199.73 16.7922L199.856 16.0909L200.14 15.5856L203.173 14.5869L204.114 14.0691L204.999 13.3685L205.862 12.2665L207.147 11.0553L208.533 10.0369L209.677 9.50204L210.343 9.47177L214.085 9.9994L214.801 10.3619L215.24 11.1336L214.755 12.4224L214.76 12.8619L215.045 13.6527L215.255 13.952L215.508 14.0691L215.776 14.152L216.033 14.3415L216.172 14.633L216.352 15.3145L216.517 15.5362L216.849 15.608L217.554 15.3882L217.899 15.3718L218.148 15.5126L218.554 15.956L219.332 16.3672L219.568 16.7691L219.509 17.254L219.118 17.7481L218.919 18.9395L219.122 19.7303L219.45 20.4586L219.62 21.4599L219.427 22.5349L218.935 23.333L217.668 24.8915L217.284 25.9928L217.564 26.7691L218.276 27.2461L219.206 27.458L220.312 27.3961L220.829 27.4836L221.275 27.8751L221.603 28.2691L221.972 28.5336L222.389 28.6672L222.854 28.681L223.452 29.008L223.979 29.7264L224.847 31.3277L225.227 32.2869L225.17 33.1191L224.476 34.7284L224.095 36.2468L224.062 37.1836L223.954 37.2685L223.512 37.4428L223.353 37.5507L223.281 38.258L223.8 38.9257L223.929 39.0369L223.927 39.0415L223.783 39.4626L223.588 39.8994L223.104 40.6336L222.706 40.9205L222.193 41.1145L220.961 41.0264L219.437 40.6441L218.707 40.6612L217.918 40.8369L216.066 41.7705L214.505 42.1856L212.874 42.4461L211.852 42.1455L211.262 42.0593L210.517 42.3034L209.425 43.1369L208.739 43.9402L208.34 44.5244L207.163 45.5691L207.152 46.5086L207.351 47.027L209.406 50.1698L209.752 49.7731L209.985 49.6014L210.361 49.6172L210.715 49.9145L212.504 52.0876L212.707 52.4211L212.806 52.7882L212.474 53.1652L211.644 53.5527L211.367 53.7639L211.183 54.1224L210.983 54.4231L210.706 54.702L209.939 55.3238L210.095 55.8836L210.287 56.2889L213.866 58.8448L214.681 59.1987L215.105 59.4783L215.449 59.7599L218.064 62.9277L219.189 63.9876L220.071 64.6099L222.491 65.8172L222.727 66.1086L222.779 66.2336L222.791 66.354L222.772 66.454L222.717 66.5553L222.639 66.8158L222.569 66.9389L222.34 67.1244L222.085 67.2165L221.705 67.2711L220.89 67.2481L220.551 67.1514L220.362 67.0283L220.296 66.9316L220.215 66.879L220.137 66.8178L219.972 66.6428L219.85 66.5698L219.676 66.5415L219.293 66.5948L219.171 66.579L218.95 66.481L218.824 66.4718L218.54 66.5277L218.437 66.5882L218.414 66.7053L218.802 67.4237L218.839 67.5329L218.639 67.8093L218.093 68.0007L217.75 68.3454L217.643 68.3783L217.554 68.3172L217.48 68.0797L217.443 67.4237L217.377 67.302L217.266 67.2132L217.133 67.1665L217.023 67.1711L216.872 67.3119L216.772 67.4534L216.713 67.5922L216.679 67.8849L216.65 68.0297L216.539 68.1277L216.374 68.1093L216.086 67.8797L215.953 67.679L215.798 67.506L215.639 67.4422L215.414 67.4237L215.112 67.5356L214.916 67.6652L214.714 67.7428L214.526 67.727L214.319 67.5481L214.138 67.2534L213.954 67.1987L213.677 67.1849L212.825 67.4487L212.618 67.4803L212.441 67.4507L212.308 67.2665L212.297 67.1382L212.304 67.0303L212.293 66.9257L212.231 66.8303L212.127 66.7619L211.972 66.7573L211.581 66.9849L211.449 67.008L211.304 66.8632L211.205 66.7198L211.039 66.6415L210.936 66.6244L210.283 66.9284L210.072 66.5547V66.131L209.962 65.9737L209.844 65.952L209.46 66.1422L209.295 66.256L209.191 66.402L209.058 66.7369L208.929 66.9533L208.631 67.2001L208.42 67.4244L208.276 67.6257L208.099 67.8172L207.955 67.7895L207.579 67.5435L207.439 67.5777L207.302 67.6764L207.28 67.8178L207.313 67.9658L207.357 68.1066L207.379 68.2566L207.313 68.4612L207.184 68.4876L207.048 68.402L206.819 68.0632L206.672 67.906L206.41 67.8106L206.196 67.8711L205.886 68.0487L205.724 68.0724L205.62 68.0152L205.524 67.8908L204.739 67.6441L203.975 68.0928L203.665 68.0955L203.219 68.0205L202.953 68.0527L202.765 68.1849L202.61 68.3395L202.41 68.4612L201.743 68.7494L201.621 68.8428L201.437 69.2231L201.329 69.2435L201.219 69.2152L201.06 69.1415L200.496 69.0481L200.285 68.9869L199.847 68.7619L199.71 68.7685L199.537 69.0441L199.33 69.2297L198.817 69.5086L198.466 69.5994L198.175 69.6198L197.968 69.5744L197.293 69.2284L196.511 69.0783L194.552 68.6935L193.954 68.8132L193.131 69.1343L192.611 70.5343L192.297 71.1869L191.965 71.3961L191.205 71.5369L189.87 71.5889L186.102 68.8856L185.295 68.5843L184.745 68.6876L184.387 69.6606L181.812 72.4626L179.627 74.3145L179.406 74.6928L179.432 74.9744L179.661 75.1757L180.447 76.0658L180.668 76.4632L180.812 76.8652L180.789 77.3553L180.487 77.756L180.026 78.1862L179.483 78.856L179.24 79.3698L179.041 80.4619L178.676 81.7724L178.322 82.2428L177.934 82.4027L177.174 82.4698L176.016 83.1724L174.824 83.2731L174.027 83.2527L173.544 83.4751L173.197 83.9501L172.78 85.2198L172.47 85.7395L171.906 86.0599L171.208 86.1744L169.681 86.2461L169.131 86.4178L168.422 87.054L168.06 87.1244L167.68 87.1106L166.931 86.9033L166.588 86.7415L164.979 85.7139L165.268 85.6323L165.352 85.5961L165.445 85.4593L165.485 85.2251L165.522 84.6882L165.674 84.1034L165.718 83.8211L165.736 83.4244L165.581 80.0112L165.455 79.3441L165.178 78.8244L164.956 78.5862L164.764 78.4777L164.599 78.4481L164.433 78.3797L164.337 78.2626L164.3 78.0889L164.399 77.8027L164.47 77.4586L164.326 76.9093L164.149 76.4882L163.979 76.2224L163.813 76.0362L163.717 75.8909L163.673 75.7264L163.817 75.4652L163.895 75.2731L164.127 74.0698L163.54 72.6849L163.496 72.4349L163.466 72.0619L163.606 71.5448L164.377 69.7652L164.566 69.4783L164.765 69.3553L165.02 69.3573L165.3 69.2968L165.562 69.0376L165.949 68.1533L166.27 65.0974L166.266 64.2784L166.145 63.9639L165.683 63.958L165.101 63.8816L164.72 63.4908L164.499 62.381L164.79 61.927L169.416 59.977L169.804 59.6119L170.309 58.8547L170.412 58.6277L170.456 58.4145L170.401 57.5428L170.412 57.2474L170.49 56.8764L171.254 55.4514L171.35 55.1632L171.431 54.8468L171.612 54.4527L171.737 54.3158L172.036 54.2724L172.729 53.758L173.139 52.8915L173.331 52.3757L173.519 52.0876L174.644 51.0619L174.965 50.6264L175.382 49.9047L175.666 49.5178L175.947 49.2593L176.754 48.9034L177.26 48.2981L177.54 48.1678L178.201 47.7422L178.776 47.2066L180.274 45.4027L180.883 44.3639L181.141 43.479L181.104 42.827L181.049 42.4224L180.894 42.0165L180.916 41.8494L181.016 41.7369L181.141 41.7257L181.54 41.7968L181.799 41.7994L182.056 41.7073L182.341 41.5487L182.676 41.2882L182.798 41.0751L182.842 40.8389V40.6461L182.827 40.4797L182.776 40.3224L182.695 40.1757L182.622 39.9816L182.599 39.5501L182.684 39.3619L182.831 39.2705L183.731 39.383L183.956 39.3751L184.277 39.2566L184.443 39.0086L184.517 38.731L184.483 38.1915L184.527 37.8691L184.62 37.7487L184.727 37.7303L184.841 37.8277L184.952 37.9481L185.048 38.104L185.229 38.1547L185.451 38.0836L185.952 37.7027L186.2 37.3777L186.554 37.0862L186.694 36.8797L186.793 36.7007L186.937 36.3185L187.841 35.281L188.14 35.0343L188.332 34.9356L188.428 35.0139L188.539 35.0553L188.708 35.0336L188.749 34.929L188.62 34.7198L188.576 34.5586L188.587 34.331L188.672 34.2514L188.743 34.2652L188.809 34.3882L188.85 34.5402L188.898 34.6645L189.008 34.7816L189.152 34.8665L189.326 34.9034L189.492 34.8816L189.687 34.8119L189.853 34.7869L190.012 34.7915L190.089 34.8395L190.112 34.9474L190.068 35.0955L189.997 35.2606L189.964 35.4343L189.997 35.5941L190.108 35.7251L190.344 35.8001L190.454 35.7448L190.51 35.5909L190.521 35.4185L190.576 35.1797L190.672 35.0685L190.794 35.0191L190.93 35.0343L191.059 35.0218L191.417 34.854L191.609 34.7941L191.79 34.8053L191.989 34.8619L192.118 34.9435L192.177 35.0283L192.166 35.1501L192.21 35.281L192.351 35.3468L192.72 35.279L193.174 34.879L193.789 34.4974L194.763 33.6145L195.036 33.4224L195.645 33.2132L196.209 32.3257L197.216 31.4231L198.493 29.7159L198.674 29.3244L198.692 29.1106L198.662 28.9474L198.596 28.8139L198.518 28.7402L198.437 28.729L198.352 28.7678L198.264 28.8553L198.183 28.8856L198.087 28.8415L197.873 28.3395L197.762 28.0099L197.39 27.6231L197.356 27.4205L197.324 27.0402L197.257 26.8626L197.062 26.6724L196.763 26.4915L196.162 26.0172L192.797 24.5343L192.543 24.3534L192.377 24.1665L192.255 23.9362L192.085 23.8211L191.964 23.7659L190.894 23.6645L190.566 23.5928L190.41 23.5987L190.252 23.6435L189.979 23.6757L189.846 23.5902L189.552 23.1185L189.519 22.9928L189.57 22.8731L189.604 22.6876L189.589 22.4797L189.36 22.1257L189.216 22.0014L189.062 21.9553L188.929 21.9902L188.346 22.0145L188.265 21.9303L188.269 21.8448L188.365 21.7823L188.509 21.7514L188.598 21.681L188.62 21.5553L188.454 21.2718L188.355 21.0514L188.311 20.8336L188.127 20.5599L187.913 20.3869L187.456 20.1494L186.958 19.7501L186.235 19.302L185.441 18.5277L185.253 18.3797L185.054 18.3251L184.847 18.3737L184.028 18.1915L181.759 16.9547L182.468 16.1612L182.954 15.9185L183.246 15.8448L183.412 15.6816L183.552 15.4599L183.707 14.9757L183.829 14.7099L184.035 14.5297L184.659 14.1691L185.995 13.6284L186.157 13.5198L186.168 13.4297L186.091 13.3323L186.028 13.1935L186.183 13.0862L186.489 12.979L187.131 12.6737L187.419 12.4955L187.626 12.3014L187.758 12.0553L188.293 11.2961L188.493 11.1165L189.234 10.7185L189.695 10.5336L189.883 10.3915L189.957 10.2639L189.795 9.95467L189.817 9.77901L189.927 9.52901L190.355 8.95335L190.632 8.6744L191.02 8.36059L191.41 8.19019L191.443 8.06848L191.439 7.8948L191.343 7.38164L191.288 7.31651L191.222 7.28888L191.001 7.28164L190.868 7.23559L190.776 7.15664L190.709 7.02835L190.676 6.76059L190.614 6.50335L190.602 6.33625L190.625 6.15664L190.724 5.86256L191.045 5.20993V5.0619L190.997 4.94612L190.89 4.88822L190.824 4.82769L190.743 4.78822L190.669 4.74414L190.614 4.68625L190.588 4.61454L190.51 4.42243L190.426 4.3494L190.311 4.2948L190.189 4.07703L190.355 3.43164Z" 
fill="#F4F6FB" stroke="#3F5AA9" stroke-linecap="round" stroke-linejoin="round"/>
<path d="M328.82 317.729L321.089 313.832L319.045 313.433H309.822L307.768 313.685L302.016 316.072L300.146 317.346L298.925 319.095L295.889 326.865L294.583 329.31L294.399 329.9L294.262 331.143L294.173 331.556L293.476 333.098L290.808 337.528L289.75 340.314L289.219 341.117L286.931 343.634L284.696 347.406L279.328 353.427L279.333 353.395L279.522 352.388L280.297 344.143L280.581 343.075L281.001 342.14L282.318 339.85L282.47 338.797L282.503 333.537L282.945 329.387L285.864 313.8L285.871 312.622L285.76 311.562L285.547 310.735L285.237 309.958L281.728 304.833L281.271 303.79L280.968 302.623L280.393 298.798L279.799 296.237L291.453 293.037L292.106 293.06L297.057 293.964L298.138 293.762L298.356 292.6L298.16 289.57L298.212 288.643L298.433 287.459L299.341 282.759L299.791 274.1L299.485 270.643L299.879 268.079L300.547 267.037L301.274 266.423L302.514 265.838L307.465 264.543L309.074 264.41L314.168 264.918L319.116 266.187L319.128 266.19L319.003 276.273L330.733 276.275L331.115 276.507L331.229 277.041L331.108 297.045L331.163 298.316L334.941 298.858L335.339 298.995L335.708 299.225L336.306 299.871L336.764 300.684L337.085 301.587L337.378 303.408L337.535 303.804L337.821 304.107L338.218 304.285L338.638 304.349L339.07 304.332L340.376 304.112L340.826 304.133L341.257 304.28L341.591 304.566L342.316 305.779L343.464 307.089L344.851 308.361L345.085 308.711L345.268 309.131L345.337 309.577L345.245 310.017L344.985 310.373L344.642 310.683L344.362 311.026L344.284 311.485L344.354 311.77L344.801 312.728L345.513 313.536L345.716 313.96L345.814 314.031L346.466 316.081L346.539 316.618L346.856 317.421L347.022 317.692L347.255 317.928L347.749 318.32L348.28 318.644L349.385 318.959L349.636 319.073L349.628 319.097V319.285L350.49 319.273L350.644 319.68L350.203 320.17L349.261 320.409L345.383 320.017L342.655 319.07L341.374 318.117L340.128 317.728L338.15 316.47L336.599 315.931L334.934 315.624L333.406 315.597L332.047 315.96L329.574 317.312L329.322 316.228L329.199 314.979L328.955 313.837L328.354 313.063L328.793 314.406L328.842 314.909L328.755 315.443L328.601 315.943L328.572 316.385L328.842 316.751L328.82 317.729Z" fill="#F4F6FB" stroke="#3F5AA9" stroke-linecap="round" stroke-linejoin="round"/>
<path d="M279.326 353.428L278.29 354.589L276.726 354.923L275.165 355.256L274.538 355.39L273.605 355.589L272.044 355.921L268.285 355.581L265.564 355.335L262.843 355.086L260.128 354.84L257.405 354.593L253.749 354.262L250.089 353.93L246.43 353.597L242.772 353.266L239.114 352.936L235.454 352.602L231.798 352.272L228.138 351.938L225.295 351.681L222.457 351.422L219.616 351.166L216.768 350.904L213.503 350.61L213.268 350.521L213.045 350.43L212.816 350.339L212.587 350.252L209.841 348.034L206.445 345.281L203.037 342.529L199.634 339.772L196.233 337.016L192.145 333.699L188.058 330.381L183.968 327.06L181.61 325.144L182.068 324.349L189.905 310.595L196.332 292.043L197.601 289.514L199.065 287.597L199.626 287.03L201.393 285.739L203.547 284.832L203.791 284.661L205.528 281.936L206.919 280.298L208.576 278.786L210.276 275.764L211.139 273.765L213.84 259.048L219.92 263.54L222.812 265.1L223.565 260.753L225.805 254.62L226.915 252.434L227.465 250.928L227.52 250.301L226.731 249.934L226.491 249.515L226.325 249.029L226.103 248.656L225.86 248.51L225.225 248.273L224.882 248.083L224.476 247.666L225.303 247.571L231.08 246.182L231.445 245.55L234.013 245.635L242.724 247.35L249.043 249.428L250.567 249.408L251.342 249.148L251.637 248.827L252.766 250.133L252.966 250.748L252.922 250.948L252.899 251.535L252.951 252.093L252.918 252.4L252.84 252.604L252.7 252.661L252.545 252.624L252.187 252.341L251.999 252.223L251.799 252.147L251.597 252.302L251.42 252.629L251.195 253.534L251.206 253.91L251.328 254.152L251.516 254.226L251.722 254.275L251.925 254.55L252.113 255.027L252.357 256.306L252.401 256.86L252.279 257.343L249.822 260.436L249.427 261.206L249.519 261.792L250.519 261.969L252.485 262.053L250.434 266.914L250.032 268.256L250.117 268.702L250.807 268.984L250.944 269.137L251.368 269.478L251.657 269.611L251.87 269.716L251.989 270.14L251.945 270.87L251.734 272.151L251.483 272.58L251.045 272.648L250.325 272.391L249.783 272.452L249.51 273.016L249.34 274.084L249.145 274.852L248.997 276.089L248.791 277L249.285 282.811L266.805 285.11L272.542 287.138L275.818 292.564L277.294 295.606L277.678 296.143L278.143 296.502L278.618 296.522L279.799 296.239L280.393 298.8L280.968 302.625L281.271 303.792L281.728 304.835L285.237 309.96L285.547 310.737L285.76 311.564L285.871 312.624L285.864 313.802L282.945 329.389L282.503 333.539L282.47 338.799L282.318 339.852L281.001 342.142L280.581 343.077L280.297 344.145L279.522 352.39L279.333 353.397L279.326 353.428Z" fill="#F4F6FB" stroke="#3F5AA9" stroke-linecap="round" stroke-linejoin="round"/>
<path d="M223.928 39.0391L224.492 39.5266L224.949 40.0246L224.982 40.6535L225.211 41.018L225.517 41.3141L225.803 41.7404L225.975 42.316L226.034 42.7542L226.167 43.1575L226.576 43.6272L227.543 44.0831L228.583 44.0009L230.582 43.2009L231.486 43.2674L232.113 44.0627L232.497 45.1739L232.67 46.2002L232.76 48.1101L233.008 48.8812L233.678 49.7391L232.814 50.2996L233.018 50.8325L233.682 51.3542L234.202 51.8713L234.368 52.7193L234.279 54.7601L234.46 55.6897L235.566 57.1331L236.02 58.0259L235.873 58.9114L235.434 59.6121L234.995 60.52L234.785 61.4299L235.017 62.141V62.1476L235.021 62.1522L235.028 62.1542L235.655 62.8016L236.422 62.9088L237.216 62.6397L237.92 62.1542L237.922 62.1522H237.932L237.935 62.1496L237.943 62.143L238.578 61.9654L239.762 61.3746L240.695 61.3588L241.486 61.6489L242.862 62.1542L244.182 63.3785L244.643 63.67L245.613 63.8549L246.678 64.8345L248.332 67.1851L249.243 69.4562L249.682 70.0364L250.324 70.2187L251.671 69.8114L252.07 69.893L252.651 70.291L253.385 70.2391L254.075 69.8956L254.94 69.1516L255.303 69.1674L255.67 69.2858L256.039 69.3246L257.187 68.9266L259.459 69.0312L260.175 68.797L260.865 68.4009L261.441 68.1825L262.031 68.1937L263.13 68.6147L263.39 68.6581L263.562 68.8154L263.739 69.7141L263.892 70.0187L264.11 70.2621L264.401 70.5035L265.121 70.8127L265.887 70.7831L267.403 70.4509L268.08 70.2009L268.691 69.7733L269.329 69.4568L270.1 69.5338L270.694 69.9595L270.96 70.5483L270.888 71.2371L270.471 71.9555L269.905 72.4674L268.82 73.1608L268.333 73.8812L267.776 74.4174L267.03 74.5035L265.628 74.4239L263.839 75.3779L263.105 75.5483L260.607 75.4713L259.873 75.7279L259.419 76.2318L259.137 76.9285L259.011 77.6983L259.009 78.422L259.356 80.1101L259.257 80.716L258.166 80.3825H257.995L257.832 80.4279L258.142 81.3147L258.542 82.1489L258.68 82.3325L258.732 82.5187L258.684 82.6976L258.542 82.872L258.26 83.0897L258.072 83.3779L257.983 83.7312L257.998 84.1364L258.462 85.4003L260.746 89.0693L262.72 90.8384L263.572 91.8285L263.83 93.1167L263.755 93.295L263.568 93.7358L263.125 94.2667L262.808 94.8226L262.904 95.5114L263.402 95.8595L264.785 95.8463L265.324 96.3002L265.189 97.4496L264.416 98.7746L263.937 100.006L264.674 100.87L264.39 101.398L264.007 101.605L263.564 101.693L262.656 101.995L262.018 101.826L261.658 101.864L260.701 102.444L260.177 102.935L259.61 103.082L258.541 102.617L258.082 102.654L257.712 102.5L256.96 102.011L256.432 101.829L256.183 101.93L255.69 102.746L255.653 102.951L255.753 103.487L255.679 103.692L255.465 103.803L254.963 103.852L254.729 103.931L254.351 104.307L254.177 104.81L254.17 105.386L254.273 105.981V105.988L254.603 107.115L254.509 107.934L254.207 108.729L253.934 109.795L253.391 110.519L252.428 110.184L252.006 109.958L251.777 109.472L251.437 105.476L251.482 105.177L251.566 105.105L251.666 105.123L251.939 105.096L252.083 105.111L252.241 105.172L252.382 105.201L252.559 105.198L252.717 105.158L252.857 105.106L252.968 105.034L252.584 104.409L250.142 101.809L249.943 101.494L249.777 101.32L249.504 101.084L249.268 100.936L249.035 100.941L248.825 101.077L248.508 101.421L248.46 101.647L248.43 101.942L248.297 102.165L248.105 102.438L247.722 102.889L247.537 103.173L247.39 103.525L247.294 103.689L247.007 103.827L246.907 103.89L246.804 103.986L246.716 104.031L246.66 104.004L246.653 103.917L246.66 103.79L246.631 103.696L246.55 103.615L246.432 103.663L246.296 103.802L246.078 104.199L245.986 104.432L246.009 104.778L246.101 104.877L246.2 104.9L246.318 104.851L246.395 104.831L246.451 104.902L246.41 105.042L246.255 105.365L245.952 105.556L245.808 105.737L245.686 106.361L245.335 106.671L245.413 106.931L245.516 106.961L245.856 106.988L245.989 107.015L246.096 107.069L246.151 107.146L246.162 107.241L246.155 107.365V107.479L246.063 107.756L245.875 108.157L245.053 109.478L244.761 109.874L243.843 110.713L243.735 110.722L243.617 110.697L243.507 110.711L243.414 110.798L243.385 111.03L243.314 111.246L243.16 111.515L242.809 111.899L242.54 112.563L242.418 113.071L242.12 113.871L242.068 114.051L241.991 114.188L241.78 114.286L241.607 114.431L241.441 114.652L240.976 115.883L240.585 116.584L240.456 116.9L240.378 117.138L240.374 117.27L240.334 117.448L240.33 117.607L240.341 117.754L240.374 117.87L240.397 117.986L240.378 118.11L240.286 118.436L240.197 118.648L239.788 119.353L239.67 119.757L239.659 119.884L239.625 120L239.452 120.221L239.197 120.432L238.534 120.808L238.168 120.955L237.855 121.029L237.634 121.034L237.276 121.115L237.143 121.127L236.877 121.106L236.401 121.52L232.512 126.208L231.343 126.904L231.243 126.232L231.177 126.029L231.085 125.896L230.941 125.871L230.83 125.869L230.701 125.852L230.424 125.76L230.321 125.674L230.236 125.482L230.232 125.315L230.491 124.84L230.59 124.553L230.645 124.288L230.653 124.05L230.623 123.832L230.409 123.185L230.365 122.924L230.354 122.671L230.402 122.467L230.501 122.274L230.996 121.721L231.155 121.492L231.21 121.325V121.139L230.808 120.032L230.609 119.044L230.576 118.746L230.568 118.544L230.591 118.332L230.587 118.061L230.435 117.082L230.336 115.546L230.214 115.152L229.916 114.686L229.639 114.342L229.155 113.929L228.801 113.743L228.355 113.598L227.595 113.507L227.186 113.549L226.869 113.638L226.035 114.132L225.829 114.195L225.585 114.139L225.357 113.964L225.013 113.502L224.272 112.757L222.372 111.506L222.283 108.41L222.401 107.825L222.424 107.627L222.39 107.461L222.301 107.272L221.87 106.751L218.8 104.592L217.464 104.349L213.557 104.182L212.945 104.404L212.141 104.182L211.554 103.906L207.953 100.108L209.536 98.7667L212.318 97.8891L212.694 97.52L212.793 97.1555L212.55 96.5529L212.495 96.2292L212.517 95.8555L212.657 95.4581L213.022 94.9068L213.454 94.6042L213.782 94.4213L214.048 94.3397L214.174 94.1456L214.273 93.8766L214.372 93.2891L214.76 92.3621L214.911 91.6851L214.771 91.0325L214.55 90.2943L214.447 89.6463L214.716 88.7897L216.018 87.0187L216.383 86.2818L216.567 85.6693L216.526 85.1687L215.84 84.2239L215.08 83.3654L214.837 82.9259L214.748 82.495L214.877 81.2331L214.987 79.6555L215.132 79.143L215.209 78.0206L215.353 77.5575L215.959 76.4687L215.925 75.7331L215.63 74.8621L213.973 73.3851L213.158 72.268L212.251 71.2746L210.28 66.9285L210.934 66.6246L211.037 66.6417L211.203 66.72L211.302 66.8634L211.446 67.0081L211.579 66.9851L211.97 66.7575L212.125 66.7621L212.228 66.8305L212.291 66.9259L212.302 67.0305L212.295 67.1384L212.306 67.2667L212.439 67.4509L212.616 67.4805L212.822 67.4489L213.674 67.1851L213.951 67.1989L214.135 67.2535L214.316 67.5483L214.523 67.7272L214.711 67.743L214.914 67.6654L215.109 67.5358L215.412 67.4239L215.637 67.4424L215.795 67.5062L215.951 67.6792L216.084 67.8799L216.371 68.1095L216.537 68.1279L216.647 68.0299L216.677 67.8851L216.71 67.5924L216.77 67.4535L216.869 67.3121L217.02 67.1713L217.131 67.1667L217.264 67.2134L217.374 67.3022L217.441 67.4239L217.478 68.0799L217.551 68.3174L217.64 68.3785L217.747 68.3456L218.091 68.0009L218.637 67.8095L218.836 67.5331L218.799 67.4239L218.412 66.7055L218.434 66.5884L218.537 66.5279L218.822 66.472L218.947 66.4812L219.168 66.5792L219.29 66.595L219.674 66.5417L219.847 66.57L219.969 66.643L220.135 66.818L220.212 66.8792L220.293 66.9318L220.36 67.0285L220.548 67.1516L220.887 67.2483L221.703 67.2713L222.083 67.2167L222.337 67.1246L222.566 66.9391L222.637 66.816L222.714 66.5555L222.77 66.4542L222.788 66.3542L222.777 66.2338L222.725 66.1088L222.489 65.8174L220.068 64.6101L219.187 63.9877L218.062 62.9279L215.446 59.7601L215.103 59.4785L214.678 59.1989L213.863 58.845L210.284 56.2891L210.092 55.8838L209.937 55.3239L210.704 54.7022L210.981 54.4233L211.18 54.1226L211.364 53.7641L211.641 53.5529L212.472 53.1654L212.804 52.7884L212.705 52.4213L212.502 52.0878L210.712 49.9147L210.359 49.6174L209.982 49.6016L209.75 49.7733L209.403 50.17L207.349 47.0272L207.149 46.5088L207.16 45.5693L208.337 44.5246L208.736 43.9404L209.422 43.1371L210.514 42.3035L211.26 42.0595L211.85 42.1456L212.872 42.4463L214.503 42.1858L216.063 41.7706L217.915 40.8371L218.705 40.6614L219.435 40.6443L220.959 41.0266L222.191 41.1147L222.703 40.9206L223.102 40.6338L223.585 39.8996L223.781 39.4627L223.925 39.0417L223.928 39.0391Z" fill="#F4F6FB" stroke="#3F5AA9" stroke-linecap="round" stroke-linejoin="round"/>
<path d="M252.009 109.96L251.369 109.62L250.543 109.66L250.307 110.497L250.377 111.601L250.196 112.662L249.207 113.352L248.191 113.46L247.739 113.649L247.388 114.143L247.276 114.664L247.359 115.543L247.248 116.041L246.256 117.184L245.983 117.885L246.514 118.491L246.809 118.659L247.13 118.91L247.392 119.224L247.518 119.579L247.628 120.041L247.803 120.303L247.986 120.516L248.134 120.819L248.246 121.639L248.262 122.455L248.377 123.19L248.776 123.752L248.881 124.035L248.872 124.498L248.776 124.96L248.63 125.24L248.418 125.285L247.633 125.007L245.18 124.812L244.076 124.546L242.851 123.898L241.46 123.489L241.313 124.678L241.61 126.431L241.561 127.714L241.391 128.058L241.188 128.371L240.956 128.643L240.697 128.88L238.823 129.302L238.476 129.871L239.58 133.43L240.037 134.365L240.697 134.854L241.409 134.281L242.206 134.277L242.944 134.748L243.492 135.597L243.687 136.577L243.616 137.643L243.14 139.721L242.963 140.11L242.461 140.927L242.389 141.326L242.561 141.818L242.823 142.192L243.028 142.563V143.043L242.664 143.53L241.222 144.716L240.698 145.279L239.828 146.045L239.426 147.001L239.125 148.1L238.581 149.297V149.301H238.574L238.278 149.607L237.932 149.845L237.168 150.192L237.906 151.229L238.716 151.689L239.643 151.748L240.699 151.585L240.787 151.598L240.865 151.634L240.932 151.694L244.108 157.486L244.587 158.02L245.137 158.482L245.606 158.999L245.862 159.712L246.016 160.581L246.263 161.339L246.621 162.037L247.108 162.733L247.65 163.275L249.332 164.488L249.458 164.82L249.578 165.136L249.568 166.66L249.812 166.958L250.436 166.802L251.022 166.41L252.061 165.407L252.712 165.129L254.447 165.102L255.218 164.91L255.078 166.227L255.709 166.872L256.465 167.393L256.716 168.341L256.277 168.986L254.584 170.023L254.026 170.76L254.639 171.285L255.697 171.533L256.778 171.397L257.439 170.765L257.616 170.666L257.795 170.631L257.978 170.667L258.02 170.693L257.423 171.37L256.855 172.342L256.722 172.615L256.293 174.147L256.035 174.472L255.652 174.775L254.81 175.286L254.382 175.457L254.08 175.535L253.884 175.544L253.67 175.621L253.386 175.756L251.715 176.991L251.335 177.454L251.036 177.739L250.616 178.003L250.074 178.254L249.918 178.27L249.782 178.237L249.635 178.169L249.487 178.131L249.325 178.21L249.122 178.428L248.724 179.041L247.476 180.541L247.134 181.04L246.901 181.503L246.757 182.097L246.425 182.995L245.949 183.698L245.016 184.84L244.197 186.077L243.949 186.339L242.58 187.502L242.005 188.12L241.559 188.704L241.149 188.934L240.858 189.05L238.784 188.44L227.595 185.208L224.13 185.595L222.876 185.498L218.762 184.489L217.692 184.434L216.995 184.991L216.201 185.963L215.416 187.127L213.866 188.325L213.232 188.953L212.899 189.462L213.099 189.928L213.213 190.127L213.42 190.77L213.257 190.836L212.851 191.175L212.475 191.322L212.069 191.304L211.667 191.175L211.298 190.988L210.97 190.764L210.693 190.508L210.464 190.197L210.276 189.811L209.966 188.977L209.748 188.575L209.493 188.704L209.239 189.309L208.885 190.418L208.531 191.011L208.358 191.428L208.221 191.688L208.066 191.801L207.966 191.85L207.173 191.606L207.384 191.014L207.398 189.355L207.265 188.456L206.985 187.404L206.347 185.771L205.901 184.866L205.915 184.362L205.97 182.518L206.314 182.013L206.424 181.904L206.645 181.637L206.689 181.471L206.674 181.289L206.534 180.989L206.453 180.631L206.701 179.948V180.335L206.612 180.467L206.623 180.585L206.752 180.595L206.922 180.489L207.032 180.205L207.117 179.889L207.076 178.598L207.028 177.331L207.209 176.916L207.242 176.402L207.264 176.302L207.287 176.239L207.264 176.115L207.072 175.515L206.984 175.127L206.932 174.643L206.785 174.448L206.663 174.33L205.541 175.191L204.21 174.01L203.498 173.62L203.144 173.549L200.587 173.443L200.381 173.406L200.137 173.7L199.669 175.204L197.813 175.712L197.706 175.741L196.632 173.37L198.536 170.61L199.067 169.971L199.901 169.194L200.524 168.737L201.926 167.481L202.225 166.372L202.335 165.308L201.926 164.322L202.454 162.002L202.598 161.687L203.096 160.89L203.1 160.702L203.011 160.527L202.303 159.809L202.062 159.502L201.878 159.139L201.789 158.75L201.793 158.358L201.863 157.967L202.527 156.129L203.748 154.21L203.959 153.458L203.992 152.655L203.878 151.831L203.601 151.161L203.176 150.624L201.524 149.125L201.203 148.987L200.985 148.893L200.033 148.75L199.055 148.866L198.768 148.949L198.513 148.979L198.343 148.943L198.233 148.831L198.226 148.474L198.248 148.266L198.647 147.693L198.743 147.156L199.001 146.447L198.953 146.234L198.765 145.938L198.824 145.797L199.588 145.263L199.728 145.123L199.813 144.849L199.817 144.67L199.769 144.519L199.507 144.058L199.463 143.895L199.53 143.743L199.674 143.619L199.969 143.548L200.389 143.535L200.467 143.483L200.511 143.364L200.478 142.34L200.405 142.182L200.327 142.07L200.323 141.964L200.449 141.873L200.777 141.8L201.209 141.822L201.364 141.762L201.511 141.628L201.614 141.352L201.759 141.112L201.88 140.959L202.091 140.923L202.157 141.018L202.168 141.142L202.08 141.346L202.091 141.41L202.158 141.456L202.272 141.468L202.383 141.4L202.46 141.272L202.549 140.921L202.693 140.608L203.434 139.507L203.574 139.411L203.891 139.297L204.301 139.278L204.426 139.257L204.548 139.183L204.688 139.072L204.835 138.988L204.946 139.008L205.145 139.235L205.256 139.322L205.355 139.281L205.429 139.103L205.422 138.313L205.488 138.074L205.757 137.896L205.934 137.832L206.06 137.724L206.089 137.554L205.993 136.697L206.48 136.375L206.067 135.857L205.812 135.716L205.539 135.494L205.211 135.119L205.012 134.829L204.912 134.581V134.393L205.189 133.958L205.543 133.187L205.784 132.38L205.802 132.031L205.68 131.602L205.595 131.39L205.555 131.233L205.795 130.979L205.88 130.84L206.001 130.437L206.068 130.29L206.09 130.173L205.983 130.093L205.872 130.107L205.673 130.232L205.555 130.259L205.418 130.232L205.345 130.152V130.027L205.51 129.828L205.588 129.708L205.607 129.608L205.488 129.536L205.399 129.565L205.31 129.637L205.244 129.675L205.218 129.606L205.244 129.445L205.41 129.151L205.55 129.035L205.716 129L205.856 128.987L206.199 128.878L206.321 128.764L206.358 128.6L206.199 128.258L206.066 128.12L205.934 128.062L205.837 128.064L205.793 128.019L205.837 127.905L206.266 127.516L206.355 127.189L206.369 126.947L205.827 125.543L205.849 125.137L205.883 124.97L205.961 124.733L206.378 124.188L206.525 124.11L206.842 124.289L207.551 124.587L208.101 124.717L208.414 124.867L208.802 125.122L210.105 126.304L210.293 126.42L210.4 126.406L210.581 125.886L210.813 125.452L211.208 124.981L211.816 124.457L212.403 124.056L212.912 123.564L213.362 122.947L213.923 121.75L213.978 121.114L213.86 120.604L213.691 120.347L213.539 120.072L213.466 119.804V119.55L213.635 119.268L213.978 118.954L214.709 118.538L215.716 118.239L216.155 118.05L216.664 117.633L217.354 116.922L217.834 116.118L217.981 115.639L217.955 115.277L217.914 114.998L217.937 114.711L218.169 114.37L218.586 114.037L219.516 113.673L220.689 113.067L222.378 111.51L224.278 112.762L225.02 113.506L225.363 113.968L225.592 114.143L225.835 114.199L226.042 114.136L226.876 113.642L227.193 113.553L227.602 113.512L228.362 113.602L228.808 113.747L229.162 113.933L229.645 114.346L229.922 114.691L230.221 115.156L230.343 115.55L230.442 117.087L230.593 118.065L230.597 118.337L230.575 118.548L230.582 118.75L230.615 119.048L230.814 120.037L231.216 121.143V121.329L231.161 121.497L231.003 121.725L230.508 122.278L230.409 122.471L230.36 122.675L230.372 122.928L230.416 123.189L230.63 123.837L230.659 124.054L230.652 124.293L230.597 124.557L230.497 124.844L230.239 125.319L230.243 125.487L230.328 125.678L230.431 125.764L230.708 125.856L230.837 125.873L230.947 125.875L231.091 125.9L231.184 126.033L231.25 126.237L231.349 126.908L232.519 126.212L236.408 121.524L236.884 121.11L237.149 121.131L237.282 121.119L237.64 121.038L237.861 121.033L238.175 120.959L238.54 120.812L239.204 120.437L239.459 120.225L239.632 120.004L239.665 119.888L239.676 119.761L239.795 119.357L240.204 118.652L240.293 118.441L240.385 118.114L240.403 117.991L240.381 117.874L240.347 117.758L240.336 117.612L240.34 117.452L240.381 117.274L240.385 117.143L240.462 116.904L240.591 116.588L240.982 115.887L241.447 114.656L241.613 114.435L241.787 114.291L241.997 114.192L242.075 114.055L242.126 113.875L242.425 113.075L242.547 112.568L242.816 111.903L243.166 111.52L243.321 111.25L243.391 111.034L243.421 110.802L243.513 110.715L243.624 110.701L243.742 110.726L243.849 110.717L244.768 109.878L245.059 109.482L245.882 108.161L246.07 107.76L246.162 107.483V107.368L246.169 107.245L246.158 107.15L246.103 107.072L245.995 107.018L245.862 106.991L245.523 106.964L245.42 106.934L245.342 106.675L245.693 106.364L245.814 105.741L245.959 105.559L246.261 105.369L246.416 105.046L246.457 104.905L246.402 104.834L246.324 104.854L246.207 104.903L246.107 104.881L246.015 104.781L245.993 104.435L246.085 104.202L246.303 103.806L246.439 103.667L246.557 103.618L246.637 103.699L246.667 103.794L246.66 103.92L246.667 104.008L246.722 104.035L246.81 103.99L246.914 103.893L247.013 103.83L247.301 103.693L247.397 103.528L247.544 103.177L247.728 102.893L248.112 102.442L248.304 102.169L248.437 101.946L248.466 101.65L248.514 101.425L248.832 101.081L249.042 100.945L249.274 100.94L249.51 101.088L249.784 101.323L249.949 101.497L250.149 101.813L252.591 104.412L252.974 105.037L252.864 105.11L252.724 105.162L252.565 105.201L252.388 105.204L252.248 105.175L252.089 105.115L251.945 105.099L251.672 105.126L251.573 105.108L251.488 105.181L251.444 105.479L251.784 109.475L252.009 109.96Z" fill="#F4F6FB" stroke="#3F5AA9" stroke-linecap="round" stroke-linejoin="round"/>
<path d="M258.015 170.692L258.15 170.767L258.262 170.83L258.372 170.914L259.57 172.418L259.976 173.156L260.264 173.964L260.373 174.833L260.393 175.546L260.577 176.169L261.773 177.327L263.193 179.341L264.329 180.263L264.828 180.771L265.145 181.491L265.152 181.93L264.936 182.749L264.912 183.098L265.071 183.495L265.484 183.758L265.506 184.143L265.252 184.69L264.761 185.291L263.798 186.25L263.045 186.82L262.466 186.936L261.869 186.89L261.083 186.96L260.366 187.362L260.331 187.881L260.829 188.309L262.397 188.489L263.068 188.775L263.583 189.236L263.787 189.82L263.549 190.543L263.02 191.094L262.426 191.577L261.987 192.098V192.104L262.747 193.808L264.837 194.061L269.045 193.588L272.835 194.767L276.394 196.467L277.394 197.477L280.724 199.411L280.17 200.386L279.838 200.804L279.045 201.362L278.779 201.77L276.458 208.825L276.237 210.854L276.281 213.431L276.237 213.885L276.116 214.315L275.997 214.924L275.887 215.188L275.393 215.967L275.172 216.45L275.135 216.825L275.449 217.155L276.031 217.633L276.197 217.886L276.337 218.225L276.285 218.59L274.784 222.911L274.585 223.673L274.695 224.305L275.356 224.837L279.709 226.725L280.406 227.775L280.835 228.556L279.876 234.881L279.123 234.972L277.776 234.629L276.492 233.965L275.068 233.793L270.615 233.961L261.34 233.994L260.152 234.401L259.968 234.567L259.835 234.887L259.676 234.971L259.418 234.979L258.864 234.871L258.532 234.769L258.218 234.74L257.923 234.835L256.687 235.765L256.517 235.802L256.34 235.67L256.244 235.563L256.152 235.524L256.056 235.569L255.897 235.746L255.757 235.826L255.617 235.836L255.451 235.7L255.259 235.696L253.072 236.615L249.493 236.385L247.81 232.479L247.792 232.214L247.925 232.021L248.187 231.796L248.076 231.286L245.616 230.558L243.365 229.723L242.797 229.351L242.453 228.831L242.014 228.038L241.361 227.159L237.812 223.798L237.277 223.174L237.085 222.54L237.174 221.942L237.646 220.806L237.705 220.408L237.576 220.058L236.791 219.821L236.381 219.19L233.862 218.888L232.965 218.504L232.736 217.831L230.67 217.55L230.611 216.671L230.512 215.344L230.051 215.337L227.918 215.242L227.321 215.068L226.745 214.666L226.059 213.975L225.435 213.184L224.041 210.035L222.513 204.956L222.292 204.495L221.808 203.961L221.299 203.554L220.381 203.034L219.222 202.542L219.034 202.218L218.724 202.115L217.422 201.99L215.618 201.416L213.349 200.113L213.105 200.056L208.051 199.696L207.833 199.614L207.663 199.481L207.416 199.248L207.179 198.576L206.962 197.529L206.84 193.218L206.571 191.95L207.169 191.607L207.962 191.851L208.062 191.802L208.217 191.688L208.354 191.429L208.527 191.011L208.881 190.419L209.235 189.309L209.489 188.704L209.744 188.575L209.962 188.977L210.272 189.811L210.46 190.198L210.689 190.509L210.966 190.764L211.294 190.988L211.663 191.175L212.065 191.304L212.471 191.323L212.847 191.175L213.253 190.836L213.416 190.771L213.209 190.128L213.095 189.929L212.895 189.462L213.228 188.954L213.862 188.325L215.412 187.127L216.197 185.963L216.991 184.992L217.688 184.434L218.758 184.49L222.872 185.499L224.126 185.595L227.591 185.208L238.78 188.44L240.854 189.051L241.145 188.934L241.554 188.704L242.001 188.121L242.576 187.503L243.945 186.339L244.193 186.077L245.012 184.84L245.945 183.699L246.421 182.996L246.753 182.097L246.897 181.504L247.129 181.04L247.472 180.542L248.72 179.041L249.118 178.429L249.321 178.21L249.483 178.132L249.631 178.169L249.778 178.238L249.914 178.271L250.07 178.254L250.612 178.004L251.032 177.74L251.331 177.455L251.711 176.991L253.382 175.756L253.666 175.621L253.88 175.544L254.076 175.536L254.378 175.458L254.806 175.286L255.648 174.776L256.031 174.472L256.289 174.147L256.718 172.615L256.851 172.342L257.419 171.371L258.015 170.692Z" fill="#F4F6FB" stroke="#3F5AA9" stroke-linecap="round" stroke-linejoin="round"/>
<path d="M280.723 199.408L280.859 199.486L282.499 200.815L284.838 202.232L286.318 203.921L297.064 213.317H297.072L297.074 213.32L298.214 214.16L299.3 214.731L300.425 214.979L301.683 214.844L302.314 214.604L303.948 213.698L304.45 213.731L306.472 214.427L307.235 214.831L307.691 215.36L308.091 216.012L308.691 216.781L309.645 217.512L309.844 217.821L309.899 218.31L309.77 218.587L309.571 218.821L309.257 219.605L309.113 219.765L309.108 219.975L309.346 220.546L309.51 220.788L310.575 221.806L310.743 222.038L310.877 222.273L311.508 223.151L311.737 223.392L312.084 223.563L312.276 224.1L312.972 224.632L313.158 225.178L313.102 225.767L312.912 226.177L312.7 226.547L312.56 227.005L312.486 227.593L312.519 227.927L312.762 228.116L313.322 228.277L313.781 228.569L314.068 229L314.385 229.362L314.924 229.43L315.614 229.717L315.692 229.829L316.22 230.59L317.033 232.425L317.581 233.054L318.829 233.665L319.181 234.411V234.418L319.349 235.16L320.626 237.456L320.869 237.792L321.514 238.216L321.787 238.47L321.987 238.85L322.171 239.586L322.298 239.904L322.872 240.544L324.279 241.606L324.768 242.358L324.867 243.25L324.654 244.2L319.214 259.033L319.126 266.192L319.113 266.189L314.166 264.92L309.071 264.412L307.462 264.546L302.511 265.84L301.272 266.425L300.545 267.039L299.877 268.082L299.482 270.645L293.229 270.2L289.477 270.258L288.079 269.526L287.585 269.046L286.039 267.796L285.791 267.47L285.662 267.173L285.585 266.827L285.541 266.427L285.545 265.987L285.703 264.502L285.718 264.04L285.681 263.667L285.566 263.296L285.352 262.873L284.899 262.258L284.493 261.852L284.057 261.513L280.881 259.528L280.305 257.801L280.283 257.411L280.327 256.867L280.699 256.107L280.891 255.591L281.024 254.746L280.932 254.098L280.67 253.435L280.29 252.974L279.143 252.011L278.556 251.415L277.445 249.622L277.231 249.387L276.125 248.744L274.727 247.164L273.904 245.041L274.026 244.475L274.074 243.488L271.314 238.904L270.38 236.906L270.727 236.2L271.321 235.843L271.908 235.69L271.849 235.335L271.41 234.758L270.613 233.96L275.066 233.792L276.49 233.963L277.774 234.628L279.121 234.971L279.874 234.879L280.833 228.555L280.404 227.774L279.707 226.724L275.354 224.836L274.693 224.304L274.583 223.671L274.782 222.91L276.283 218.588L276.335 218.224L276.195 217.885L276.029 217.632L275.447 217.154L275.133 216.824L275.17 216.449L275.391 215.966L275.885 215.187L275.995 214.923L276.114 214.313L276.235 213.884L276.279 213.429L276.235 210.852L276.456 208.824L278.777 201.769L279.043 201.361L279.836 200.802L280.168 200.385L280.723 199.408Z" fill="#F4F6FB" stroke="#3F5AA9" stroke-linecap="round" stroke-linejoin="round"/>
<path d="M144.463 294.707L143.768 294.103L140.385 291.156L137.005 288.211L133.622 285.262L130.605 282.646L127.591 280.028L124.576 277.408L121.555 274.787L119.189 272.727L116.006 270.833L112.878 268.969L109.741 267.104L106.613 265.237L103.485 263.372L100.349 261.505L97.2164 259.635L94.0881 257.766L90.9598 255.895L87.8236 254.022L84.6953 252.149L81.5631 250.278L78.4308 248.404L75.3026 246.529L72.1703 244.651L69.0341 242.778L65.9058 240.898L62.2348 238.695L60.246 237.531L58.3236 236.777L46.1525 234.424L46.1453 234.422L46.1414 234.42H46.1341L43.271 233.931L36.217 232.719L29.1591 231.505L22.1012 230.29L15.0401 229.077L14.9407 229.11L14.8414 229.145L14.7381 229.179L14.6348 229.212L14.6276 228.888L18.9216 225.218L19.8328 223.883L19.0874 221.035L18.5598 219.737L17.8256 219.306L11.0631 221.181L10.7012 220.976L10.4354 220.343L8.694 214.264L8.64597 214.195L8.6315 214.143L8.64597 214.112L8.694 214.097L11.4499 213.228L9.05189 204.372L7.3657 198.141L5.73873 192.103L4.50255 187.572L3.01966 182.101L1.35913 176.008L5.3065 173.638L9.25387 171.269L13.2012 168.895L17.1486 166.522L21.096 164.147L25.0433 161.772L28.9907 159.395L32.9381 157.019L36.8822 154.637L40.8335 152.255L44.7776 149.872L48.7249 147.487L51.2828 145.939L52.6729 145.099L56.6203 142.711L60.5677 140.322L64.515 137.928L69.7499 134.752L78.5157 132.392L79.5598 131.709L80.3716 130.555L81.6558 127.712V127.706L87.7841 115.813L88.0901 114.742L88.171 113.603L87.8683 105.998L87.6644 98.8071L88.4289 98.8295L93.0144 99.2617L99.0466 101.001L101.445 101.385L111.218 105.443L115.933 107.295L118.257 107.445L123.274 106.787L123.92 106.925L125.17 107.517L126.251 107.985L134.032 106.927L134.287 107.539L134.339 117.047L135.763 123.331L142.691 129.044L144.241 129.928L145.381 130.085L149.649 127.64L150.324 131.346L150.49 134.035L150.77 135.326L151.682 136.648L152.224 138.957L152.578 141.235L154.448 145.798L156.897 149.076L162.62 154.847L167.526 159.145L169.415 159.853L173.248 160.497L177.635 162.263L180.87 163.339L186.858 163.19L187.939 163.515L189.182 164.652L189.739 165.263L190.396 166.488L191.514 169.293L192.296 170.647L192.65 171.041L191.455 171.976L192.783 172.372L193.993 173.216L196.623 173.374L197.697 175.745L197.804 175.716L197.852 175.905L197.856 176.124L197.516 176.956L196.387 178.173L195.963 179.012L195.819 179.834L195.826 180.731L195.996 181.599L196.35 182.334L196.767 182.749L197.722 183.351L198.139 183.804L197.073 185.304L196.424 185.947L195.671 186.162L194.889 185.921L192.605 184.568L191.716 184.299L190.857 184.178L187.462 184.156L184.301 183.317L182.681 183.103L181.472 183.268L181.651 184.168L182.127 184.766L183.887 185.206L187.358 186.962L188.447 188.056L189.303 190.584L189.937 193.772L190.38 194.918L191.357 196.036L192.914 197.125L192.512 201.168L186.392 199.272L182.305 199.275L179.283 199.654L176.453 201.041L169.776 206.959L168.809 207.595L168.418 207.707L167.658 207.814L163.287 208.434L161.612 209.072L159.712 210.08L159.959 211.362L160.822 212.656L169.23 221.193L175.118 225.617L176.841 227.093L180.597 230.677L180.56 231.507L180.372 232.768L179.741 233.531L179.129 234.117L175.808 235.964L174.897 236.701L174.422 236.999L173.846 237.21L171.57 237.568L171.149 237.747L170.087 238.45L169.81 238.516L169.064 238.583L168.485 238.858L167.825 239.364L166.796 240.485L161.24 248.746L160.731 249.668L160.687 251.006L160.487 252.18L159.96 253.729L156.171 261.876L155.839 262.888L155.739 263.609V264.158L155.806 264.517L155.939 264.815L155.968 265.433L155.817 266.328L154.411 270.044L154.293 270.566L154.049 272.607L153.813 273.483L153.551 274.056L151.541 276.904L150.316 279.012L150.047 279.636L149.925 280.046L149.486 283.714L149.032 285.17L147.97 287.734L145.653 292.063L144.726 294.289L144.463 294.707Z" fill="white" stroke="#3F5AA9" stroke-linecap="round" stroke-linejoin="round"/>
<path d="M181.609 325.145L179.878 323.736L175.79 320.408L171.699 317.08L167.607 313.749L163.52 310.416L160.373 307.848L157.228 305.279L154.084 302.71L150.937 300.135L147.162 297.049L147.159 297.047L147.155 297.045L147.151 297.043L144.463 294.707L144.731 294.286L145.657 292.06L147.974 287.731L149.037 285.168L149.491 283.712L149.93 280.043L150.051 279.633L150.32 279.009L151.545 276.902L153.556 274.053L153.818 273.48L154.054 272.604L154.297 270.563L154.416 270.041L155.822 266.325L155.973 265.431L155.943 264.812L155.811 264.514L155.744 264.156V263.606L155.843 262.885L156.176 261.873L159.964 253.726L160.492 252.177L160.691 251.004L160.736 249.665L161.245 248.743L166.801 240.483L167.83 239.361L168.49 238.855L169.069 238.58L169.814 238.514L170.091 238.447L171.154 237.745L171.574 237.565L173.851 237.208L174.426 236.996L174.902 236.698L175.813 235.962L179.134 234.114L179.746 233.528L180.377 232.766L180.565 231.504L180.602 230.674L176.846 227.09L193.485 222.301L196.816 221.259L197.746 221.148L198.174 221.527L198.472 221.709L198.642 221.48L198.805 221.01L198.864 220.752L199.295 219.692L199.801 221.716L200.044 222.12L200.265 222.344L200.121 223.066L199.258 223.555L198.996 223.981L199.051 224.441L199.336 225.224L200.011 226.31L200.243 226.582L200.509 226.992L200.686 227.351L201.228 228.079L202.497 226.861L203.238 226.353L203.401 226.363L203.696 226.304L203.973 226.334L205.729 225.072L206.703 225.589L207.499 226.265L208.562 226.875L210.373 227.47L209.849 229.166L209.732 229.335L209.58 229.51L209.411 229.517L209.189 229.563L208.828 229.791L208.736 230.01L208.74 230.268L208.873 230.547L209.039 230.81L209.257 231.021L209.57 231.273L209.784 231.548L209.777 231.737L209.589 231.867L208.559 232.258L207.257 233.131L206.56 233.412L206.272 233.837L205.974 234.856L205.723 236.176L206.918 242.131L206.774 243.496L206.752 246.143L207.228 249.278L206.53 250.275L205.918 249.915L204.94 249.538L204.184 249.722L203.39 250.622L203.213 251.603L203.984 253.023L206.309 255.778L206.972 256.211L213.838 259.048L211.137 273.766L210.274 275.764L208.574 278.787L206.917 280.298L205.526 281.937L203.789 284.662L203.545 284.833L201.391 285.74L199.624 287.031L199.063 287.597L197.599 289.514L196.33 292.043L189.903 310.596L182.066 324.35L181.609 325.145Z" fill="#F4F6FB" stroke="#3F5AA9" stroke-linecap="round" stroke-linejoin="round"/>
<path d="M91.8123 81.5912L93.0169 79.7721L93.5814 78.4445L93.7768 77.0688L93.6255 71.0228L93.4557 69.5787L93.0683 68.1655L90.3084 62.1451V62.1405L90.3044 62.1425L89.3893 59.9919L89.2492 59.2274L89.2452 58.4905L90.3965 47.3899L90.688 46.2011L93.8386 40.0294V40.0248L93.8426 40.0221V40.0175L94.5584 39.0307L95.6097 38.5419L97.9268 38.1537L108.999 35.7905L109.976 35.3267L110.921 34.5201L115.731 29.3682L122.866 21.7123L126.549 17.7524H126.56V17.7458L128.843 15.5649L129.948 14.7109L130.197 15.6629L130.688 16.7215L131.297 17.6826L132.654 19.0254L133.297 19.5024L133.92 19.4886L134.618 18.6873L134.629 19.3662L134.463 20.2616L134.489 20.9807L135.083 21.1274L134.817 22.1057L134.898 22.5188L135.2 22.8511L135.592 23.5938L134.655 23.6563L134.489 24.1241L134.877 24.4794L135.593 24.2037L136.703 24.7813L137.304 25.2294L137.791 26.5899L138.363 26.8879L139.868 26.9155L140.042 26.8254L140.197 26.6248L140.393 26.4234L140.71 26.334L141.141 26.4307L141.458 26.6669L142.543 27.8945L143.17 28.4642L143.506 28.63L143.793 28.6603L144.074 28.7465L144.387 29.0734L143.587 29.382L143.258 29.6465L143.17 29.9859L143.413 30.355L143.785 30.3261L145.043 29.6958L145.339 29.7175L145.851 29.9859L146.117 30.2182L146.298 30.507L146.604 31.2004L146.9 30.6596L147.239 30.403L147.652 30.3201L148.176 30.3169L148.608 30.4169L151.533 28.7794L156.204 28.1359L157.639 28.0116L158.827 27.3932L159.366 27.0155L159.524 26.3116L159.849 25.5142L160.162 24.507L161.21 22.7721L162.306 21.4392L162.568 20.9919L163.07 20.6017L163.641 20.4076L164.999 20.5669L165.545 20.8576L166.102 21.3076L166.582 21.8208L167.66 22.5978L168.294 23.1879L169.434 23.7445L174.61 25.1412L175.12 25.2412L175.356 25.2287L175.455 25.0261L175.489 24.8096V24.555L175.551 24.3294L175.67 24.1669L175.927 24.0261L176.256 23.9728L176.864 24.1754L176.99 24.2583L177.123 24.2511L177.241 24.1254L177.4 23.6254L177.441 23.3465L177.452 23.1149L177.422 22.9524L177.389 22.8267L177.378 22.603L177.356 22.4932L177.352 22.3833V22.2425L177.333 22.0879L177.263 21.8228L177.289 21.7215L177.484 21.6432L177.647 21.5346L177.816 21.3465L178.115 20.7294L178.177 20.5123L178.189 20.307L178.159 20.0853L178.115 19.8616L178.026 19.657L177.912 19.5195L177.716 19.432L177.495 19.3873L176.89 19.1925L176.591 19.0307L176.314 18.9754L175.816 18.9544L175.602 18.8965L175.422 18.8017L175.056 18.5359L174.964 18.3925L174.92 18.2642L174.902 18.1405L174.802 17.9294L174.788 17.7951L174.781 17.6392L174.803 17.4682L174.892 17.1353L175.021 16.7794L175.069 16.4083L175.065 16.2498L175.098 16.1248L175.268 15.7576L175.375 15.6017L175.53 15.4353L175.659 15.3451L175.774 15.307L175.925 15.3175L176.095 15.3695L176.725 15.7195L177.135 15.8373L179.636 16.2846L180.632 16.6807L181.757 16.9511L184.026 18.1879L184.845 18.3701L185.052 18.3215L185.251 18.3761L185.439 18.5241L186.233 19.2984L186.956 19.7465L187.454 20.1458L187.911 20.3833L188.125 20.5563L188.309 20.83L188.353 21.0478L188.452 21.2682L188.618 21.5517L188.596 21.6774L188.507 21.7478L188.363 21.7787L188.267 21.8412L188.263 21.9267L188.344 22.0109L188.927 21.9866L189.06 21.9517L189.214 21.9978L189.358 22.1221L189.587 22.4761L189.602 22.684L189.568 22.8695L189.517 22.9892L189.55 23.1149L189.846 23.5866L189.979 23.6721L190.252 23.6399L190.41 23.5951L190.566 23.5892L190.894 23.6609L191.964 23.7623L192.085 23.8175L192.255 23.9326L192.377 24.1629L192.543 24.3498L192.797 24.5307L196.162 26.0136L196.763 26.4879L197.062 26.6688L197.257 26.859L197.324 27.0366L197.356 27.4169L197.39 27.6195L197.762 28.0063L197.873 28.3359L198.087 28.8379L198.183 28.882L198.264 28.8517L198.352 28.7642L198.437 28.7254L198.518 28.7366L198.596 28.8103L198.662 28.9438L198.692 29.107L198.674 29.3208L198.493 29.7123L197.216 31.4195L196.209 32.3221L195.645 33.2096L195.036 33.4188L194.763 33.6109L193.789 34.4938L193.174 34.8754L192.72 35.2754L192.35 35.3432L192.21 35.2774L192.166 35.1465L192.177 35.0248L192.118 34.9399L191.989 34.8583L191.79 34.8017L191.609 34.7905L191.417 34.8504L191.059 35.0182L190.93 35.0307L190.794 35.0155L190.672 35.0649L190.576 35.1761L190.521 35.4149L190.51 35.5873L190.454 35.7412L190.344 35.7965L190.108 35.7215L189.997 35.5905L189.964 35.4307L189.997 35.257L190.068 35.0919L190.112 34.9438L190.089 34.8359L190.012 34.7879L189.853 34.7833L189.687 34.8083L189.492 34.878L189.326 34.8998L189.152 34.8629L189.008 34.778L188.898 34.6609L188.85 34.5366L188.809 34.3846L188.743 34.2616L188.672 34.2478L188.587 34.3274L188.576 34.555L188.62 34.7162L188.749 34.9254L188.708 35.03L188.539 35.0517L188.428 35.0103L188.332 34.932L188.14 35.0307L187.841 35.2774L186.937 36.3149L186.793 36.6971L186.694 36.8761L186.554 37.0826L186.2 37.3741L185.952 37.6991L185.45 38.08L185.229 38.1511L185.048 38.1004L184.952 37.9445L184.841 37.8241L184.727 37.7267L184.62 37.7451L184.527 37.8655L184.483 38.1879L184.517 38.7274L184.443 39.005L184.277 39.253L183.956 39.3715L183.731 39.3794L182.831 39.2669L182.684 39.3583L182.599 39.5465L182.622 39.978L182.695 40.1721L182.776 40.3188L182.827 40.4761L182.842 40.6425V40.8353L182.798 41.0715L182.676 41.2846L182.341 41.5451L182.056 41.7037L181.799 41.7958L181.54 41.7932L181.141 41.7221L181.016 41.7333L180.916 41.8458L180.894 42.0129L181.049 42.4188L181.104 42.8234L181.141 43.4754L180.883 44.3603L180.274 45.3991L178.776 47.203L178.2 47.7386L177.54 48.1642L177.26 48.2945L176.754 48.8998L175.947 49.2557L175.666 49.5142L175.382 49.9011L174.965 50.6228L174.644 51.0583L173.519 52.084L173.331 52.3721L173.139 52.8879L172.729 53.7544L172.036 54.2688L171.737 54.3123L171.612 54.4491L171.431 54.8432L171.35 55.1596L171.254 55.4478L170.49 56.8728L170.412 57.2438L170.401 57.5392L170.456 58.4109L170.412 58.6241L170.309 58.8511L169.804 59.6083L169.416 59.9734L164.79 61.9234L164.499 62.3774L164.72 63.4873L165.101 63.878L165.683 63.9544L166.145 63.9603L166.266 64.2748L166.27 65.0938L165.949 68.1498L165.562 69.034L165.3 69.2932L165.02 69.3537L164.765 69.3517L164.566 69.4748L164.377 69.7616L163.606 71.5412L163.466 72.0583L163.496 72.4313L163.54 72.6813L164.127 74.0662L163.78 74.3886L163.706 74.7149L163.57 75.3511L163.212 75.5465L162.737 75.5859L162.224 75.7504L161.95 76.0846L161.416 77.0498L160.914 77.4405L160.213 77.6471L159.531 78.128L157.192 79.1083L152.879 82.0748L152.264 82.1234L151.976 82.2149L151.622 82.4346L150.792 83.1419L150.349 83.434L149.335 83.8938L149.213 83.9044L149.125 83.8938L149.062 83.9076L149.003 83.9517L148.925 83.978L148.815 83.9623L148.686 83.9669L148.55 83.9524L148.45 84.0057L148.34 84.1326L148.229 84.3096L148.108 84.5596L147.986 84.655L147.92 84.73L147.901 84.7912L148.218 85.2965L148.572 86.1412L148.65 86.4425L148.587 86.7083L148.395 87.0899L148.244 87.3221L148.189 87.4419L148.085 88.0261L148.108 88.3182L148.185 88.6511L148.362 88.9452L148.374 89.5175L148.454 89.7925L149.428 91.0636L149.708 91.3313L150.266 91.7675L150.428 91.9892L150.605 92.2991L150.627 92.6247L150.672 92.9636L151.085 94.0958L151.162 94.1938L151.251 94.2346L151.329 94.2155L151.395 94.1774L151.458 94.1912L151.48 94.2892L151.462 94.5162L151.318 94.8504L151.247 95.1234L151.27 95.4169L151.148 96.1419L151.137 96.457L151.174 96.5688L151.214 96.6366L151.274 96.6478L151.351 96.63L151.44 96.6346L151.624 96.6912L151.735 97.0116L152.022 97.5241L152.063 97.778L152.111 97.8662L152.21 97.9122L152.318 97.934L152.362 97.98V98.1379L152.406 98.2057L152.476 98.2307L152.595 98.2241L152.617 98.2919L152.606 98.3932L152.532 98.5017L152.539 98.5741L152.61 98.6169L152.739 98.634L152.886 98.6353L152.997 98.6622L153.085 98.6715L153.218 98.6603L153.27 98.7123L153.358 99.1182L153.406 99.2379L153.425 99.3465L153.502 99.6149L153.535 99.7826L153.48 99.9892L153.306 100.465L153.314 100.566L153.45 100.779L153.528 100.983L153.469 101.262L153.085 101.513L151.757 101.691L139.033 101.772L134.934 102.681L134.037 106.924L126.256 107.982L125.175 107.514L123.925 106.922L123.279 106.785L118.262 107.442L115.938 107.293L111.223 105.441L101.45 101.382L99.0518 100.998L93.0196 99.259L88.434 98.8267L87.6696 98.8044L87.6406 97.7899L87.9913 95.13L89.4821 89.7274L89.7959 85.4537L90.1242 84.1353H90.1281H90.1321V84.1287L91.8123 81.5912Z" fill="#F4F6FB" stroke="#3F5AA9" stroke-linecap="round" stroke-linejoin="round"/>
<path d="M207.955 100.11L211.555 103.907L212.142 104.184L212.946 104.405L213.558 104.184L217.466 104.35L218.801 104.594L221.871 106.752L222.303 107.274L222.391 107.462L222.425 107.629L222.403 107.827L222.284 108.412L222.373 111.508L220.684 113.064L219.51 113.671L218.581 114.035L218.164 114.367L217.932 114.708L217.909 114.996L217.95 115.274L217.976 115.636L217.828 116.116L217.349 116.92L216.658 117.63L216.149 118.047L215.71 118.236L214.703 118.535L213.973 118.952L213.63 119.266L213.46 119.547V119.802L213.534 120.069L213.685 120.345L213.855 120.601L213.973 121.111L213.918 121.748L213.357 122.944L212.907 123.561L212.398 124.054L211.811 124.454L211.203 124.979L210.808 125.449L210.576 125.883L210.395 126.403L210.287 126.418L210.099 126.301L208.797 125.12L208.409 124.864L208.095 124.714L207.545 124.585L206.837 124.287L206.52 124.107L206.372 124.185L205.955 124.731L205.878 124.967L205.844 125.135L205.822 125.54L206.364 126.944L206.349 127.186L206.26 127.513L205.832 127.902L205.788 128.016L205.832 128.061L205.928 128.059L206.061 128.117L206.194 128.256L206.353 128.598L206.316 128.761L206.194 128.875L205.851 128.984L205.71 128.997L205.545 129.032L205.405 129.149L205.239 129.443L205.213 129.604L205.239 129.672L205.305 129.634L205.394 129.562L205.483 129.533L205.601 129.605L205.583 129.706L205.505 129.825L205.339 130.025V130.15L205.413 130.229L205.55 130.256L205.668 130.229L205.867 130.104L205.978 130.09L206.085 130.17L206.062 130.287L205.996 130.435L205.874 130.837L205.789 130.977L205.549 131.231L205.59 131.387L205.675 131.6L205.797 132.029L205.778 132.377L205.538 133.184L205.184 133.955L204.907 134.391V134.578L205.007 134.826L205.206 135.116L205.534 135.491L205.807 135.714L206.062 135.854L206.475 136.372L205.988 136.695L206.084 137.552L206.055 137.722L205.929 137.829L205.752 137.893L205.483 138.072L205.416 138.31L205.424 139.1L205.35 139.279L205.251 139.319L205.14 139.232L204.941 139.006L204.83 138.985L204.683 139.069L204.543 139.181L204.421 139.254L204.295 139.275L203.886 139.295L203.569 139.408L203.429 139.504L202.687 140.605L202.543 140.918L202.455 141.27L202.378 141.398L202.267 141.465L202.153 141.454L202.086 141.407L202.075 141.343L202.163 141.139L202.152 141.016L202.085 140.921L201.875 140.956L201.753 141.109L201.609 141.35L201.506 141.625L201.359 141.759L201.203 141.82L200.772 141.797L200.443 141.871L200.318 141.961L200.322 142.067L200.399 142.179L200.473 142.337L200.506 143.362L200.462 143.48L200.384 143.533L199.964 143.546L199.668 143.616L199.524 143.74L199.458 143.893L199.502 144.055L199.764 144.516L199.812 144.667L199.808 144.847L199.723 145.12L199.583 145.26L198.819 145.794L198.76 145.935L198.948 146.231L198.996 146.444L198.737 147.154L198.641 147.691L198.243 148.264L198.22 148.472L198.228 148.829L198.338 148.94L198.508 148.977L198.762 148.947L199.05 148.863L200.028 148.747L200.98 148.891L201.197 148.984L201.518 149.122L203.171 150.622L203.595 151.158L203.872 151.829L203.987 152.652L203.953 153.456L203.743 154.207L202.522 156.126L201.858 157.964L201.788 158.355L201.784 158.748L201.873 159.136L202.057 159.499L202.297 159.806L203.006 160.525L203.095 160.7L203.091 160.887L202.593 161.685L202.449 161.999L201.921 164.319L202.33 165.306L202.22 166.369L201.921 167.478L200.519 168.734L199.895 169.191L199.062 169.968L198.531 170.608L196.627 173.368L193.997 173.21L192.787 172.366L191.459 171.97L192.654 171.035L192.3 170.641L191.518 169.287L190.4 166.482L189.743 165.257L189.186 164.646L187.943 163.509L186.862 163.184L180.874 163.333L177.639 162.257L173.252 160.491L169.419 159.847L167.53 159.139L162.624 154.841L156.901 149.07L154.452 145.792L152.582 141.229L152.228 138.951L151.685 136.642L150.774 135.32L150.494 134.029L150.328 131.34L149.653 127.634L145.385 130.079L144.245 129.922L142.695 129.038L135.767 123.325L134.343 117.041L134.291 107.533L134.036 106.921L134.933 102.677L139.032 101.769L151.756 101.688L153.084 101.51L153.468 101.258L153.527 100.98L153.449 100.776L153.312 100.563L153.305 100.462L153.479 99.986L153.534 99.7794L153.501 99.6117L153.424 99.3432L153.405 99.2347L153.357 99.115L153.268 98.709L153.217 98.6571L153.084 98.6682L152.995 98.659L152.885 98.6321L152.737 98.6308L152.609 98.6136L152.538 98.5709L152.531 98.4985L152.605 98.39L152.616 98.2886L152.593 98.2209L152.475 98.2275L152.405 98.2025L152.36 98.1347V97.9768L152.316 97.9307L152.209 97.909L152.11 97.863L152.062 97.7748L152.021 97.5209L151.733 97.0084L151.623 96.688L151.439 96.6314L151.35 96.6268L151.272 96.6446L151.213 96.6334L151.172 96.5656L151.135 96.4538L151.147 96.1386L151.268 95.4136L151.246 95.1202L151.316 94.8472L151.46 94.513L151.479 94.286L151.457 94.188L151.394 94.1742L151.328 94.2123L151.25 94.2314L151.161 94.1906L151.084 94.0926L150.67 92.9604L150.626 92.6215L150.604 92.2959L150.427 91.986L150.264 91.7643L149.707 91.3281L149.427 91.0604L148.453 89.7893L148.372 89.5143L148.361 88.9419L148.184 88.6479L148.107 88.315L148.084 88.0229L148.187 87.4386L148.243 87.3189L148.394 87.0867L148.586 86.7051L148.649 86.4393L148.571 86.138L148.217 85.2932L147.9 84.788L147.918 84.7268L147.985 84.6518L148.107 84.5564L148.228 84.3064L148.339 84.1294L148.449 84.0025L148.549 83.9492L148.685 83.9636L148.814 83.959L148.924 83.9748L149.002 83.9485L149.061 83.9044L149.124 83.8906L149.212 83.9011L149.334 83.8906L150.348 83.4308L150.791 83.1386L151.621 82.4314L151.975 82.2117L152.262 82.1202L152.878 82.0715L157.191 79.1051L159.53 78.1248L160.212 77.6439L160.912 77.4373L161.414 77.0465L161.949 76.0814L162.222 75.7472L162.735 75.5827L163.211 75.5433L163.569 75.3479L163.705 74.7117L163.779 74.3854L164.126 74.063L163.893 75.2663L163.816 75.4584L163.672 75.7196L163.716 75.884L163.812 76.0294L163.978 76.2156L164.147 76.4814L164.324 76.9025L164.468 77.4518L164.398 77.7959L164.299 78.0821L164.335 78.2558L164.432 78.3729L164.597 78.4413L164.763 78.4709L164.955 78.5794L165.177 78.8176L165.454 79.3373L165.58 80.0044L165.735 83.4176L165.716 83.8143L165.672 84.0965L165.521 84.6814L165.484 85.2182L165.443 85.4525L165.351 85.5893L165.266 85.6255L164.978 85.7071L164.326 86.0696L163.735 87.0544L163.418 87.086L163.201 86.9979L163.001 86.6801L162.997 86.4775L162.964 86.284L162.824 86.0465L162.78 85.9229L162.757 85.7801L162.654 85.6077L162.51 85.5261L161.968 85.336L161.735 85.9906L161.898 86.3939L161.88 86.6419L161.791 86.8992L161.735 87.3386L161.813 87.7564L161.979 87.986L162.145 88.1117L162.222 88.2215L162.396 88.5518L163.303 89.5551L163.705 89.9071L164.709 90.3189L165.218 90.6663L165.432 91.2248L165.395 91.3459L165.295 91.3946L165.17 91.4367L165.044 91.5373L164.933 91.8051L165.007 91.9748L165.133 92.1163L165.166 92.2985L165.037 92.9406L164.926 93.2071L164.701 93.4926L166.531 93.8011L167.272 94.1492L167.139 94.9854L166.833 95.1998L166.424 95.3327L166.074 95.5518L165.922 96.0294L166.055 96.4169L166.365 96.9669L166.726 97.4577L167.007 97.6696L169.353 100.217L169.822 100.908L170.755 101.345L171.405 101.809L171.744 102.33L172.567 102.883L175.327 104.163L182.455 108.448L184.786 109.849L187.291 110.797L190.32 112.154L192.486 113.483L195.467 116.491L198.182 118.587L198.54 118.688L199.079 118.675L199.887 117.712L200.041 117.481L200.027 117.376L199.655 117.328L199.526 117.28L199.459 117.197L199.448 117.092L199.51 116.899L199.503 116.8L199.37 116.519L199.337 116.336L199.459 115.862L199.489 115.629L199.47 115.208L199.511 115.039L199.622 114.872L200.072 114.468L200.271 114.212L200.397 113.968L200.518 113.531L201.079 112.736L201.492 112.509L201.618 112.346L201.673 112.208L201.677 112.093L201.728 111.987L201.894 111.72L201.92 111.575L201.887 111.42L201.905 111.345L201.92 111.231L202.064 110.901L202.182 110.689L202.186 110.547L202.175 110.438L202.186 110.356L202.216 110.254L202.26 109.895L202.813 109.039L203.577 108.27L204.362 107.133L204.628 106.865L205.067 106.583L205.617 106.312L206.595 105.579L206.938 105.037L206.968 104.39L206.252 102.689L206.215 102.075L206.396 101.3L206.691 100.829L207.027 100.414L207.289 100.225L207.503 100.123L207.955 100.11Z" fill="#F4F6FB" stroke="#3F5AA9" stroke-linecap="round" stroke-linejoin="round"/>
<path d="M210.283 66.9308L212.253 71.2769L213.16 72.2703L213.976 73.3874L215.632 74.8644L215.928 75.7354L215.961 76.4709L215.356 77.5598L215.212 78.0229L215.134 79.1453L214.99 79.6578L214.88 81.2354L214.751 82.4973L214.839 82.9282L215.083 83.3677L215.843 84.2262L216.529 85.171L216.57 85.6716L216.385 86.2841L216.02 87.0209L214.718 88.792L214.449 89.6486L214.553 90.2966L214.774 91.0348L214.914 91.6874L214.762 92.3644L214.375 93.2913L214.276 93.8788L214.176 94.1479L214.051 94.342L213.785 94.4236L213.457 94.6065L213.025 94.9091L212.66 95.4604L212.52 95.8578L212.497 96.2315L212.553 96.5552L212.796 97.1578L212.697 97.5223L212.32 97.8913L209.539 98.769L207.956 100.11L207.506 100.125L207.292 100.228L207.03 100.416L206.695 100.831L206.399 101.302L206.218 102.078L206.255 102.691L206.971 104.392L206.941 105.039L206.598 105.581L205.62 106.314L205.07 106.585L204.632 106.867L204.366 107.135L203.58 108.272L202.816 109.041L202.263 109.897L202.219 110.256L202.189 110.358L202.178 110.44L202.189 110.549L202.185 110.691L202.067 110.903L201.923 111.233L201.909 111.347L201.89 111.422L201.923 111.578L201.897 111.722L201.732 111.989L201.68 112.095L201.676 112.21L201.621 112.348L201.495 112.511L201.082 112.738L200.522 113.533L200.4 113.97L200.274 114.214L200.075 114.47L199.625 114.874L199.514 115.041L199.474 115.21L199.492 115.631L199.462 115.864L199.341 116.338L199.374 116.521L199.507 116.803L199.514 116.901L199.451 117.094L199.462 117.199L199.529 117.282L199.658 117.33L200.03 117.378L200.045 117.483L199.89 117.714L199.082 118.677L198.543 118.69L198.185 118.589L195.47 116.493L192.489 113.485L190.324 112.156L187.295 110.799L184.789 109.851L182.458 108.45L175.33 104.165L172.57 102.885L171.747 102.332L171.408 101.811L170.759 101.347L169.825 100.91L169.357 100.219L167.01 97.6716L166.73 97.4598L166.368 96.969L166.059 96.419L165.926 96.0315L166.077 95.5538L166.428 95.3348L166.837 95.2019L167.143 94.9874L167.276 94.1512L166.534 93.8032L164.705 93.4946L164.93 93.2091L165.04 92.9427L165.169 92.3005L165.136 92.1183L165.01 91.9769L164.937 91.8071L165.047 91.5394L165.173 91.4387L165.299 91.3966L165.398 91.3479L165.435 91.2269L165.221 90.6683L164.712 90.3209L163.708 89.9091L163.307 89.5571L162.399 88.5538L162.226 88.2236L162.148 88.1137L161.982 87.9881L161.816 87.7584L161.739 87.3407L161.794 86.9012L161.883 86.644L161.901 86.396L161.739 85.9927L161.971 85.3381L162.513 85.5282L162.657 85.6098L162.76 85.7821L162.783 85.9249L162.827 86.0486L162.967 86.2861L163.001 86.4795L163.005 86.6821L163.204 86.9999L163.422 87.088L163.739 87.0565L164.329 86.0716L164.982 85.7091L166.59 86.7367L166.934 86.8986L167.682 87.1058L168.062 87.1196L168.424 87.0492L169.133 86.4131L169.683 86.2413L171.21 86.1696L171.908 86.0552L172.472 85.7348L172.782 85.215L173.199 83.9453L173.546 83.4703L174.03 83.2479L174.826 83.2683L176.018 83.1677L177.176 82.465L177.936 82.3979L178.324 82.2381L178.678 81.7677L179.043 80.4571L179.242 79.365L179.485 78.8512L180.028 78.1815L180.489 77.7512L180.791 77.3506L180.814 76.8604L180.67 76.4584L180.449 76.0611L179.663 75.1709L179.434 74.9696L179.409 74.6881L179.63 74.3098L181.814 72.4578L184.389 69.6558L184.747 68.6828L185.297 68.5795L186.105 68.8808L189.872 71.5841L191.207 71.5321L191.967 71.3913L192.299 71.1821L192.613 70.5295L193.134 69.1295L193.957 68.8084L194.554 68.6887L196.513 69.0736L197.295 69.2236L197.97 69.5696L198.177 69.615L198.468 69.5946L198.819 69.5038L199.332 69.2249L199.539 69.0394L199.712 68.7637L199.849 68.7571L200.287 68.9821L200.498 69.0433L201.062 69.1367L201.221 69.2104L201.332 69.2387L201.439 69.2183L201.623 68.8381L201.745 68.7446L202.412 68.4565L202.612 68.3348L202.767 68.1802L202.955 68.0479L203.221 68.0157L203.667 68.0907L203.977 68.0881L204.741 67.6394L205.526 67.8861L205.622 68.0104L205.726 68.0677L205.888 68.044L206.198 67.8663L206.412 67.8058L206.674 67.9012L206.821 68.0584L207.05 68.3973L207.186 68.4828L207.315 68.4565L207.382 68.2519L207.359 68.1019L207.315 67.9611L207.282 67.8131L207.305 67.6716L207.441 67.5729L207.581 67.5387L207.957 67.7848L208.101 67.8124L208.278 67.6209L208.422 67.4196L208.633 67.1953L208.932 66.9486L209.06 66.7321L209.193 66.3973L209.297 66.2512L209.462 66.1374L209.846 65.9473L209.964 65.969L210.074 66.1262V66.5499L210.283 66.9308Z" fill="#F4F6FB" stroke="#3F5AA9" stroke-linecap="round" stroke-linejoin="round"/>
<path d="M205.911 184.363L199.986 184.061L199.071 183.803L198.614 183.732L198.145 183.802L197.728 183.349L196.773 182.747L196.356 182.332L196.002 181.597L195.832 180.729L195.825 179.832L195.969 179.01L196.393 178.171L197.522 176.955L197.862 176.122L197.858 175.903L197.81 175.714L199.666 175.206L200.134 173.701L200.378 173.407L200.584 173.445L203.141 173.551L203.495 173.621L204.207 174.011L205.538 175.192L206.66 174.332L206.782 174.45L206.929 174.645L206.98 175.129L207.069 175.516L207.261 176.116L207.283 176.24L207.261 176.304L207.239 176.403L207.206 176.918L207.025 177.333L207.073 178.6L207.114 179.89L207.029 180.207L206.918 180.49L206.749 180.596L206.62 180.586L206.608 180.468L206.697 180.336V179.95L206.45 180.633L206.531 180.99L206.671 181.29L206.686 181.472L206.642 181.638L206.421 181.905L206.31 182.014L205.967 182.52L205.911 184.363Z" fill="#F4F6FB" stroke="#3F5AA9" stroke-linecap="round" stroke-linejoin="round"/>
<path d="M198.145 183.802L198.613 183.731L199.07 183.803L199.986 184.061L205.91 184.363L205.896 184.866L206.342 185.771L206.98 187.405L207.26 188.456L207.393 189.356L207.379 191.015L207.168 191.607L206.57 191.95L206.839 193.218L206.961 197.529L207.179 198.576L207.415 199.248L207.662 199.481L207.832 199.614L208.05 199.696L213.105 200.056L213.348 200.113L215.617 201.416L217.421 201.99L218.724 202.115L219.034 202.218L219.222 202.542L220.38 203.034L221.299 203.554L221.808 203.961L222.291 204.495L222.512 204.956L224.04 210.035L225.435 213.184L226.059 213.975L226.745 214.666L227.32 215.068L227.918 215.242L230.05 215.337L230.511 215.344L230.61 216.671L230.67 217.55L230.146 217.523L229.839 217.605L229.334 217.803L227.74 218.773L227.312 219.094L226.877 219.623L226.634 219.852L223.564 221.909L221.269 222.846L219.705 224.048L218.657 225.043L218.413 225.182L218.192 225.073L217.786 224.658L217.58 224.485L217.366 224.464L217.104 224.585L216.757 224.96L216.551 225.331L216.447 225.624L216.507 225.819L216.662 225.999L216.946 226.256L216.994 226.643L216.968 226.952L216.817 227.183L216.625 227.342L216.086 227.663L215.876 227.836L215.189 228.681L214.949 228.907L214.651 229.073L214.315 229.183L213.887 229.188L213.422 229.017L211.448 227.813L210.374 227.471L208.563 226.877L207.501 226.267L206.704 225.591L205.73 225.073L203.974 226.336L203.697 226.306L203.402 226.365L203.239 226.355L202.498 226.863L201.229 228.081L200.687 227.353L200.51 226.994L200.244 226.584L200.012 226.311L199.337 225.226L199.053 224.442L198.997 223.982L199.259 223.557L200.122 223.068L200.266 222.346L200.045 222.122L199.802 221.717L199.297 219.694L199.182 219.237L198.441 217.771L198.175 216.888L198.352 216.194L198.691 215.35L198.441 214.502L196.43 211.55L195.84 210.111L195.759 208.527L197.021 203.925L197.353 203.573L197.331 203.093L197.32 202.842L197.176 202.506L196.309 201.622L196.065 201.439L195.847 201.35L195.682 201.359L195.493 201.439L195.11 201.653L194.944 201.679L194.756 201.653L193.509 201.314L192.52 201.166L192.922 197.123L191.365 196.034L190.387 194.916L189.945 193.771L189.31 190.582L188.455 188.055L187.366 186.96L183.895 185.204L182.135 184.765L181.659 184.167L181.48 183.267L182.689 183.102L184.309 183.315L187.47 184.154L190.864 184.177L191.724 184.298L192.613 184.567L194.897 185.919L195.679 186.161L196.432 185.945L197.081 185.303L198.145 183.802Z" fill="#F4F6FB" stroke="#3F5AA9" stroke-linecap="round" stroke-linejoin="round"/>
<path d="M210.375 227.47L211.449 227.812L213.422 229.015L213.887 229.187L214.316 229.182L214.651 229.072L214.95 228.905L215.19 228.68L215.876 227.834L216.087 227.662L216.626 227.341L216.818 227.182L216.969 226.951L216.995 226.641L216.947 226.255L216.662 225.997L216.507 225.818L216.448 225.622L216.551 225.329L216.758 224.959L217.105 224.584L217.366 224.462L217.58 224.484L217.787 224.657L218.193 225.072L218.414 225.181L218.657 225.041L219.705 224.046L221.27 222.844L223.564 221.907L226.634 219.85L226.878 219.622L227.313 219.092L227.741 218.771L229.335 217.801L229.84 217.603L230.147 217.521L230.67 217.548L232.736 217.829L232.965 218.502L233.862 218.886L236.382 219.189L236.791 219.82L237.576 220.057L237.705 220.406L237.646 220.804L237.174 221.941L237.085 222.539L237.277 223.172L237.812 223.796L241.361 227.158L242.014 228.036L242.453 228.829L242.797 229.349L243.365 229.722L245.616 230.556L248.076 231.284L248.187 231.795L247.925 232.02L247.792 232.212L247.81 232.477L249.493 236.384L249.253 237.418L249.197 238.02L249.23 238.887L250.655 243.272L251.636 248.827L251.341 249.147L250.566 249.407L249.042 249.428L242.722 247.35L234.012 245.635L231.444 245.549L231.079 246.182L225.301 247.57L224.475 247.666L224.881 248.083L225.224 248.272L225.858 248.51L226.102 248.655L226.324 249.029L226.489 249.514L226.73 249.933L227.519 250.301L227.464 250.928L226.914 252.434L225.803 254.62L223.564 260.753L222.811 265.1L219.919 263.539L213.839 259.047L206.973 256.21L206.309 255.777L203.985 253.022L203.214 251.602L203.391 250.621L204.184 249.721L204.941 249.537L205.918 249.914L206.531 250.274L207.228 249.277L206.753 246.141L206.775 243.495L206.919 242.13L205.724 236.175L205.974 234.855L206.273 233.836L206.56 233.41L207.258 233.13L208.56 232.257L209.589 231.866L209.778 231.735L209.785 231.547L209.571 231.272L209.257 231.02L209.039 230.809L208.874 230.546L208.741 230.266L208.737 230.009L208.829 229.789L209.19 229.562L209.411 229.516L209.581 229.509L209.732 229.334L209.85 229.164L210.375 227.47Z" fill="#F4F6FB" stroke="#3F5AA9" stroke-linecap="round" stroke-linejoin="round"/>
<path d="M251.636 248.828L250.655 243.274L249.23 238.889L249.197 238.022L249.253 237.42L249.493 236.385L253.072 236.614L255.259 235.696L255.451 235.699L255.617 235.835L255.757 235.826L255.897 235.745L256.056 235.569L256.152 235.524L256.244 235.563L256.34 235.67L256.517 235.801L256.687 235.764L257.923 234.835L258.218 234.74L258.532 234.768L258.864 234.87L259.418 234.978L259.676 234.97L259.835 234.887L259.968 234.567L260.152 234.401L261.34 233.994L270.615 233.96L271.412 234.758L271.851 235.336L271.91 235.691L271.323 235.844L270.729 236.201L270.382 236.907L271.316 238.905L274.076 243.489L274.028 244.476L273.906 245.042L274.729 247.165L276.127 248.745L277.233 249.388L277.447 249.623L278.558 251.416L279.145 252.012L280.292 252.975L280.672 253.436L280.934 254.099L281.026 254.747L280.893 255.592L280.701 256.108L280.329 256.868L280.285 257.412L280.307 257.802L280.883 259.529L284.059 261.514L284.495 261.853L284.901 262.258L285.355 262.874L285.568 263.297L285.683 263.668L285.72 264.041L285.705 264.503L285.547 265.988L285.543 266.428L285.587 266.828L285.664 267.174L285.793 267.471L286.041 267.797L287.587 269.047L288.081 269.527L289.479 270.258L293.231 270.201L299.484 270.646L299.79 274.103L299.34 282.762L298.432 287.462L298.211 288.646L298.16 289.574L298.355 292.603L298.137 293.766L297.056 293.967L292.105 293.063L291.453 293.041L279.798 296.241L278.618 296.524L278.142 296.503L277.677 296.145L277.293 295.607L275.818 292.565L272.541 287.139L266.805 285.112L249.284 282.812L248.79 277.001L248.997 276.09L249.144 274.853L249.339 274.085L249.509 273.017L249.782 272.454L250.324 272.393L251.044 272.649L251.483 272.582L251.733 272.153L251.944 270.872L251.988 270.141L251.87 269.718L251.656 269.612L251.368 269.48L250.943 269.139L250.806 268.985L250.116 268.704L250.032 268.258L250.433 266.915L252.485 262.055L250.518 261.97L249.518 261.793L249.426 261.208L249.821 260.437L252.278 257.345L252.4 256.861L252.356 256.308L252.112 255.028L251.924 254.552L251.722 254.276L251.515 254.228L251.327 254.153L251.205 253.911L251.194 253.535L251.419 252.631L251.596 252.304L251.799 252.148L251.998 252.225L252.186 252.343L252.544 252.626L252.699 252.662L252.839 252.606L252.917 252.401L252.951 252.095L252.899 251.537L252.921 250.95L252.965 250.749L252.766 250.134L251.636 248.828Z" fill="#F4F6FB" stroke="#3F5AA9" stroke-linecap="round" stroke-linejoin="round"/>
<path d="M192.518 201.165L193.507 201.313L194.754 201.652L194.942 201.679L195.108 201.652L195.491 201.438L195.68 201.358L195.845 201.35L196.063 201.438L196.306 201.621L197.174 202.506L197.318 202.841L197.329 203.092L197.351 203.573L197.019 203.925L195.757 208.526L195.838 210.11L196.428 211.549L198.439 214.502L198.689 215.35L198.35 216.193L198.173 216.888L198.439 217.771L199.18 219.236L199.295 219.693L198.863 220.753L198.804 221.011L198.641 221.481L198.472 221.71L198.173 221.528L197.745 221.149L196.816 221.26L193.484 222.302L176.845 227.091L175.122 225.615L169.234 221.192L160.826 212.655L159.963 211.361L159.716 210.079L161.616 209.071L163.291 208.433L167.662 207.813L168.422 207.706L168.813 207.594L169.78 206.958L176.457 201.039L179.287 199.652L182.308 199.273L186.396 199.27L192.518 201.165Z" fill="#F4F6FB" stroke="#3F5AA9" stroke-linecap="round" stroke-linejoin="round"/>
</svg>
